M48
INCH,TZ
T1C0.016
T2C0.020
%
G90
G05
T1
X47200Y-38900
X47200Y-39200
X47200Y-40100
X47200Y-40400
X47200Y-41500
X47200Y-45600
X47200Y-45900
X47200Y-46200
X47200Y-47100
X47200Y-47400
X47500Y-38900
X47500Y-39200
X47500Y-40100
X47500Y-40400
X47500Y-45600
X47500Y-45900
X47500Y-46200
X47500Y-47100
X47500Y-47400
X47700Y-48500
X47800Y-38900
X47800Y-39200
X47800Y-40100
X47800Y-40400
X47800Y-47100
X47800Y-47400
X48300Y-37900
X48500Y-43600
X48700Y-50100
X48700Y-50500
X48900Y-50300
X48900Y-50700
X49000Y-40200
X49000Y-40500
X49000Y-47200
X49000Y-47500
X49000Y-48400
X49000Y-48700
X49000Y-49300
X49100Y-44700
X49100Y-50500
X49100Y-50900
X49200Y-38800
X49300Y-40200
X49300Y-40500
X49300Y-41400
X49300Y-41700
X49300Y-42000
X49300Y-46300
X49300Y-47200
X49300Y-47500
X49300Y-48400
X49300Y-48700
X49300Y-50700
X49300Y-51100
X49500Y-50900
X49500Y-51300
X49600Y-40200
X49600Y-40500
X49600Y-41400
X49600Y-41700
X49600Y-42000
X49600Y-47200
X49600Y-47500
X49600Y-48400
X49600Y-48700
X49900Y-45100
X50100Y-49600
X50100Y-49900
X50100Y-50200
X50200Y-37700
X50200Y-38000
X50200Y-43200
X50400Y-49600
X50400Y-49900
X50400Y-50200
X50500Y-37700
X50500Y-38000
X50600Y-44200
X50600Y-44500
X50600Y-44800
X50700Y-42600
X50800Y-37700
X50800Y-38000
X50900Y-44200
X50900Y-44500
X50900Y-44800
X51100Y-52000
X51700Y-37400
X51700Y-37700
X51700Y-38000
X51700Y-44200
X51700Y-44500
X51700Y-44800
X51700Y-49600
X51700Y-49900
X51700Y-50200
X51800Y-35600
X51800Y-35900
X51800Y-36200
X51800Y-42600
X51800Y-42900
X51800Y-43200
X52000Y-37400
X52000Y-37700
X52000Y-38000
X52000Y-44200
X52000Y-44500
X52000Y-44800
X52000Y-49600
X52000Y-49900
X52000Y-50200
X52100Y-35600
X52100Y-35900
X52100Y-36200
X52100Y-42600
X52100Y-42900
X52100Y-43200
X53000Y-35600
X53000Y-35900
X53000Y-36200
X53000Y-42600
X53000Y-42900
X53000Y-45100
X53200Y-37400
X53300Y-35600
X53300Y-35900
X53300Y-36200
X53300Y-42600
X53300Y-42900
X53600Y-42600
X53600Y-42900
X54000Y-51200
X54000Y-51600
X54200Y-38600
X54200Y-38900
X54200Y-39200
X54200Y-40100
X54200Y-40400
X54200Y-41500
X54200Y-45900
X54200Y-46200
X54200Y-47100
X54200Y-47400
X54200Y-51000
X54200Y-51400
X54400Y-50800
X54400Y-51200
X54500Y-38600
X54500Y-38900
X54500Y-39200
X54500Y-40100
X54500Y-40400
X54500Y-43100
X54500Y-45900
X54500Y-46200
X54500Y-47100
X54500Y-47400
X54500Y-48400
X54600Y-50600
X54600Y-51000
X54800Y-40100
X54800Y-40400
X54800Y-45900
X54800Y-46200
X54800Y-47100
X54800Y-47400
X54800Y-50400
X54800Y-50800
X54900Y-44600
X55000Y-37400
X56000Y-40200
X56000Y-40500
X56000Y-41400
X56000Y-41700
X56000Y-47200
X56000Y-47500
X56200Y-45900
X56300Y-40200
X56300Y-40500
X56300Y-41400
X56300Y-41700
X56300Y-47200
X56300Y-47500
X56300Y-48400
X56300Y-48700
X56300Y-49000
X56600Y-40200
X56600Y-40500
X56600Y-41400
X56600Y-41700
X56600Y-47200
X56600Y-47500
X56600Y-48400
X56600Y-48700
X56600Y-49000
X61900Y-37200
X61900Y-37500
X61900Y-41700
X61900Y-42000
X61900Y-46200
X61900Y-46500
X61900Y-50700
X61900Y-51000
X62200Y-37200
X62200Y-37500
X62200Y-41700
X62200Y-42000
X62200Y-46200
X62200Y-46500
X62200Y-50700
X62200Y-51000
X62400Y-38600
X62400Y-43100
X62400Y-47600
X62400Y-52100
X62500Y-37200
X62500Y-37500
X62500Y-41700
X62500Y-42000
X62500Y-46200
X62500Y-46500
X62500Y-50700
X62500Y-51000
X63300Y-37200
X63300Y-37500
X63300Y-41700
X63300Y-42000
X63300Y-46200
X63300Y-46500
X63300Y-50700
X63300Y-51000
X63400Y-36800
X63400Y-41300
X63400Y-45800
X63400Y-50300
X63600Y-37200
X63600Y-37500
X63600Y-41700
X63600Y-42000
X63600Y-46200
X63600Y-46500
X63600Y-50700
X63600Y-51000
X63900Y-37200
X63900Y-37500
X63900Y-41700
X63900Y-42000
X63900Y-46200
X63900Y-46500
X63900Y-50700
X63900Y-51000
T2
X57000Y-39900
X57000Y-40300
X57000Y-40700
X57000Y-46900
X57000Y-47300
X57000Y-47700
X61300Y-36400
X61300Y-36800
X61300Y-37200
X61300Y-40900
X61300Y-41300
X61300Y-41700
X61300Y-45400
X61300Y-45800
X61300Y-46200
X61300Y-49900
X61300Y-50300
X61300Y-50700
T0
M30
