G04 #@! TF.FileFunction,Profile,NP*
%FSLAX46Y46*%
G04 Gerber Fmt 4.6, Leading zero omitted, Abs format (unit mm)*
G04 Created by KiCad (PCBNEW (2015-08-16 BZR 6095)-product) date Tue Sep  1 07:22:12 2015*
%MOMM*%
G01*
G04 APERTURE LIST*
%ADD10C,0.350000*%
%ADD11C,0.100000*%
G04 APERTURE END LIST*
D10*
D11*
X154686000Y-129032000D02*
G75*
G03X153416000Y-130302000I0J-1270000D01*
G01*
X155956000Y-130302000D02*
G75*
G03X154686000Y-129032000I-1270000J0D01*
G01*
X153416000Y-125222000D02*
G75*
G03X154686000Y-126492000I1270000J0D01*
G01*
X154686000Y-126492000D02*
G75*
G03X155956000Y-125222000I0J1270000D01*
G01*
X154686000Y-117602000D02*
G75*
G03X153416000Y-118872000I0J-1270000D01*
G01*
X155956000Y-118872000D02*
G75*
G03X154686000Y-117602000I-1270000J0D01*
G01*
X153416000Y-113792000D02*
G75*
G03X154686000Y-115062000I1270000J0D01*
G01*
X154686000Y-115062000D02*
G75*
G03X155956000Y-113792000I0J1270000D01*
G01*
X154686000Y-106172000D02*
G75*
G03X153416000Y-107442000I0J-1270000D01*
G01*
X155956000Y-107442000D02*
G75*
G03X154686000Y-106172000I-1270000J0D01*
G01*
X153416000Y-102362000D02*
G75*
G03X154686000Y-103632000I1270000J0D01*
G01*
X154686000Y-103632000D02*
G75*
G03X155956000Y-102362000I0J1270000D01*
G01*
X154686000Y-94742000D02*
G75*
G03X153416000Y-96012000I0J-1270000D01*
G01*
X155956000Y-96012000D02*
G75*
G03X154686000Y-94742000I-1270000J0D01*
G01*
X153416000Y-90932000D02*
G75*
G03X154686000Y-92202000I1270000J0D01*
G01*
X154686000Y-92202000D02*
G75*
G03X155956000Y-90932000I0J1270000D01*
G01*
X153416000Y-89662000D02*
X147066000Y-89662000D01*
X153416000Y-90932000D02*
X153416000Y-89662000D01*
X153416000Y-102362000D02*
X153416000Y-96012000D01*
X153416000Y-113792000D02*
X153416000Y-107442000D01*
X153416000Y-132842000D02*
X147066000Y-132842000D01*
X153416000Y-130302000D02*
X153416000Y-132842000D01*
X153416000Y-125222000D02*
X153416000Y-118872000D01*
X155956000Y-130302000D02*
X155956000Y-132842000D01*
X155956000Y-123952000D02*
X155956000Y-125222000D01*
X155956000Y-118872000D02*
X155956000Y-121412000D01*
X155956000Y-112522000D02*
X155956000Y-113792000D01*
X155956000Y-107442000D02*
X155956000Y-109982000D01*
X155956000Y-101092000D02*
X155956000Y-102362000D01*
X155956000Y-96012000D02*
X155956000Y-98552000D01*
X155956000Y-89662000D02*
X155956000Y-90932000D01*
X147066000Y-122682000D02*
X147066000Y-132842000D01*
X144526000Y-122682000D02*
X144526000Y-124714000D01*
X144526000Y-97790000D02*
X144526000Y-99822000D01*
X144526000Y-99822000D02*
G75*
G03X145796000Y-101092000I1270000J0D01*
G01*
X145796000Y-101092000D02*
G75*
G03X147066000Y-99822000I0J1270000D01*
G01*
X145796000Y-103632000D02*
G75*
G03X144526000Y-104902000I0J-1270000D01*
G01*
X147066000Y-104902000D02*
G75*
G03X145796000Y-103632000I-1270000J0D01*
G01*
X145796000Y-121412000D02*
G75*
G03X144526000Y-122682000I0J-1270000D01*
G01*
X147066000Y-122682000D02*
G75*
G03X145796000Y-121412000I-1270000J0D01*
G01*
X144526000Y-117602000D02*
G75*
G03X145796000Y-118872000I1270000J0D01*
G01*
X145796000Y-118872000D02*
G75*
G03X147066000Y-117602000I0J1270000D01*
G01*
X147066000Y-89662000D02*
X147066000Y-99822000D01*
X144526000Y-104902000D02*
X144526000Y-108712000D01*
X144526000Y-113792000D02*
X144526000Y-117602000D01*
X147066000Y-117602000D02*
X147066000Y-104902000D01*
X155956000Y-112522000D02*
X163576000Y-112522000D01*
X163576000Y-121412000D02*
X155956000Y-121412000D01*
X163576000Y-121412000D02*
X163576000Y-112522000D01*
X163576000Y-132842000D02*
X163576000Y-123952000D01*
X163576000Y-132842000D02*
X155956000Y-132842000D01*
X155956000Y-123952000D02*
X163576000Y-123952000D01*
X155956000Y-101092000D02*
X163576000Y-101092000D01*
X163576000Y-109982000D02*
X155956000Y-109982000D01*
X163576000Y-109982000D02*
X163576000Y-101092000D01*
X127254000Y-89662000D02*
X136398000Y-89662000D01*
X136398000Y-132842000D02*
X127254000Y-132842000D01*
X119126000Y-97790000D02*
X119126000Y-108712000D01*
X126746000Y-106934000D02*
X126746000Y-97790000D01*
X136398000Y-107442000D02*
X127254000Y-107442000D01*
X136906000Y-97790000D02*
X136906000Y-106934000D01*
X127254000Y-97282000D02*
X136398000Y-97282000D01*
X126746000Y-124714000D02*
X126746000Y-115570000D01*
X127254000Y-125222000D02*
X126746000Y-124714000D01*
X136398000Y-125222000D02*
X127254000Y-125222000D01*
X136906000Y-124714000D02*
X136398000Y-125222000D01*
X136906000Y-115570000D02*
X136906000Y-124714000D01*
X127254000Y-115062000D02*
X136398000Y-115062000D01*
X126746000Y-115570000D02*
X127254000Y-115062000D01*
X119126000Y-124714000D02*
X119126000Y-113792000D01*
X136398000Y-115062000D02*
X136906000Y-115570000D01*
X136906000Y-106934000D02*
X136398000Y-107442000D01*
X136398000Y-97282000D02*
X136906000Y-97790000D01*
X126746000Y-97790000D02*
X127254000Y-97282000D01*
X127254000Y-107442000D02*
X126746000Y-106934000D01*
X144526000Y-124714000D02*
X136398000Y-132842000D01*
X142494000Y-111760000D02*
X144526000Y-113792000D01*
X142494000Y-110744000D02*
X142494000Y-111760000D01*
X144526000Y-108712000D02*
X142494000Y-110744000D01*
X136398000Y-89662000D02*
X144526000Y-97790000D01*
X119126000Y-97790000D02*
X127254000Y-89662000D01*
X121158000Y-110744000D02*
X119126000Y-108712000D01*
X121158000Y-111760000D02*
X121158000Y-110744000D01*
X119126000Y-113792000D02*
X121158000Y-111760000D01*
X127254000Y-132842000D02*
X119126000Y-124714000D01*
X163576000Y-98552000D02*
X163576000Y-89662000D01*
X163576000Y-98552000D02*
X155956000Y-98552000D01*
X155956000Y-89662000D02*
X163576000Y-89662000D01*
M02*
