G04 #@! TF.FileFunction,Copper,L2,Bot,Signal*
%FSLAX46Y46*%
G04 Gerber Fmt 4.6, Leading zero omitted, Abs format (unit mm)*
G04 Created by KiCad (PCBNEW (2015-08-16 BZR 6095)-product) date Tue Sep  1 07:22:12 2015*
%MOMM*%
G01*
G04 APERTURE LIST*
%ADD10C,0.350000*%
%ADD11C,0.100000*%
%ADD12R,1.270000X2.540000*%
%ADD13O,1.270000X3.175000*%
%ADD14C,0.600000*%
%ADD15C,0.406400*%
%ADD16C,0.254000*%
%ADD17C,0.250000*%
%ADD18C,0.350000*%
G04 APERTURE END LIST*
D10*
D11*
X154686000Y-129032000D02*
G75*
G03X153416000Y-130302000I0J-1270000D01*
G01*
X155956000Y-130302000D02*
G75*
G03X154686000Y-129032000I-1270000J0D01*
G01*
X153416000Y-125222000D02*
G75*
G03X154686000Y-126492000I1270000J0D01*
G01*
X154686000Y-126492000D02*
G75*
G03X155956000Y-125222000I0J1270000D01*
G01*
X154686000Y-117602000D02*
G75*
G03X153416000Y-118872000I0J-1270000D01*
G01*
X155956000Y-118872000D02*
G75*
G03X154686000Y-117602000I-1270000J0D01*
G01*
X153416000Y-113792000D02*
G75*
G03X154686000Y-115062000I1270000J0D01*
G01*
X154686000Y-115062000D02*
G75*
G03X155956000Y-113792000I0J1270000D01*
G01*
X154686000Y-106172000D02*
G75*
G03X153416000Y-107442000I0J-1270000D01*
G01*
X155956000Y-107442000D02*
G75*
G03X154686000Y-106172000I-1270000J0D01*
G01*
X153416000Y-102362000D02*
G75*
G03X154686000Y-103632000I1270000J0D01*
G01*
X154686000Y-103632000D02*
G75*
G03X155956000Y-102362000I0J1270000D01*
G01*
X154686000Y-94742000D02*
G75*
G03X153416000Y-96012000I0J-1270000D01*
G01*
X155956000Y-96012000D02*
G75*
G03X154686000Y-94742000I-1270000J0D01*
G01*
X153416000Y-90932000D02*
G75*
G03X154686000Y-92202000I1270000J0D01*
G01*
X154686000Y-92202000D02*
G75*
G03X155956000Y-90932000I0J1270000D01*
G01*
X153416000Y-89662000D02*
X147066000Y-89662000D01*
X153416000Y-90932000D02*
X153416000Y-89662000D01*
X153416000Y-102362000D02*
X153416000Y-96012000D01*
X153416000Y-113792000D02*
X153416000Y-107442000D01*
X153416000Y-132842000D02*
X147066000Y-132842000D01*
X153416000Y-130302000D02*
X153416000Y-132842000D01*
X153416000Y-125222000D02*
X153416000Y-118872000D01*
X155956000Y-130302000D02*
X155956000Y-132842000D01*
X155956000Y-123952000D02*
X155956000Y-125222000D01*
X155956000Y-118872000D02*
X155956000Y-121412000D01*
X155956000Y-112522000D02*
X155956000Y-113792000D01*
X155956000Y-107442000D02*
X155956000Y-109982000D01*
X155956000Y-101092000D02*
X155956000Y-102362000D01*
X155956000Y-96012000D02*
X155956000Y-98552000D01*
X155956000Y-89662000D02*
X155956000Y-90932000D01*
X147066000Y-122682000D02*
X147066000Y-132842000D01*
X144526000Y-122682000D02*
X144526000Y-124714000D01*
X144526000Y-97790000D02*
X144526000Y-99822000D01*
X144526000Y-99822000D02*
G75*
G03X145796000Y-101092000I1270000J0D01*
G01*
X145796000Y-101092000D02*
G75*
G03X147066000Y-99822000I0J1270000D01*
G01*
X145796000Y-103632000D02*
G75*
G03X144526000Y-104902000I0J-1270000D01*
G01*
X147066000Y-104902000D02*
G75*
G03X145796000Y-103632000I-1270000J0D01*
G01*
X145796000Y-121412000D02*
G75*
G03X144526000Y-122682000I0J-1270000D01*
G01*
X147066000Y-122682000D02*
G75*
G03X145796000Y-121412000I-1270000J0D01*
G01*
X144526000Y-117602000D02*
G75*
G03X145796000Y-118872000I1270000J0D01*
G01*
X145796000Y-118872000D02*
G75*
G03X147066000Y-117602000I0J1270000D01*
G01*
X147066000Y-89662000D02*
X147066000Y-99822000D01*
X144526000Y-104902000D02*
X144526000Y-108712000D01*
X144526000Y-113792000D02*
X144526000Y-117602000D01*
X147066000Y-117602000D02*
X147066000Y-104902000D01*
X155956000Y-112522000D02*
X163576000Y-112522000D01*
X163576000Y-121412000D02*
X155956000Y-121412000D01*
X163576000Y-121412000D02*
X163576000Y-112522000D01*
X163576000Y-132842000D02*
X163576000Y-123952000D01*
X163576000Y-132842000D02*
X155956000Y-132842000D01*
X155956000Y-123952000D02*
X163576000Y-123952000D01*
X155956000Y-101092000D02*
X163576000Y-101092000D01*
X163576000Y-109982000D02*
X155956000Y-109982000D01*
X163576000Y-109982000D02*
X163576000Y-101092000D01*
X127254000Y-89662000D02*
X136398000Y-89662000D01*
X136398000Y-132842000D02*
X127254000Y-132842000D01*
X119126000Y-97790000D02*
X119126000Y-108712000D01*
X126746000Y-106934000D02*
X126746000Y-97790000D01*
X136398000Y-107442000D02*
X127254000Y-107442000D01*
X136906000Y-97790000D02*
X136906000Y-106934000D01*
X127254000Y-97282000D02*
X136398000Y-97282000D01*
X126746000Y-124714000D02*
X126746000Y-115570000D01*
X127254000Y-125222000D02*
X126746000Y-124714000D01*
X136398000Y-125222000D02*
X127254000Y-125222000D01*
X136906000Y-124714000D02*
X136398000Y-125222000D01*
X136906000Y-115570000D02*
X136906000Y-124714000D01*
X127254000Y-115062000D02*
X136398000Y-115062000D01*
X126746000Y-115570000D02*
X127254000Y-115062000D01*
X119126000Y-124714000D02*
X119126000Y-113792000D01*
X136398000Y-115062000D02*
X136906000Y-115570000D01*
X136906000Y-106934000D02*
X136398000Y-107442000D01*
X136398000Y-97282000D02*
X136906000Y-97790000D01*
X126746000Y-97790000D02*
X127254000Y-97282000D01*
X127254000Y-107442000D02*
X126746000Y-106934000D01*
X144526000Y-124714000D02*
X136398000Y-132842000D01*
X142494000Y-111760000D02*
X144526000Y-113792000D01*
X142494000Y-110744000D02*
X142494000Y-111760000D01*
X144526000Y-108712000D02*
X142494000Y-110744000D01*
X136398000Y-89662000D02*
X144526000Y-97790000D01*
X119126000Y-97790000D02*
X127254000Y-89662000D01*
X121158000Y-110744000D02*
X119126000Y-108712000D01*
X121158000Y-111760000D02*
X121158000Y-110744000D01*
X119126000Y-113792000D02*
X121158000Y-111760000D01*
X127254000Y-132842000D02*
X119126000Y-124714000D01*
X163576000Y-98552000D02*
X163576000Y-89662000D01*
X163576000Y-98552000D02*
X155956000Y-98552000D01*
X155956000Y-89662000D02*
X163576000Y-89662000D01*
D12*
X157226000Y-119888000D03*
X159766000Y-119888000D03*
X162306000Y-119888000D03*
X157226000Y-114046000D03*
X159766000Y-114046000D03*
X162306000Y-114046000D03*
X157226000Y-125476000D03*
X159766000Y-125476000D03*
X162306000Y-125476000D03*
X157226000Y-131318000D03*
X159766000Y-131318000D03*
X162306000Y-131318000D03*
X157226000Y-108458000D03*
X159766000Y-108458000D03*
X162306000Y-108458000D03*
X157226000Y-102616000D03*
X159766000Y-102616000D03*
X162306000Y-102616000D03*
D13*
X128016000Y-130302000D03*
X130556000Y-130302000D03*
X133096000Y-130302000D03*
X135636000Y-130302000D03*
D12*
X157226000Y-91186000D03*
X159766000Y-91186000D03*
X162306000Y-91186000D03*
X157226000Y-97028000D03*
X159766000Y-97028000D03*
X162306000Y-97028000D03*
D14*
X157226000Y-118110000D03*
X157988000Y-118110000D03*
X157226000Y-117348000D03*
X157988000Y-117348000D03*
X158750000Y-118110000D03*
X158750000Y-117348000D03*
X158750000Y-128778000D03*
X158750000Y-129540000D03*
X157988000Y-128778000D03*
X157226000Y-128778000D03*
X157988000Y-129540000D03*
X157226000Y-129540000D03*
X157226000Y-106680000D03*
X157988000Y-106680000D03*
X157226000Y-105918000D03*
X157988000Y-105918000D03*
X158750000Y-106680000D03*
X158750000Y-105918000D03*
X158750000Y-94488000D03*
X158750000Y-95250000D03*
X157988000Y-94488000D03*
X157226000Y-94488000D03*
X157988000Y-95250000D03*
X157226000Y-95250000D03*
X136144000Y-108966000D03*
X136144000Y-108204000D03*
X132334000Y-108966000D03*
X131572000Y-108966000D03*
X131572000Y-108204000D03*
X132334000Y-108204000D03*
X134620000Y-108966000D03*
X135382000Y-108966000D03*
X135382000Y-108204000D03*
X134620000Y-108204000D03*
X125222000Y-106680000D03*
X143002000Y-124460000D03*
X120650000Y-115824000D03*
X138430000Y-98044000D03*
X127508000Y-95758000D03*
X119888000Y-115824000D03*
X121412000Y-119634000D03*
X121412000Y-120396000D03*
X143764000Y-124460000D03*
X142240000Y-120650000D03*
X142240000Y-119888000D03*
X139192000Y-102616000D03*
X139192000Y-101854000D03*
X137668000Y-98044000D03*
X131318000Y-94996000D03*
X132080000Y-94996000D03*
X127508000Y-96520000D03*
X125984000Y-106680000D03*
X124460000Y-102870000D03*
X124460000Y-102108000D03*
X143002000Y-122936000D03*
X143002000Y-123698000D03*
X143764000Y-123698000D03*
X143764000Y-122936000D03*
X143002000Y-120650000D03*
X143002000Y-119888000D03*
X143764000Y-119888000D03*
X143764000Y-120650000D03*
X129032000Y-95758000D03*
X128270000Y-95758000D03*
X128270000Y-96520000D03*
X129032000Y-96520000D03*
X131318000Y-95758000D03*
X132080000Y-95758000D03*
X132080000Y-96520000D03*
X131318000Y-96520000D03*
X125222000Y-102870000D03*
X125222000Y-102108000D03*
X125984000Y-102108000D03*
X125984000Y-102870000D03*
X125222000Y-105156000D03*
X125222000Y-105918000D03*
X125984000Y-105918000D03*
X125984000Y-105156000D03*
X138430000Y-99568000D03*
X138430000Y-98806000D03*
X137668000Y-98806000D03*
X137668000Y-99568000D03*
X138430000Y-101854000D03*
X138430000Y-102616000D03*
X137668000Y-102616000D03*
X137668000Y-101854000D03*
X120650000Y-119634000D03*
X120650000Y-120396000D03*
X119888000Y-120396000D03*
X119888000Y-119634000D03*
X120650000Y-117348000D03*
X120650000Y-116586000D03*
X119888000Y-116586000D03*
X119888000Y-117348000D03*
X131572000Y-109728000D03*
X132334000Y-109728000D03*
X125730000Y-130302000D03*
X125730000Y-129286000D03*
X125222000Y-128778000D03*
X124714000Y-128270000D03*
X124206000Y-127762000D03*
X123698000Y-127254000D03*
X125222000Y-129794000D03*
X124714000Y-129286000D03*
X124206000Y-128778000D03*
X123698000Y-128270000D03*
X137160000Y-131064000D03*
X137668000Y-130556000D03*
X138176000Y-130048000D03*
X138684000Y-129540000D03*
X139192000Y-129032000D03*
X139192000Y-128016000D03*
X138684000Y-128524000D03*
X138176000Y-129032000D03*
X137668000Y-129540000D03*
X137160000Y-130048000D03*
X162306000Y-118110000D03*
X162306000Y-117348000D03*
X161544000Y-117348000D03*
X160782000Y-117348000D03*
X160782000Y-118110000D03*
X161544000Y-118110000D03*
X161544000Y-129540000D03*
X160782000Y-129540000D03*
X160782000Y-128778000D03*
X161544000Y-128778000D03*
X162306000Y-128778000D03*
X162306000Y-129540000D03*
X162306000Y-106680000D03*
X162306000Y-105918000D03*
X161544000Y-105918000D03*
X160782000Y-105918000D03*
X160782000Y-106680000D03*
X161544000Y-106680000D03*
X161544000Y-95250000D03*
X160782000Y-95250000D03*
X160782000Y-94488000D03*
X161544000Y-94488000D03*
X162306000Y-94488000D03*
X162306000Y-95250000D03*
X124460000Y-123698000D03*
X124460000Y-122936000D03*
X124460000Y-120650000D03*
X124460000Y-119888000D03*
X139192000Y-120396000D03*
X139192000Y-119634000D03*
X139192000Y-117348000D03*
X139192000Y-116586000D03*
X142240000Y-105918000D03*
X142240000Y-105156000D03*
X142240000Y-102870000D03*
X142240000Y-102108000D03*
X135382000Y-91948000D03*
X134620000Y-91948000D03*
X132334000Y-91948000D03*
X131572000Y-91948000D03*
X121412000Y-98806000D03*
X121412000Y-99568000D03*
X121412000Y-102616000D03*
X121412000Y-101854000D03*
X125984000Y-119888000D03*
X125222000Y-119888000D03*
X125222000Y-120650000D03*
X125984000Y-120650000D03*
X125222000Y-122936000D03*
X125222000Y-123698000D03*
X125984000Y-123698000D03*
X125984000Y-122936000D03*
X120650000Y-101854000D03*
X120650000Y-102616000D03*
X119888000Y-102616000D03*
X119888000Y-101854000D03*
X120650000Y-99568000D03*
X120650000Y-98806000D03*
X119888000Y-98806000D03*
X119888000Y-99568000D03*
X138430000Y-119634000D03*
X138430000Y-120396000D03*
X137668000Y-120396000D03*
X137668000Y-119634000D03*
X138430000Y-117348000D03*
X138430000Y-116586000D03*
X137668000Y-116586000D03*
X137668000Y-117348000D03*
X143002000Y-102870000D03*
X143002000Y-102108000D03*
X143764000Y-102108000D03*
X143764000Y-102870000D03*
X143002000Y-105156000D03*
X143002000Y-105918000D03*
X143764000Y-105918000D03*
X143764000Y-105156000D03*
X132334000Y-91186000D03*
X131572000Y-91186000D03*
X131572000Y-90424000D03*
X132334000Y-90424000D03*
X134620000Y-91186000D03*
X135382000Y-91186000D03*
X135382000Y-90424000D03*
X134620000Y-90424000D03*
X132080000Y-113030000D03*
X131318000Y-113030000D03*
X131318000Y-112268000D03*
X132080000Y-112268000D03*
X128524000Y-112268000D03*
X129286000Y-112268000D03*
X129286000Y-113030000D03*
X128524000Y-113029992D03*
X128524000Y-113792000D03*
X129286000Y-113792000D03*
X131318000Y-113792000D03*
X132080000Y-113792000D03*
X128016000Y-127508000D03*
X128016000Y-126746000D03*
X127254000Y-126746000D03*
X127254000Y-127508000D03*
X127254000Y-125984000D03*
X128016000Y-125984000D03*
X131318000Y-127508000D03*
X132080000Y-127508000D03*
X132080000Y-126746000D03*
X132080000Y-125984000D03*
X131318000Y-125984000D03*
X131318000Y-126746000D03*
X124460000Y-125222000D03*
X125222000Y-117602000D03*
X121158000Y-123190000D03*
X126746000Y-114554000D03*
X124713986Y-113538000D03*
X134620072Y-114554000D03*
X119888000Y-105410000D03*
X128778000Y-108204000D03*
X127508000Y-109728000D03*
X123189986Y-110744000D03*
X122682000Y-96266000D03*
X124968000Y-98552000D03*
X139700000Y-94996000D03*
X135128000Y-94996000D03*
X139446000Y-113283984D03*
X137668000Y-105410000D03*
X138430004Y-122936000D03*
X138430000Y-109474000D03*
X129794000Y-132080000D03*
X142748000Y-116586000D03*
X161036000Y-116332000D03*
X161036000Y-127762000D03*
X161036000Y-104902000D03*
X161036000Y-93472000D03*
X158496000Y-120904000D03*
X158496000Y-132334000D03*
X158496000Y-109474000D03*
X158496000Y-98044000D03*
D15*
X157988000Y-118110000D02*
X158750000Y-118110000D01*
X157226000Y-117348000D02*
X157226000Y-114046000D01*
X157226000Y-118110000D02*
X157226000Y-119888000D01*
X157226000Y-129540000D02*
X157226000Y-131318000D01*
X157226000Y-128778000D02*
X157226000Y-125476000D01*
X157988000Y-129540000D02*
X158750000Y-129540000D01*
X157988000Y-106680000D02*
X158750000Y-106680000D01*
X157226000Y-105918000D02*
X157226000Y-102616000D01*
X157226000Y-106680000D02*
X157226000Y-108458000D01*
X157226000Y-95250000D02*
X157226000Y-97028000D01*
X157226000Y-94488000D02*
X157226000Y-91186000D01*
X157988000Y-95250000D02*
X158750000Y-95250000D01*
X135382000Y-108204000D02*
X136144000Y-108204000D01*
X131572000Y-108966000D02*
X132334000Y-108966000D01*
X132334000Y-108204000D02*
X131572000Y-108204000D01*
X135382000Y-108966000D02*
X134620000Y-108966000D01*
X134620000Y-108204000D02*
X135382000Y-108204000D01*
X125222000Y-105918000D02*
X125222000Y-106680000D01*
X143002000Y-123698000D02*
X143002000Y-124460000D01*
X128270000Y-95758000D02*
X127508000Y-95758000D01*
X120650000Y-119634000D02*
X121412000Y-119634000D01*
X143002000Y-119888000D02*
X142240000Y-119888000D01*
X138430000Y-102616000D02*
X139192000Y-102616000D01*
X131318000Y-95758000D02*
X131318000Y-94996000D01*
X128270000Y-96520000D02*
X127508000Y-96520000D01*
X125984000Y-105918000D02*
X125984000Y-106680000D01*
X124460000Y-102108000D02*
X124460000Y-102870000D01*
X143002000Y-123698000D02*
X143002000Y-122936000D01*
X143764000Y-122936000D02*
X143764000Y-123698000D01*
X143002000Y-119888000D02*
X143002000Y-120650000D01*
X143764000Y-120650000D02*
X143764000Y-119888000D01*
X128270000Y-95758000D02*
X129032000Y-95758000D01*
X129032000Y-96520000D02*
X128270000Y-96520000D01*
X132080000Y-95758000D02*
X131318000Y-95758000D01*
X131318000Y-96520000D02*
X132080000Y-96520000D01*
X125222000Y-102108000D02*
X125222000Y-102870000D01*
X125984000Y-102870000D02*
X125984000Y-102108000D01*
X125222000Y-105918000D02*
X125222000Y-105156000D01*
X125984000Y-105156000D02*
X125984000Y-105918000D01*
X138430000Y-98806000D02*
X138430000Y-99568000D01*
X137668000Y-99568000D02*
X137668000Y-98806000D01*
X138430000Y-102616000D02*
X138430000Y-101854000D01*
X137668000Y-101854000D02*
X137668000Y-102616000D01*
X120650000Y-120396000D02*
X120650000Y-119634000D01*
X119888000Y-119634000D02*
X119888000Y-120396000D01*
X120650000Y-116586000D02*
X120650000Y-117348000D01*
X119888000Y-117348000D02*
X119888000Y-116586000D01*
X131572000Y-108966000D02*
X131572000Y-109728000D01*
X132334000Y-108966000D02*
X132334000Y-109728000D01*
X125730000Y-130302000D02*
X125730000Y-129286000D01*
X125222000Y-128778000D02*
X124714000Y-128270000D01*
X124206000Y-127762000D02*
X123698000Y-127254000D01*
X125222000Y-129794000D02*
X124714000Y-129286000D01*
X124206000Y-128778000D02*
X123698000Y-128270000D01*
X137160000Y-131064000D02*
X137668000Y-130556000D01*
X138176000Y-130048000D02*
X138684000Y-129540000D01*
X139192000Y-129032000D02*
X139192000Y-128016000D01*
X138684000Y-128524000D02*
X138176000Y-129032000D01*
X137668000Y-129540000D02*
X137160000Y-130048000D01*
X162306000Y-117348000D02*
X161544000Y-117348000D01*
X160782000Y-117348000D02*
X160782000Y-118110000D01*
X162306000Y-114046000D02*
X162306000Y-117348000D01*
X162306000Y-118110000D02*
X162306000Y-119888000D01*
X162306000Y-129540000D02*
X162306000Y-131318000D01*
X162306000Y-125476000D02*
X162306000Y-128778000D01*
X160782000Y-128778000D02*
X160782000Y-129540000D01*
X162306000Y-128778000D02*
X161544000Y-128778000D01*
X162306000Y-105918000D02*
X161544000Y-105918000D01*
X160782000Y-105918000D02*
X160782000Y-106680000D01*
X162306000Y-102616000D02*
X162306000Y-105918000D01*
X162306000Y-106680000D02*
X162306000Y-108458000D01*
X162306000Y-95250000D02*
X162306000Y-97028000D01*
X162306000Y-91186000D02*
X162306000Y-94488000D01*
X160782000Y-94488000D02*
X160782000Y-95250000D01*
X162306000Y-94488000D02*
X161544000Y-94488000D01*
X125222000Y-123698000D02*
X124460000Y-123698000D01*
X125222000Y-120650000D02*
X124460000Y-120650000D01*
X138430000Y-119634000D02*
X139192000Y-119634000D01*
X138430000Y-116586000D02*
X139192000Y-116586000D01*
X143002000Y-105918000D02*
X142240000Y-105918000D01*
X143002000Y-102870000D02*
X142240000Y-102870000D01*
X135382000Y-91186000D02*
X135382000Y-91948000D01*
X132334000Y-91186000D02*
X132334000Y-91948000D01*
X121412000Y-99568000D02*
X121412000Y-98806000D01*
X121412000Y-101854000D02*
X121412000Y-102616000D01*
X125222000Y-119888000D02*
X125984000Y-119888000D01*
X125984000Y-120650000D02*
X125222000Y-120650000D01*
X125222000Y-123698000D02*
X125222000Y-122936000D01*
X125984000Y-122936000D02*
X125984000Y-123698000D01*
X120650000Y-102616000D02*
X120650000Y-101854000D01*
X119888000Y-101854000D02*
X119888000Y-102616000D01*
X120650000Y-98806000D02*
X120650000Y-99568000D01*
X119888000Y-99568000D02*
X119888000Y-98806000D01*
X138430000Y-120396000D02*
X138430000Y-119634000D01*
X137668000Y-119634000D02*
X137668000Y-120396000D01*
X138430000Y-116586000D02*
X138430000Y-117348000D01*
X137668000Y-117348000D02*
X137668000Y-116586000D01*
X143002000Y-102108000D02*
X143002000Y-102870000D01*
X143764000Y-102870000D02*
X143764000Y-102108000D01*
X143002000Y-105918000D02*
X143002000Y-105156000D01*
X143764000Y-105156000D02*
X143764000Y-105918000D01*
X131572000Y-91186000D02*
X132334000Y-91186000D01*
X132334000Y-90424000D02*
X131572000Y-90424000D01*
X135382000Y-91186000D02*
X134620000Y-91186000D01*
X134620000Y-90424000D02*
X135382000Y-90424000D01*
X132080000Y-113030000D02*
X131318000Y-113030000D01*
X131318000Y-112268000D02*
X132080000Y-112268000D01*
X129286000Y-112268000D02*
X129286000Y-113030000D01*
X128524000Y-112268000D02*
X128524000Y-113029992D01*
X128524000Y-113792000D02*
X129286000Y-113792000D01*
X131318000Y-113792000D02*
X132080000Y-113792000D01*
X128016000Y-127508000D02*
X128016000Y-126746000D01*
X127254000Y-126746000D02*
X127254000Y-127508000D01*
X127254000Y-125984000D02*
X128016000Y-125984000D01*
X131318000Y-127508000D02*
X132080000Y-127508000D01*
X132080000Y-126746000D02*
X132080000Y-125984000D01*
X131318000Y-125984000D02*
X131318000Y-126746000D01*
D16*
X123444000Y-124206000D02*
X123444000Y-118364000D01*
X124460000Y-125222000D02*
X123444000Y-124206000D01*
X123444000Y-118364000D02*
X123444000Y-118110000D01*
X123952000Y-117602000D02*
X125222000Y-117602000D01*
X123444000Y-118110000D02*
X123952000Y-117602000D01*
X121158000Y-123190000D02*
X122936000Y-121412000D01*
X122936000Y-121412000D02*
X122936000Y-115315986D01*
X124413987Y-113837999D02*
X124713986Y-113538000D01*
X122936000Y-115315986D02*
X124413987Y-113837999D01*
X126746000Y-114554000D02*
X134620072Y-114554000D01*
X128778000Y-108204000D02*
X128778000Y-109220000D01*
X128778000Y-109220000D02*
X128270000Y-109728000D01*
X128270000Y-109728000D02*
X127508000Y-109728000D01*
X121920000Y-110744000D02*
X123189986Y-110744000D01*
X119888000Y-108712000D02*
X121920000Y-110744000D01*
X119888000Y-105410000D02*
X119888000Y-108712000D01*
X122682000Y-96266000D02*
X124968000Y-98552000D01*
X139700000Y-94996000D02*
X135128000Y-94996000D01*
X138430000Y-106172000D02*
X137668000Y-105410000D01*
X139446000Y-113283984D02*
X140716000Y-114553984D01*
X140716000Y-114553984D02*
X140716000Y-120650004D01*
X140716000Y-120650004D02*
X138730003Y-122636001D01*
X138730003Y-122636001D02*
X138430004Y-122936000D01*
X138430000Y-109474000D02*
X138430000Y-106172000D01*
X130556000Y-131318000D02*
X129794000Y-132080000D01*
X130556000Y-130302000D02*
X130556000Y-131318000D01*
X133096000Y-130302000D02*
X133096000Y-129286000D01*
X133096000Y-129286000D02*
X135128000Y-127254000D01*
X135128000Y-127254000D02*
X137922000Y-127254000D01*
X137922000Y-127254000D02*
X141224000Y-123952000D01*
X141224000Y-117094000D02*
X141732000Y-116586000D01*
X141224000Y-123952000D02*
X141224000Y-117094000D01*
X141732000Y-116586000D02*
X142748000Y-116586000D01*
D17*
X160274000Y-116332000D02*
X161036000Y-116332000D01*
X159766000Y-115824000D02*
X160274000Y-116332000D01*
X159766000Y-114046000D02*
X159766000Y-115824000D01*
X159766000Y-125476000D02*
X159766000Y-127254000D01*
X159766000Y-127254000D02*
X160274000Y-127762000D01*
X160274000Y-127762000D02*
X161036000Y-127762000D01*
X160274000Y-104902000D02*
X161036000Y-104902000D01*
X159766000Y-104394000D02*
X160274000Y-104902000D01*
X159766000Y-102616000D02*
X159766000Y-104394000D01*
X159766000Y-91186000D02*
X159766000Y-92964000D01*
X159766000Y-92964000D02*
X160274000Y-93472000D01*
X160274000Y-93472000D02*
X161036000Y-93472000D01*
X158881000Y-119888000D02*
X158496000Y-120273000D01*
X159766000Y-119888000D02*
X158881000Y-119888000D01*
X158496000Y-120273000D02*
X158496000Y-120904000D01*
X158496000Y-131703000D02*
X158496000Y-132334000D01*
X159766000Y-131318000D02*
X158881000Y-131318000D01*
X158881000Y-131318000D02*
X158496000Y-131703000D01*
X158881000Y-108458000D02*
X158496000Y-108843000D01*
X159766000Y-108458000D02*
X158881000Y-108458000D01*
X158496000Y-108843000D02*
X158496000Y-109474000D01*
X158496000Y-97413000D02*
X158496000Y-98044000D01*
X159766000Y-97028000D02*
X158881000Y-97028000D01*
X158881000Y-97028000D02*
X158496000Y-97413000D01*
D16*
G36*
X125857000Y-130763632D02*
X119607800Y-124514432D01*
X119607800Y-113991568D01*
X121498684Y-112100684D01*
X121603125Y-111944377D01*
X121639800Y-111760000D01*
X121639800Y-111411120D01*
X122555000Y-112326320D01*
X122555000Y-114906724D01*
X122540869Y-114920855D01*
X122419736Y-115102142D01*
X122377200Y-115315986D01*
X122377200Y-121180538D01*
X121099589Y-122458148D01*
X121013075Y-122458073D01*
X120744010Y-122569248D01*
X120537972Y-122774927D01*
X120426327Y-123043797D01*
X120426073Y-123334925D01*
X120537248Y-123603990D01*
X120742927Y-123810028D01*
X121011797Y-123921673D01*
X121302925Y-123921927D01*
X121571990Y-123810752D01*
X121778028Y-123605073D01*
X121889673Y-123336203D01*
X121889749Y-123248512D01*
X122555000Y-122583262D01*
X122555000Y-124766605D01*
X125857000Y-128068605D01*
X125857000Y-128778000D01*
X125857000Y-130763632D01*
X125857000Y-130763632D01*
G37*
X125857000Y-130763632D02*
X119607800Y-124514432D01*
X119607800Y-113991568D01*
X121498684Y-112100684D01*
X121603125Y-111944377D01*
X121639800Y-111760000D01*
X121639800Y-111411120D01*
X122555000Y-112326320D01*
X122555000Y-114906724D01*
X122540869Y-114920855D01*
X122419736Y-115102142D01*
X122377200Y-115315986D01*
X122377200Y-121180538D01*
X121099589Y-122458148D01*
X121013075Y-122458073D01*
X120744010Y-122569248D01*
X120537972Y-122774927D01*
X120426327Y-123043797D01*
X120426073Y-123334925D01*
X120537248Y-123603990D01*
X120742927Y-123810028D01*
X121011797Y-123921673D01*
X121302925Y-123921927D01*
X121571990Y-123810752D01*
X121778028Y-123605073D01*
X121889673Y-123336203D01*
X121889749Y-123248512D01*
X122555000Y-122583262D01*
X122555000Y-124766605D01*
X125857000Y-128068605D01*
X125857000Y-128778000D01*
X125857000Y-130763632D01*
G36*
X144044200Y-124514432D02*
X137113632Y-131445000D01*
X136630907Y-131445000D01*
X136652000Y-131381500D01*
X136652000Y-130429000D01*
X136652000Y-130175000D01*
X136652000Y-129222500D01*
X136526061Y-128843361D01*
X136264618Y-128541277D01*
X135919127Y-128373747D01*
X135763000Y-128437551D01*
X135763000Y-130175000D01*
X136652000Y-130175000D01*
X136652000Y-130429000D01*
X135763000Y-130429000D01*
X135763000Y-130449000D01*
X135509000Y-130449000D01*
X135509000Y-130429000D01*
X135509000Y-130175000D01*
X135509000Y-128437551D01*
X135352873Y-128373747D01*
X135007382Y-128541277D01*
X134745939Y-128843361D01*
X134620000Y-129222500D01*
X134620000Y-130175000D01*
X135509000Y-130175000D01*
X135509000Y-130429000D01*
X134620000Y-130429000D01*
X134620000Y-131381500D01*
X134641092Y-131445000D01*
X134239000Y-131445000D01*
X134239000Y-128933262D01*
X135359462Y-127812800D01*
X137922000Y-127812800D01*
X138135843Y-127770264D01*
X138135844Y-127770264D01*
X138317131Y-127649131D01*
X141619131Y-124347131D01*
X141740264Y-124165844D01*
X141740264Y-124165843D01*
X141782799Y-123952000D01*
X141782800Y-123952000D01*
X141782800Y-117325462D01*
X141963462Y-117144800D01*
X142271805Y-117144800D01*
X142332927Y-117206028D01*
X142601797Y-117317673D01*
X142892925Y-117317927D01*
X143161990Y-117206752D01*
X143368028Y-117001073D01*
X143479673Y-116732203D01*
X143479927Y-116441075D01*
X143368752Y-116172010D01*
X143163073Y-115965972D01*
X142894203Y-115854327D01*
X142603075Y-115854073D01*
X142334010Y-115965248D01*
X142271949Y-116027200D01*
X141732000Y-116027200D01*
X141518156Y-116069736D01*
X141336868Y-116190869D01*
X141274800Y-116252937D01*
X141274800Y-114553984D01*
X141232264Y-114340141D01*
X141232264Y-114340140D01*
X141111131Y-114158853D01*
X140177851Y-113225573D01*
X140177927Y-113139059D01*
X140066752Y-112869994D01*
X139861073Y-112663956D01*
X139592203Y-112552311D01*
X139301075Y-112552057D01*
X139188473Y-112598583D01*
X139161927Y-112572037D01*
X139161927Y-109329075D01*
X139050752Y-109060010D01*
X138988800Y-108997949D01*
X138988800Y-106172000D01*
X138946265Y-105958157D01*
X138946264Y-105958156D01*
X138825131Y-105776869D01*
X138399851Y-105351589D01*
X138399927Y-105265075D01*
X138288752Y-104996010D01*
X138083073Y-104789972D01*
X137814203Y-104678327D01*
X137523075Y-104678073D01*
X137387800Y-104733967D01*
X137387800Y-97790000D01*
X137351125Y-97605623D01*
X137246684Y-97449316D01*
X136738684Y-96941316D01*
X136582377Y-96836875D01*
X136398000Y-96800200D01*
X127254000Y-96800200D01*
X127069623Y-96836875D01*
X126913316Y-96941316D01*
X126405316Y-97449316D01*
X126300875Y-97605623D01*
X126264200Y-97790000D01*
X126264200Y-106934000D01*
X126300875Y-107118377D01*
X126405316Y-107274684D01*
X126913316Y-107782684D01*
X127069623Y-107887125D01*
X127254000Y-107923800D01*
X128101967Y-107923800D01*
X128046327Y-108057797D01*
X128046073Y-108348925D01*
X128157248Y-108617990D01*
X128219200Y-108680050D01*
X128219200Y-108988537D01*
X128038537Y-109169200D01*
X127984194Y-109169200D01*
X127923073Y-109107972D01*
X127654203Y-108996327D01*
X127363075Y-108996073D01*
X127094010Y-109107248D01*
X126887972Y-109312927D01*
X126776327Y-109581797D01*
X126776073Y-109872925D01*
X126887248Y-110141990D01*
X127092927Y-110348028D01*
X127361797Y-110459673D01*
X127652925Y-110459927D01*
X127921990Y-110348752D01*
X127984050Y-110286800D01*
X128270000Y-110286800D01*
X128483843Y-110244264D01*
X128483844Y-110244264D01*
X128665131Y-110123131D01*
X129173131Y-109615132D01*
X129173131Y-109615131D01*
X129294264Y-109433844D01*
X129336799Y-109220000D01*
X129336800Y-109220000D01*
X129336800Y-108680194D01*
X129398028Y-108619073D01*
X129509673Y-108350203D01*
X129509927Y-108059075D01*
X129454032Y-107923800D01*
X136398000Y-107923800D01*
X136582377Y-107887125D01*
X136738684Y-107782684D01*
X137246684Y-107274684D01*
X137351125Y-107118377D01*
X137387800Y-106934000D01*
X137387800Y-106086032D01*
X137521797Y-106141673D01*
X137609487Y-106141749D01*
X137871200Y-106403462D01*
X137871200Y-108997805D01*
X137809972Y-109058927D01*
X137698327Y-109327797D01*
X137698073Y-109618925D01*
X137809248Y-109887990D01*
X138014927Y-110094028D01*
X138283797Y-110205673D01*
X138574925Y-110205927D01*
X138843990Y-110094752D01*
X139050028Y-109889073D01*
X139161673Y-109620203D01*
X139161927Y-109329075D01*
X139161927Y-112572037D01*
X137466605Y-110876715D01*
X126544605Y-110876715D01*
X123317000Y-107649110D01*
X123317000Y-98102320D01*
X123522529Y-97896791D01*
X124236148Y-98610410D01*
X124236073Y-98696925D01*
X124347248Y-98965990D01*
X124552927Y-99172028D01*
X124821797Y-99283673D01*
X125112925Y-99283927D01*
X125381990Y-99172752D01*
X125588028Y-98967073D01*
X125699673Y-98698203D01*
X125699927Y-98407075D01*
X125588752Y-98138010D01*
X125383073Y-97931972D01*
X125114203Y-97820327D01*
X125026512Y-97820250D01*
X124312791Y-97106529D01*
X127560605Y-93858715D01*
X136091395Y-93858715D01*
X136669880Y-94437200D01*
X135604194Y-94437200D01*
X135543073Y-94375972D01*
X135274203Y-94264327D01*
X134983075Y-94264073D01*
X134714010Y-94375248D01*
X134507972Y-94580927D01*
X134396327Y-94849797D01*
X134396073Y-95140925D01*
X134507248Y-95409990D01*
X134712927Y-95616028D01*
X134981797Y-95727673D01*
X135272925Y-95727927D01*
X135541990Y-95616752D01*
X135604050Y-95554800D01*
X137787480Y-95554800D01*
X140335000Y-98102320D01*
X140335000Y-110548320D01*
X144044200Y-114257520D01*
X144044200Y-124514432D01*
X144044200Y-124514432D01*
G37*
X144044200Y-124514432D02*
X137113632Y-131445000D01*
X136630907Y-131445000D01*
X136652000Y-131381500D01*
X136652000Y-130429000D01*
X136652000Y-130175000D01*
X136652000Y-129222500D01*
X136526061Y-128843361D01*
X136264618Y-128541277D01*
X135919127Y-128373747D01*
X135763000Y-128437551D01*
X135763000Y-130175000D01*
X136652000Y-130175000D01*
X136652000Y-130429000D01*
X135763000Y-130429000D01*
X135763000Y-130449000D01*
X135509000Y-130449000D01*
X135509000Y-130429000D01*
X135509000Y-130175000D01*
X135509000Y-128437551D01*
X135352873Y-128373747D01*
X135007382Y-128541277D01*
X134745939Y-128843361D01*
X134620000Y-129222500D01*
X134620000Y-130175000D01*
X135509000Y-130175000D01*
X135509000Y-130429000D01*
X134620000Y-130429000D01*
X134620000Y-131381500D01*
X134641092Y-131445000D01*
X134239000Y-131445000D01*
X134239000Y-128933262D01*
X135359462Y-127812800D01*
X137922000Y-127812800D01*
X138135843Y-127770264D01*
X138135844Y-127770264D01*
X138317131Y-127649131D01*
X141619131Y-124347131D01*
X141740264Y-124165844D01*
X141740264Y-124165843D01*
X141782799Y-123952000D01*
X141782800Y-123952000D01*
X141782800Y-117325462D01*
X141963462Y-117144800D01*
X142271805Y-117144800D01*
X142332927Y-117206028D01*
X142601797Y-117317673D01*
X142892925Y-117317927D01*
X143161990Y-117206752D01*
X143368028Y-117001073D01*
X143479673Y-116732203D01*
X143479927Y-116441075D01*
X143368752Y-116172010D01*
X143163073Y-115965972D01*
X142894203Y-115854327D01*
X142603075Y-115854073D01*
X142334010Y-115965248D01*
X142271949Y-116027200D01*
X141732000Y-116027200D01*
X141518156Y-116069736D01*
X141336868Y-116190869D01*
X141274800Y-116252937D01*
X141274800Y-114553984D01*
X141232264Y-114340141D01*
X141232264Y-114340140D01*
X141111131Y-114158853D01*
X140177851Y-113225573D01*
X140177927Y-113139059D01*
X140066752Y-112869994D01*
X139861073Y-112663956D01*
X139592203Y-112552311D01*
X139301075Y-112552057D01*
X139188473Y-112598583D01*
X139161927Y-112572037D01*
X139161927Y-109329075D01*
X139050752Y-109060010D01*
X138988800Y-108997949D01*
X138988800Y-106172000D01*
X138946265Y-105958157D01*
X138946264Y-105958156D01*
X138825131Y-105776869D01*
X138399851Y-105351589D01*
X138399927Y-105265075D01*
X138288752Y-104996010D01*
X138083073Y-104789972D01*
X137814203Y-104678327D01*
X137523075Y-104678073D01*
X137387800Y-104733967D01*
X137387800Y-97790000D01*
X137351125Y-97605623D01*
X137246684Y-97449316D01*
X136738684Y-96941316D01*
X136582377Y-96836875D01*
X136398000Y-96800200D01*
X127254000Y-96800200D01*
X127069623Y-96836875D01*
X126913316Y-96941316D01*
X126405316Y-97449316D01*
X126300875Y-97605623D01*
X126264200Y-97790000D01*
X126264200Y-106934000D01*
X126300875Y-107118377D01*
X126405316Y-107274684D01*
X126913316Y-107782684D01*
X127069623Y-107887125D01*
X127254000Y-107923800D01*
X128101967Y-107923800D01*
X128046327Y-108057797D01*
X128046073Y-108348925D01*
X128157248Y-108617990D01*
X128219200Y-108680050D01*
X128219200Y-108988537D01*
X128038537Y-109169200D01*
X127984194Y-109169200D01*
X127923073Y-109107972D01*
X127654203Y-108996327D01*
X127363075Y-108996073D01*
X127094010Y-109107248D01*
X126887972Y-109312927D01*
X126776327Y-109581797D01*
X126776073Y-109872925D01*
X126887248Y-110141990D01*
X127092927Y-110348028D01*
X127361797Y-110459673D01*
X127652925Y-110459927D01*
X127921990Y-110348752D01*
X127984050Y-110286800D01*
X128270000Y-110286800D01*
X128483843Y-110244264D01*
X128483844Y-110244264D01*
X128665131Y-110123131D01*
X129173131Y-109615132D01*
X129173131Y-109615131D01*
X129294264Y-109433844D01*
X129336799Y-109220000D01*
X129336800Y-109220000D01*
X129336800Y-108680194D01*
X129398028Y-108619073D01*
X129509673Y-108350203D01*
X129509927Y-108059075D01*
X129454032Y-107923800D01*
X136398000Y-107923800D01*
X136582377Y-107887125D01*
X136738684Y-107782684D01*
X137246684Y-107274684D01*
X137351125Y-107118377D01*
X137387800Y-106934000D01*
X137387800Y-106086032D01*
X137521797Y-106141673D01*
X137609487Y-106141749D01*
X137871200Y-106403462D01*
X137871200Y-108997805D01*
X137809972Y-109058927D01*
X137698327Y-109327797D01*
X137698073Y-109618925D01*
X137809248Y-109887990D01*
X138014927Y-110094028D01*
X138283797Y-110205673D01*
X138574925Y-110205927D01*
X138843990Y-110094752D01*
X139050028Y-109889073D01*
X139161673Y-109620203D01*
X139161927Y-109329075D01*
X139161927Y-112572037D01*
X137466605Y-110876715D01*
X126544605Y-110876715D01*
X123317000Y-107649110D01*
X123317000Y-98102320D01*
X123522529Y-97896791D01*
X124236148Y-98610410D01*
X124236073Y-98696925D01*
X124347248Y-98965990D01*
X124552927Y-99172028D01*
X124821797Y-99283673D01*
X125112925Y-99283927D01*
X125381990Y-99172752D01*
X125588028Y-98967073D01*
X125699673Y-98698203D01*
X125699927Y-98407075D01*
X125588752Y-98138010D01*
X125383073Y-97931972D01*
X125114203Y-97820327D01*
X125026512Y-97820250D01*
X124312791Y-97106529D01*
X127560605Y-93858715D01*
X136091395Y-93858715D01*
X136669880Y-94437200D01*
X135604194Y-94437200D01*
X135543073Y-94375972D01*
X135274203Y-94264327D01*
X134983075Y-94264073D01*
X134714010Y-94375248D01*
X134507972Y-94580927D01*
X134396327Y-94849797D01*
X134396073Y-95140925D01*
X134507248Y-95409990D01*
X134712927Y-95616028D01*
X134981797Y-95727673D01*
X135272925Y-95727927D01*
X135541990Y-95616752D01*
X135604050Y-95554800D01*
X137787480Y-95554800D01*
X140335000Y-98102320D01*
X140335000Y-110548320D01*
X144044200Y-114257520D01*
X144044200Y-124514432D01*
G36*
X144044200Y-108512432D02*
X142153316Y-110403316D01*
X142048875Y-110559623D01*
X142012200Y-110744000D01*
X142012200Y-111098595D01*
X141097000Y-110183395D01*
X141097000Y-97737395D01*
X138914405Y-95554800D01*
X139223805Y-95554800D01*
X139284927Y-95616028D01*
X139553797Y-95727673D01*
X139844925Y-95727927D01*
X140113990Y-95616752D01*
X140320028Y-95411073D01*
X140431673Y-95142203D01*
X140431927Y-94851075D01*
X140320752Y-94582010D01*
X140115073Y-94375972D01*
X139846203Y-94264327D01*
X139555075Y-94264073D01*
X139286010Y-94375248D01*
X139223949Y-94437200D01*
X137796805Y-94437200D01*
X136450605Y-93091000D01*
X127201395Y-93091000D01*
X123749328Y-96543066D01*
X123413851Y-96207589D01*
X123413927Y-96121075D01*
X123302752Y-95852010D01*
X123097073Y-95645972D01*
X122828203Y-95534327D01*
X122537075Y-95534073D01*
X122268010Y-95645248D01*
X122061972Y-95850927D01*
X121950327Y-96119797D01*
X121950073Y-96410925D01*
X122061248Y-96679990D01*
X122266927Y-96886028D01*
X122535797Y-96997673D01*
X122623487Y-96997749D01*
X122959066Y-97333328D01*
X122555000Y-97737395D01*
X122555000Y-108002605D01*
X126185395Y-111633000D01*
X137107395Y-111633000D01*
X138714237Y-113239842D01*
X138714073Y-113428909D01*
X138825248Y-113697974D01*
X139030927Y-113904012D01*
X139299797Y-114015657D01*
X139387487Y-114015733D01*
X140157200Y-114785446D01*
X140157200Y-120418542D01*
X138371593Y-122204148D01*
X138285079Y-122204073D01*
X138016014Y-122315248D01*
X137809976Y-122520927D01*
X137698331Y-122789797D01*
X137698077Y-123080925D01*
X137809252Y-123349990D01*
X138014931Y-123556028D01*
X138283801Y-123667673D01*
X138574929Y-123667927D01*
X138843994Y-123556752D01*
X139050032Y-123351073D01*
X139161677Y-123082203D01*
X139161753Y-122994512D01*
X140335000Y-121821266D01*
X140335000Y-124050738D01*
X137690538Y-126695200D01*
X137387800Y-126695200D01*
X137387800Y-124714000D01*
X137387800Y-115570000D01*
X137351125Y-115385623D01*
X137246684Y-115229316D01*
X136738684Y-114721316D01*
X136582377Y-114616875D01*
X136398000Y-114580200D01*
X135351849Y-114580200D01*
X135351999Y-114409075D01*
X135240824Y-114140010D01*
X135035145Y-113933972D01*
X134766275Y-113822327D01*
X134475147Y-113822073D01*
X134206082Y-113933248D01*
X134144021Y-113995200D01*
X127222194Y-113995200D01*
X127161073Y-113933972D01*
X126892203Y-113822327D01*
X126601075Y-113822073D01*
X126332010Y-113933248D01*
X126125972Y-114138927D01*
X126014327Y-114407797D01*
X126014073Y-114698925D01*
X126125248Y-114967990D01*
X126330927Y-115174028D01*
X126422556Y-115212075D01*
X126405316Y-115229316D01*
X126300875Y-115385623D01*
X126264200Y-115570000D01*
X126264200Y-124714000D01*
X126300875Y-124898377D01*
X126405316Y-125054684D01*
X126913316Y-125562684D01*
X127069623Y-125667125D01*
X127254000Y-125703800D01*
X136398000Y-125703800D01*
X136582377Y-125667125D01*
X136738684Y-125562684D01*
X137246684Y-125054684D01*
X137351125Y-124898377D01*
X137387800Y-124714000D01*
X137387800Y-126695200D01*
X135128000Y-126695200D01*
X134914156Y-126737736D01*
X134732869Y-126858869D01*
X133448738Y-128143000D01*
X129995395Y-128143000D01*
X129413000Y-128725395D01*
X129413000Y-131445000D01*
X129010907Y-131445000D01*
X129032000Y-131381500D01*
X129032000Y-130429000D01*
X129032000Y-130175000D01*
X129032000Y-129222500D01*
X128906061Y-128843361D01*
X128644618Y-128541277D01*
X128299127Y-128373747D01*
X128143000Y-128437551D01*
X128143000Y-130175000D01*
X129032000Y-130175000D01*
X129032000Y-130429000D01*
X128143000Y-130429000D01*
X128143000Y-130449000D01*
X127889000Y-130449000D01*
X127889000Y-130429000D01*
X127889000Y-130175000D01*
X127889000Y-128437551D01*
X127732873Y-128373747D01*
X127387382Y-128541277D01*
X127125939Y-128843361D01*
X127000000Y-129222500D01*
X127000000Y-130175000D01*
X127889000Y-130175000D01*
X127889000Y-130429000D01*
X127000000Y-130429000D01*
X127000000Y-131381500D01*
X127021092Y-131445000D01*
X126619000Y-131445000D01*
X126619000Y-127709395D01*
X124787920Y-125878315D01*
X124873990Y-125842752D01*
X125080028Y-125637073D01*
X125191673Y-125368203D01*
X125191927Y-125077075D01*
X125080752Y-124808010D01*
X124875073Y-124601972D01*
X124606203Y-124490327D01*
X124518512Y-124490250D01*
X124002800Y-123974538D01*
X124002800Y-118364000D01*
X124002800Y-118341462D01*
X124183462Y-118160800D01*
X124745805Y-118160800D01*
X124806927Y-118222028D01*
X125075797Y-118333673D01*
X125366925Y-118333927D01*
X125635990Y-118222752D01*
X125842028Y-118017073D01*
X125953673Y-117748203D01*
X125953927Y-117457075D01*
X125842752Y-117188010D01*
X125637073Y-116981972D01*
X125368203Y-116870327D01*
X125077075Y-116870073D01*
X124808010Y-116981248D01*
X124745949Y-117043200D01*
X123952000Y-117043200D01*
X123738156Y-117085736D01*
X123556868Y-117206869D01*
X123494800Y-117268937D01*
X123494800Y-115547448D01*
X124772396Y-114269851D01*
X124858911Y-114269927D01*
X125127976Y-114158752D01*
X125334014Y-113953073D01*
X125445659Y-113684203D01*
X125445913Y-113393075D01*
X125334738Y-113124010D01*
X125129059Y-112917972D01*
X124860189Y-112806327D01*
X124569061Y-112806073D01*
X124299996Y-112917248D01*
X124093958Y-113122927D01*
X123982313Y-113391797D01*
X123982236Y-113479487D01*
X123317000Y-114144724D01*
X123317000Y-111961395D01*
X122658405Y-111302800D01*
X122713791Y-111302800D01*
X122774913Y-111364028D01*
X123043783Y-111475673D01*
X123334911Y-111475927D01*
X123603976Y-111364752D01*
X123810014Y-111159073D01*
X123921659Y-110890203D01*
X123921913Y-110599075D01*
X123810738Y-110330010D01*
X123605059Y-110123972D01*
X123336189Y-110012327D01*
X123045061Y-110012073D01*
X122775996Y-110123248D01*
X122713935Y-110185200D01*
X122151462Y-110185200D01*
X120446800Y-108480538D01*
X120446800Y-105886194D01*
X120508028Y-105825073D01*
X120619673Y-105556203D01*
X120619927Y-105265075D01*
X120508752Y-104996010D01*
X120303073Y-104789972D01*
X120034203Y-104678327D01*
X119743075Y-104678073D01*
X119607800Y-104733967D01*
X119607800Y-97989568D01*
X127453568Y-90143800D01*
X136198432Y-90143800D01*
X144044200Y-97989568D01*
X144044200Y-108512432D01*
X144044200Y-108512432D01*
G37*
X144044200Y-108512432D02*
X142153316Y-110403316D01*
X142048875Y-110559623D01*
X142012200Y-110744000D01*
X142012200Y-111098595D01*
X141097000Y-110183395D01*
X141097000Y-97737395D01*
X138914405Y-95554800D01*
X139223805Y-95554800D01*
X139284927Y-95616028D01*
X139553797Y-95727673D01*
X139844925Y-95727927D01*
X140113990Y-95616752D01*
X140320028Y-95411073D01*
X140431673Y-95142203D01*
X140431927Y-94851075D01*
X140320752Y-94582010D01*
X140115073Y-94375972D01*
X139846203Y-94264327D01*
X139555075Y-94264073D01*
X139286010Y-94375248D01*
X139223949Y-94437200D01*
X137796805Y-94437200D01*
X136450605Y-93091000D01*
X127201395Y-93091000D01*
X123749328Y-96543066D01*
X123413851Y-96207589D01*
X123413927Y-96121075D01*
X123302752Y-95852010D01*
X123097073Y-95645972D01*
X122828203Y-95534327D01*
X122537075Y-95534073D01*
X122268010Y-95645248D01*
X122061972Y-95850927D01*
X121950327Y-96119797D01*
X121950073Y-96410925D01*
X122061248Y-96679990D01*
X122266927Y-96886028D01*
X122535797Y-96997673D01*
X122623487Y-96997749D01*
X122959066Y-97333328D01*
X122555000Y-97737395D01*
X122555000Y-108002605D01*
X126185395Y-111633000D01*
X137107395Y-111633000D01*
X138714237Y-113239842D01*
X138714073Y-113428909D01*
X138825248Y-113697974D01*
X139030927Y-113904012D01*
X139299797Y-114015657D01*
X139387487Y-114015733D01*
X140157200Y-114785446D01*
X140157200Y-120418542D01*
X138371593Y-122204148D01*
X138285079Y-122204073D01*
X138016014Y-122315248D01*
X137809976Y-122520927D01*
X137698331Y-122789797D01*
X137698077Y-123080925D01*
X137809252Y-123349990D01*
X138014931Y-123556028D01*
X138283801Y-123667673D01*
X138574929Y-123667927D01*
X138843994Y-123556752D01*
X139050032Y-123351073D01*
X139161677Y-123082203D01*
X139161753Y-122994512D01*
X140335000Y-121821266D01*
X140335000Y-124050738D01*
X137690538Y-126695200D01*
X137387800Y-126695200D01*
X137387800Y-124714000D01*
X137387800Y-115570000D01*
X137351125Y-115385623D01*
X137246684Y-115229316D01*
X136738684Y-114721316D01*
X136582377Y-114616875D01*
X136398000Y-114580200D01*
X135351849Y-114580200D01*
X135351999Y-114409075D01*
X135240824Y-114140010D01*
X135035145Y-113933972D01*
X134766275Y-113822327D01*
X134475147Y-113822073D01*
X134206082Y-113933248D01*
X134144021Y-113995200D01*
X127222194Y-113995200D01*
X127161073Y-113933972D01*
X126892203Y-113822327D01*
X126601075Y-113822073D01*
X126332010Y-113933248D01*
X126125972Y-114138927D01*
X126014327Y-114407797D01*
X126014073Y-114698925D01*
X126125248Y-114967990D01*
X126330927Y-115174028D01*
X126422556Y-115212075D01*
X126405316Y-115229316D01*
X126300875Y-115385623D01*
X126264200Y-115570000D01*
X126264200Y-124714000D01*
X126300875Y-124898377D01*
X126405316Y-125054684D01*
X126913316Y-125562684D01*
X127069623Y-125667125D01*
X127254000Y-125703800D01*
X136398000Y-125703800D01*
X136582377Y-125667125D01*
X136738684Y-125562684D01*
X137246684Y-125054684D01*
X137351125Y-124898377D01*
X137387800Y-124714000D01*
X137387800Y-126695200D01*
X135128000Y-126695200D01*
X134914156Y-126737736D01*
X134732869Y-126858869D01*
X133448738Y-128143000D01*
X129995395Y-128143000D01*
X129413000Y-128725395D01*
X129413000Y-131445000D01*
X129010907Y-131445000D01*
X129032000Y-131381500D01*
X129032000Y-130429000D01*
X129032000Y-130175000D01*
X129032000Y-129222500D01*
X128906061Y-128843361D01*
X128644618Y-128541277D01*
X128299127Y-128373747D01*
X128143000Y-128437551D01*
X128143000Y-130175000D01*
X129032000Y-130175000D01*
X129032000Y-130429000D01*
X128143000Y-130429000D01*
X128143000Y-130449000D01*
X127889000Y-130449000D01*
X127889000Y-130429000D01*
X127889000Y-130175000D01*
X127889000Y-128437551D01*
X127732873Y-128373747D01*
X127387382Y-128541277D01*
X127125939Y-128843361D01*
X127000000Y-129222500D01*
X127000000Y-130175000D01*
X127889000Y-130175000D01*
X127889000Y-130429000D01*
X127000000Y-130429000D01*
X127000000Y-131381500D01*
X127021092Y-131445000D01*
X126619000Y-131445000D01*
X126619000Y-127709395D01*
X124787920Y-125878315D01*
X124873990Y-125842752D01*
X125080028Y-125637073D01*
X125191673Y-125368203D01*
X125191927Y-125077075D01*
X125080752Y-124808010D01*
X124875073Y-124601972D01*
X124606203Y-124490327D01*
X124518512Y-124490250D01*
X124002800Y-123974538D01*
X124002800Y-118364000D01*
X124002800Y-118341462D01*
X124183462Y-118160800D01*
X124745805Y-118160800D01*
X124806927Y-118222028D01*
X125075797Y-118333673D01*
X125366925Y-118333927D01*
X125635990Y-118222752D01*
X125842028Y-118017073D01*
X125953673Y-117748203D01*
X125953927Y-117457075D01*
X125842752Y-117188010D01*
X125637073Y-116981972D01*
X125368203Y-116870327D01*
X125077075Y-116870073D01*
X124808010Y-116981248D01*
X124745949Y-117043200D01*
X123952000Y-117043200D01*
X123738156Y-117085736D01*
X123556868Y-117206869D01*
X123494800Y-117268937D01*
X123494800Y-115547448D01*
X124772396Y-114269851D01*
X124858911Y-114269927D01*
X125127976Y-114158752D01*
X125334014Y-113953073D01*
X125445659Y-113684203D01*
X125445913Y-113393075D01*
X125334738Y-113124010D01*
X125129059Y-112917972D01*
X124860189Y-112806327D01*
X124569061Y-112806073D01*
X124299996Y-112917248D01*
X124093958Y-113122927D01*
X123982313Y-113391797D01*
X123982236Y-113479487D01*
X123317000Y-114144724D01*
X123317000Y-111961395D01*
X122658405Y-111302800D01*
X122713791Y-111302800D01*
X122774913Y-111364028D01*
X123043783Y-111475673D01*
X123334911Y-111475927D01*
X123603976Y-111364752D01*
X123810014Y-111159073D01*
X123921659Y-110890203D01*
X123921913Y-110599075D01*
X123810738Y-110330010D01*
X123605059Y-110123972D01*
X123336189Y-110012327D01*
X123045061Y-110012073D01*
X122775996Y-110123248D01*
X122713935Y-110185200D01*
X122151462Y-110185200D01*
X120446800Y-108480538D01*
X120446800Y-105886194D01*
X120508028Y-105825073D01*
X120619673Y-105556203D01*
X120619927Y-105265075D01*
X120508752Y-104996010D01*
X120303073Y-104789972D01*
X120034203Y-104678327D01*
X119743075Y-104678073D01*
X119607800Y-104733967D01*
X119607800Y-97989568D01*
X127453568Y-90143800D01*
X136198432Y-90143800D01*
X144044200Y-97989568D01*
X144044200Y-108512432D01*
G36*
X159385000Y-95369536D02*
X159131000Y-95369536D01*
X158985726Y-95397722D01*
X158858044Y-95481596D01*
X158772574Y-95608216D01*
X158742536Y-95758000D01*
X158742536Y-96549542D01*
X158687362Y-96560517D01*
X158523204Y-96670204D01*
X158292800Y-96900608D01*
X158292410Y-96900998D01*
X158184852Y-96900998D01*
X158292800Y-96793050D01*
X158292800Y-95843890D01*
X158292800Y-95672109D01*
X158292800Y-92541891D01*
X158292800Y-92370110D01*
X158292800Y-91420950D01*
X158184850Y-91313000D01*
X157353000Y-91313000D01*
X157353000Y-92779850D01*
X157460950Y-92887800D01*
X157946890Y-92887800D01*
X158105595Y-92822063D01*
X158227062Y-92700595D01*
X158292800Y-92541891D01*
X158292800Y-95672109D01*
X158227062Y-95513405D01*
X158105595Y-95391937D01*
X157946890Y-95326200D01*
X157460950Y-95326200D01*
X157353000Y-95434150D01*
X157353000Y-96901000D01*
X157373000Y-96901000D01*
X157373000Y-97155000D01*
X157353000Y-97155000D01*
X157353000Y-97175000D01*
X157099000Y-97175000D01*
X157099000Y-97155000D01*
X157079000Y-97155000D01*
X157079000Y-96901000D01*
X157099000Y-96901000D01*
X157099000Y-95434150D01*
X156991050Y-95326200D01*
X156505110Y-95326200D01*
X156346405Y-95391937D01*
X156337000Y-95401342D01*
X156337000Y-92812657D01*
X156346405Y-92822063D01*
X156505110Y-92887800D01*
X156991050Y-92887800D01*
X157099000Y-92779850D01*
X157099000Y-91313000D01*
X157079000Y-91313000D01*
X157079000Y-91059000D01*
X157099000Y-91059000D01*
X157099000Y-91039000D01*
X157353000Y-91039000D01*
X157353000Y-91059000D01*
X158184850Y-91059000D01*
X158292800Y-90951050D01*
X158292800Y-90043000D01*
X158742536Y-90043000D01*
X158742536Y-92456000D01*
X158770722Y-92601274D01*
X158854596Y-92728956D01*
X158981216Y-92814426D01*
X159131000Y-92844464D01*
X159260000Y-92844464D01*
X159260000Y-92964000D01*
X159298517Y-93157638D01*
X159385000Y-93287068D01*
X159385000Y-95369536D01*
X159385000Y-95369536D01*
G37*
X159385000Y-95369536D02*
X159131000Y-95369536D01*
X158985726Y-95397722D01*
X158858044Y-95481596D01*
X158772574Y-95608216D01*
X158742536Y-95758000D01*
X158742536Y-96549542D01*
X158687362Y-96560517D01*
X158523204Y-96670204D01*
X158292800Y-96900608D01*
X158292410Y-96900998D01*
X158184852Y-96900998D01*
X158292800Y-96793050D01*
X158292800Y-95843890D01*
X158292800Y-95672109D01*
X158292800Y-92541891D01*
X158292800Y-92370110D01*
X158292800Y-91420950D01*
X158184850Y-91313000D01*
X157353000Y-91313000D01*
X157353000Y-92779850D01*
X157460950Y-92887800D01*
X157946890Y-92887800D01*
X158105595Y-92822063D01*
X158227062Y-92700595D01*
X158292800Y-92541891D01*
X158292800Y-95672109D01*
X158227062Y-95513405D01*
X158105595Y-95391937D01*
X157946890Y-95326200D01*
X157460950Y-95326200D01*
X157353000Y-95434150D01*
X157353000Y-96901000D01*
X157373000Y-96901000D01*
X157373000Y-97155000D01*
X157353000Y-97155000D01*
X157353000Y-97175000D01*
X157099000Y-97175000D01*
X157099000Y-97155000D01*
X157079000Y-97155000D01*
X157079000Y-96901000D01*
X157099000Y-96901000D01*
X157099000Y-95434150D01*
X156991050Y-95326200D01*
X156505110Y-95326200D01*
X156346405Y-95391937D01*
X156337000Y-95401342D01*
X156337000Y-92812657D01*
X156346405Y-92822063D01*
X156505110Y-92887800D01*
X156991050Y-92887800D01*
X157099000Y-92779850D01*
X157099000Y-91313000D01*
X157079000Y-91313000D01*
X157079000Y-91059000D01*
X157099000Y-91059000D01*
X157099000Y-91039000D01*
X157353000Y-91039000D01*
X157353000Y-91059000D01*
X158184850Y-91059000D01*
X158292800Y-90951050D01*
X158292800Y-90043000D01*
X158742536Y-90043000D01*
X158742536Y-92456000D01*
X158770722Y-92601274D01*
X158854596Y-92728956D01*
X158981216Y-92814426D01*
X159131000Y-92844464D01*
X159260000Y-92844464D01*
X159260000Y-92964000D01*
X159298517Y-93157638D01*
X159385000Y-93287068D01*
X159385000Y-95369536D01*
G36*
X163195000Y-95401342D02*
X163185595Y-95391937D01*
X163026890Y-95326200D01*
X162540950Y-95326200D01*
X162433000Y-95434150D01*
X162433000Y-96901000D01*
X162453000Y-96901000D01*
X162453000Y-97155000D01*
X162433000Y-97155000D01*
X162433000Y-97175000D01*
X162179000Y-97175000D01*
X162179000Y-97155000D01*
X162179000Y-96901000D01*
X162179000Y-95434150D01*
X162179000Y-92779850D01*
X162179000Y-91313000D01*
X161347150Y-91313000D01*
X161239200Y-91420950D01*
X161239200Y-92370110D01*
X161239200Y-92541891D01*
X161304938Y-92700595D01*
X161426405Y-92822063D01*
X161585110Y-92887800D01*
X162071050Y-92887800D01*
X162179000Y-92779850D01*
X162179000Y-95434150D01*
X162071050Y-95326200D01*
X161585110Y-95326200D01*
X161426405Y-95391937D01*
X161304938Y-95513405D01*
X161239200Y-95672109D01*
X161239200Y-95843890D01*
X161239200Y-96793050D01*
X161347150Y-96901000D01*
X162179000Y-96901000D01*
X162179000Y-97155000D01*
X161347150Y-97155000D01*
X161239200Y-97262950D01*
X161239200Y-98171000D01*
X160789464Y-98171000D01*
X160789464Y-95758000D01*
X160761278Y-95612726D01*
X160677404Y-95485044D01*
X160550784Y-95399574D01*
X160401000Y-95369536D01*
X160147000Y-95369536D01*
X160147000Y-93952738D01*
X160274000Y-93978000D01*
X160578877Y-93978000D01*
X160649741Y-94048987D01*
X160899946Y-94152882D01*
X161170865Y-94153118D01*
X161421252Y-94049661D01*
X161612987Y-93858259D01*
X161716882Y-93608054D01*
X161717118Y-93337135D01*
X161613661Y-93086748D01*
X161422259Y-92895013D01*
X161172054Y-92791118D01*
X160901135Y-92790882D01*
X160650748Y-92894339D01*
X160578962Y-92966000D01*
X160483592Y-92966000D01*
X160362056Y-92844464D01*
X160401000Y-92844464D01*
X160546274Y-92816278D01*
X160673956Y-92732404D01*
X160759426Y-92605784D01*
X160789464Y-92456000D01*
X160789464Y-90043000D01*
X161239200Y-90043000D01*
X161239200Y-90951050D01*
X161347150Y-91059000D01*
X162179000Y-91059000D01*
X162179000Y-91039000D01*
X162433000Y-91039000D01*
X162433000Y-91059000D01*
X162453000Y-91059000D01*
X162453000Y-91313000D01*
X162433000Y-91313000D01*
X162433000Y-92779850D01*
X162540950Y-92887800D01*
X163026890Y-92887800D01*
X163185595Y-92822063D01*
X163195000Y-92812657D01*
X163195000Y-95401342D01*
X163195000Y-95401342D01*
G37*
X163195000Y-95401342D02*
X163185595Y-95391937D01*
X163026890Y-95326200D01*
X162540950Y-95326200D01*
X162433000Y-95434150D01*
X162433000Y-96901000D01*
X162453000Y-96901000D01*
X162453000Y-97155000D01*
X162433000Y-97155000D01*
X162433000Y-97175000D01*
X162179000Y-97175000D01*
X162179000Y-97155000D01*
X162179000Y-96901000D01*
X162179000Y-95434150D01*
X162179000Y-92779850D01*
X162179000Y-91313000D01*
X161347150Y-91313000D01*
X161239200Y-91420950D01*
X161239200Y-92370110D01*
X161239200Y-92541891D01*
X161304938Y-92700595D01*
X161426405Y-92822063D01*
X161585110Y-92887800D01*
X162071050Y-92887800D01*
X162179000Y-92779850D01*
X162179000Y-95434150D01*
X162071050Y-95326200D01*
X161585110Y-95326200D01*
X161426405Y-95391937D01*
X161304938Y-95513405D01*
X161239200Y-95672109D01*
X161239200Y-95843890D01*
X161239200Y-96793050D01*
X161347150Y-96901000D01*
X162179000Y-96901000D01*
X162179000Y-97155000D01*
X161347150Y-97155000D01*
X161239200Y-97262950D01*
X161239200Y-98171000D01*
X160789464Y-98171000D01*
X160789464Y-95758000D01*
X160761278Y-95612726D01*
X160677404Y-95485044D01*
X160550784Y-95399574D01*
X160401000Y-95369536D01*
X160147000Y-95369536D01*
X160147000Y-93952738D01*
X160274000Y-93978000D01*
X160578877Y-93978000D01*
X160649741Y-94048987D01*
X160899946Y-94152882D01*
X161170865Y-94153118D01*
X161421252Y-94049661D01*
X161612987Y-93858259D01*
X161716882Y-93608054D01*
X161717118Y-93337135D01*
X161613661Y-93086748D01*
X161422259Y-92895013D01*
X161172054Y-92791118D01*
X160901135Y-92790882D01*
X160650748Y-92894339D01*
X160578962Y-92966000D01*
X160483592Y-92966000D01*
X160362056Y-92844464D01*
X160401000Y-92844464D01*
X160546274Y-92816278D01*
X160673956Y-92732404D01*
X160759426Y-92605784D01*
X160789464Y-92456000D01*
X160789464Y-90043000D01*
X161239200Y-90043000D01*
X161239200Y-90951050D01*
X161347150Y-91059000D01*
X162179000Y-91059000D01*
X162179000Y-91039000D01*
X162433000Y-91039000D01*
X162433000Y-91059000D01*
X162453000Y-91059000D01*
X162453000Y-91313000D01*
X162433000Y-91313000D01*
X162433000Y-92779850D01*
X162540950Y-92887800D01*
X163026890Y-92887800D01*
X163185595Y-92822063D01*
X163195000Y-92812657D01*
X163195000Y-95401342D01*
G36*
X159385000Y-106799536D02*
X159131000Y-106799536D01*
X158985726Y-106827722D01*
X158858044Y-106911596D01*
X158772574Y-107038216D01*
X158742536Y-107188000D01*
X158742536Y-107979542D01*
X158687362Y-107990517D01*
X158523204Y-108100204D01*
X158292800Y-108330608D01*
X158292410Y-108330998D01*
X158184852Y-108330998D01*
X158292800Y-108223050D01*
X158292800Y-107273890D01*
X158292800Y-107102109D01*
X158292800Y-103971891D01*
X158292800Y-103800110D01*
X158292800Y-102850950D01*
X158184850Y-102743000D01*
X157353000Y-102743000D01*
X157353000Y-104209850D01*
X157460950Y-104317800D01*
X157946890Y-104317800D01*
X158105595Y-104252063D01*
X158227062Y-104130595D01*
X158292800Y-103971891D01*
X158292800Y-107102109D01*
X158227062Y-106943405D01*
X158105595Y-106821937D01*
X157946890Y-106756200D01*
X157460950Y-106756200D01*
X157353000Y-106864150D01*
X157353000Y-108331000D01*
X157373000Y-108331000D01*
X157373000Y-108585000D01*
X157353000Y-108585000D01*
X157353000Y-108605000D01*
X157099000Y-108605000D01*
X157099000Y-108585000D01*
X157079000Y-108585000D01*
X157079000Y-108331000D01*
X157099000Y-108331000D01*
X157099000Y-106864150D01*
X156991050Y-106756200D01*
X156505110Y-106756200D01*
X156346405Y-106821937D01*
X156337000Y-106831342D01*
X156337000Y-104242657D01*
X156346405Y-104252063D01*
X156505110Y-104317800D01*
X156991050Y-104317800D01*
X157099000Y-104209850D01*
X157099000Y-102743000D01*
X157079000Y-102743000D01*
X157079000Y-102489000D01*
X157099000Y-102489000D01*
X157099000Y-102469000D01*
X157353000Y-102469000D01*
X157353000Y-102489000D01*
X158184850Y-102489000D01*
X158292800Y-102381050D01*
X158292800Y-101473000D01*
X158742536Y-101473000D01*
X158742536Y-103886000D01*
X158770722Y-104031274D01*
X158854596Y-104158956D01*
X158981216Y-104244426D01*
X159131000Y-104274464D01*
X159260000Y-104274464D01*
X159260000Y-104394000D01*
X159298517Y-104587638D01*
X159385000Y-104717068D01*
X159385000Y-106799536D01*
X159385000Y-106799536D01*
G37*
X159385000Y-106799536D02*
X159131000Y-106799536D01*
X158985726Y-106827722D01*
X158858044Y-106911596D01*
X158772574Y-107038216D01*
X158742536Y-107188000D01*
X158742536Y-107979542D01*
X158687362Y-107990517D01*
X158523204Y-108100204D01*
X158292800Y-108330608D01*
X158292410Y-108330998D01*
X158184852Y-108330998D01*
X158292800Y-108223050D01*
X158292800Y-107273890D01*
X158292800Y-107102109D01*
X158292800Y-103971891D01*
X158292800Y-103800110D01*
X158292800Y-102850950D01*
X158184850Y-102743000D01*
X157353000Y-102743000D01*
X157353000Y-104209850D01*
X157460950Y-104317800D01*
X157946890Y-104317800D01*
X158105595Y-104252063D01*
X158227062Y-104130595D01*
X158292800Y-103971891D01*
X158292800Y-107102109D01*
X158227062Y-106943405D01*
X158105595Y-106821937D01*
X157946890Y-106756200D01*
X157460950Y-106756200D01*
X157353000Y-106864150D01*
X157353000Y-108331000D01*
X157373000Y-108331000D01*
X157373000Y-108585000D01*
X157353000Y-108585000D01*
X157353000Y-108605000D01*
X157099000Y-108605000D01*
X157099000Y-108585000D01*
X157079000Y-108585000D01*
X157079000Y-108331000D01*
X157099000Y-108331000D01*
X157099000Y-106864150D01*
X156991050Y-106756200D01*
X156505110Y-106756200D01*
X156346405Y-106821937D01*
X156337000Y-106831342D01*
X156337000Y-104242657D01*
X156346405Y-104252063D01*
X156505110Y-104317800D01*
X156991050Y-104317800D01*
X157099000Y-104209850D01*
X157099000Y-102743000D01*
X157079000Y-102743000D01*
X157079000Y-102489000D01*
X157099000Y-102489000D01*
X157099000Y-102469000D01*
X157353000Y-102469000D01*
X157353000Y-102489000D01*
X158184850Y-102489000D01*
X158292800Y-102381050D01*
X158292800Y-101473000D01*
X158742536Y-101473000D01*
X158742536Y-103886000D01*
X158770722Y-104031274D01*
X158854596Y-104158956D01*
X158981216Y-104244426D01*
X159131000Y-104274464D01*
X159260000Y-104274464D01*
X159260000Y-104394000D01*
X159298517Y-104587638D01*
X159385000Y-104717068D01*
X159385000Y-106799536D01*
G36*
X163195000Y-106831342D02*
X163185595Y-106821937D01*
X163026890Y-106756200D01*
X162540950Y-106756200D01*
X162433000Y-106864150D01*
X162433000Y-108331000D01*
X162453000Y-108331000D01*
X162453000Y-108585000D01*
X162433000Y-108585000D01*
X162433000Y-108605000D01*
X162179000Y-108605000D01*
X162179000Y-108585000D01*
X162179000Y-108331000D01*
X162179000Y-106864150D01*
X162179000Y-104209850D01*
X162179000Y-102743000D01*
X161347150Y-102743000D01*
X161239200Y-102850950D01*
X161239200Y-103800110D01*
X161239200Y-103971891D01*
X161304938Y-104130595D01*
X161426405Y-104252063D01*
X161585110Y-104317800D01*
X162071050Y-104317800D01*
X162179000Y-104209850D01*
X162179000Y-106864150D01*
X162071050Y-106756200D01*
X161585110Y-106756200D01*
X161426405Y-106821937D01*
X161304938Y-106943405D01*
X161239200Y-107102109D01*
X161239200Y-107273890D01*
X161239200Y-108223050D01*
X161347150Y-108331000D01*
X162179000Y-108331000D01*
X162179000Y-108585000D01*
X161347150Y-108585000D01*
X161239200Y-108692950D01*
X161239200Y-109601000D01*
X160789464Y-109601000D01*
X160789464Y-107188000D01*
X160761278Y-107042726D01*
X160677404Y-106915044D01*
X160550784Y-106829574D01*
X160401000Y-106799536D01*
X160147000Y-106799536D01*
X160147000Y-105382738D01*
X160274000Y-105408000D01*
X160578877Y-105408000D01*
X160649741Y-105478987D01*
X160899946Y-105582882D01*
X161170865Y-105583118D01*
X161421252Y-105479661D01*
X161612987Y-105288259D01*
X161716882Y-105038054D01*
X161717118Y-104767135D01*
X161613661Y-104516748D01*
X161422259Y-104325013D01*
X161172054Y-104221118D01*
X160901135Y-104220882D01*
X160650748Y-104324339D01*
X160578962Y-104396000D01*
X160483592Y-104396000D01*
X160362056Y-104274464D01*
X160401000Y-104274464D01*
X160546274Y-104246278D01*
X160673956Y-104162404D01*
X160759426Y-104035784D01*
X160789464Y-103886000D01*
X160789464Y-101473000D01*
X161239200Y-101473000D01*
X161239200Y-102381050D01*
X161347150Y-102489000D01*
X162179000Y-102489000D01*
X162179000Y-102469000D01*
X162433000Y-102469000D01*
X162433000Y-102489000D01*
X162453000Y-102489000D01*
X162453000Y-102743000D01*
X162433000Y-102743000D01*
X162433000Y-104209850D01*
X162540950Y-104317800D01*
X163026890Y-104317800D01*
X163185595Y-104252063D01*
X163195000Y-104242657D01*
X163195000Y-106831342D01*
X163195000Y-106831342D01*
G37*
X163195000Y-106831342D02*
X163185595Y-106821937D01*
X163026890Y-106756200D01*
X162540950Y-106756200D01*
X162433000Y-106864150D01*
X162433000Y-108331000D01*
X162453000Y-108331000D01*
X162453000Y-108585000D01*
X162433000Y-108585000D01*
X162433000Y-108605000D01*
X162179000Y-108605000D01*
X162179000Y-108585000D01*
X162179000Y-108331000D01*
X162179000Y-106864150D01*
X162179000Y-104209850D01*
X162179000Y-102743000D01*
X161347150Y-102743000D01*
X161239200Y-102850950D01*
X161239200Y-103800110D01*
X161239200Y-103971891D01*
X161304938Y-104130595D01*
X161426405Y-104252063D01*
X161585110Y-104317800D01*
X162071050Y-104317800D01*
X162179000Y-104209850D01*
X162179000Y-106864150D01*
X162071050Y-106756200D01*
X161585110Y-106756200D01*
X161426405Y-106821937D01*
X161304938Y-106943405D01*
X161239200Y-107102109D01*
X161239200Y-107273890D01*
X161239200Y-108223050D01*
X161347150Y-108331000D01*
X162179000Y-108331000D01*
X162179000Y-108585000D01*
X161347150Y-108585000D01*
X161239200Y-108692950D01*
X161239200Y-109601000D01*
X160789464Y-109601000D01*
X160789464Y-107188000D01*
X160761278Y-107042726D01*
X160677404Y-106915044D01*
X160550784Y-106829574D01*
X160401000Y-106799536D01*
X160147000Y-106799536D01*
X160147000Y-105382738D01*
X160274000Y-105408000D01*
X160578877Y-105408000D01*
X160649741Y-105478987D01*
X160899946Y-105582882D01*
X161170865Y-105583118D01*
X161421252Y-105479661D01*
X161612987Y-105288259D01*
X161716882Y-105038054D01*
X161717118Y-104767135D01*
X161613661Y-104516748D01*
X161422259Y-104325013D01*
X161172054Y-104221118D01*
X160901135Y-104220882D01*
X160650748Y-104324339D01*
X160578962Y-104396000D01*
X160483592Y-104396000D01*
X160362056Y-104274464D01*
X160401000Y-104274464D01*
X160546274Y-104246278D01*
X160673956Y-104162404D01*
X160759426Y-104035784D01*
X160789464Y-103886000D01*
X160789464Y-101473000D01*
X161239200Y-101473000D01*
X161239200Y-102381050D01*
X161347150Y-102489000D01*
X162179000Y-102489000D01*
X162179000Y-102469000D01*
X162433000Y-102469000D01*
X162433000Y-102489000D01*
X162453000Y-102489000D01*
X162453000Y-102743000D01*
X162433000Y-102743000D01*
X162433000Y-104209850D01*
X162540950Y-104317800D01*
X163026890Y-104317800D01*
X163185595Y-104252063D01*
X163195000Y-104242657D01*
X163195000Y-106831342D01*
G36*
X159385000Y-118229536D02*
X159131000Y-118229536D01*
X158985726Y-118257722D01*
X158858044Y-118341596D01*
X158772574Y-118468216D01*
X158742536Y-118618000D01*
X158742536Y-119409542D01*
X158687362Y-119420517D01*
X158523204Y-119530204D01*
X158292800Y-119760608D01*
X158292410Y-119760998D01*
X158184852Y-119760998D01*
X158292800Y-119653050D01*
X158292800Y-118703890D01*
X158292800Y-118532109D01*
X158292800Y-115401891D01*
X158292800Y-115230110D01*
X158292800Y-114280950D01*
X158184850Y-114173000D01*
X157353000Y-114173000D01*
X157353000Y-115639850D01*
X157460950Y-115747800D01*
X157946890Y-115747800D01*
X158105595Y-115682063D01*
X158227062Y-115560595D01*
X158292800Y-115401891D01*
X158292800Y-118532109D01*
X158227062Y-118373405D01*
X158105595Y-118251937D01*
X157946890Y-118186200D01*
X157460950Y-118186200D01*
X157353000Y-118294150D01*
X157353000Y-119761000D01*
X157373000Y-119761000D01*
X157373000Y-120015000D01*
X157353000Y-120015000D01*
X157353000Y-120035000D01*
X157099000Y-120035000D01*
X157099000Y-120015000D01*
X157079000Y-120015000D01*
X157079000Y-119761000D01*
X157099000Y-119761000D01*
X157099000Y-118294150D01*
X156991050Y-118186200D01*
X156505110Y-118186200D01*
X156346405Y-118251937D01*
X156337000Y-118261342D01*
X156337000Y-115672657D01*
X156346405Y-115682063D01*
X156505110Y-115747800D01*
X156991050Y-115747800D01*
X157099000Y-115639850D01*
X157099000Y-114173000D01*
X157079000Y-114173000D01*
X157079000Y-113919000D01*
X157099000Y-113919000D01*
X157099000Y-113899000D01*
X157353000Y-113899000D01*
X157353000Y-113919000D01*
X158184850Y-113919000D01*
X158292800Y-113811050D01*
X158292800Y-112903000D01*
X158742536Y-112903000D01*
X158742536Y-115316000D01*
X158770722Y-115461274D01*
X158854596Y-115588956D01*
X158981216Y-115674426D01*
X159131000Y-115704464D01*
X159260000Y-115704464D01*
X159260000Y-115824000D01*
X159298517Y-116017638D01*
X159385000Y-116147068D01*
X159385000Y-118229536D01*
X159385000Y-118229536D01*
G37*
X159385000Y-118229536D02*
X159131000Y-118229536D01*
X158985726Y-118257722D01*
X158858044Y-118341596D01*
X158772574Y-118468216D01*
X158742536Y-118618000D01*
X158742536Y-119409542D01*
X158687362Y-119420517D01*
X158523204Y-119530204D01*
X158292800Y-119760608D01*
X158292410Y-119760998D01*
X158184852Y-119760998D01*
X158292800Y-119653050D01*
X158292800Y-118703890D01*
X158292800Y-118532109D01*
X158292800Y-115401891D01*
X158292800Y-115230110D01*
X158292800Y-114280950D01*
X158184850Y-114173000D01*
X157353000Y-114173000D01*
X157353000Y-115639850D01*
X157460950Y-115747800D01*
X157946890Y-115747800D01*
X158105595Y-115682063D01*
X158227062Y-115560595D01*
X158292800Y-115401891D01*
X158292800Y-118532109D01*
X158227062Y-118373405D01*
X158105595Y-118251937D01*
X157946890Y-118186200D01*
X157460950Y-118186200D01*
X157353000Y-118294150D01*
X157353000Y-119761000D01*
X157373000Y-119761000D01*
X157373000Y-120015000D01*
X157353000Y-120015000D01*
X157353000Y-120035000D01*
X157099000Y-120035000D01*
X157099000Y-120015000D01*
X157079000Y-120015000D01*
X157079000Y-119761000D01*
X157099000Y-119761000D01*
X157099000Y-118294150D01*
X156991050Y-118186200D01*
X156505110Y-118186200D01*
X156346405Y-118251937D01*
X156337000Y-118261342D01*
X156337000Y-115672657D01*
X156346405Y-115682063D01*
X156505110Y-115747800D01*
X156991050Y-115747800D01*
X157099000Y-115639850D01*
X157099000Y-114173000D01*
X157079000Y-114173000D01*
X157079000Y-113919000D01*
X157099000Y-113919000D01*
X157099000Y-113899000D01*
X157353000Y-113899000D01*
X157353000Y-113919000D01*
X158184850Y-113919000D01*
X158292800Y-113811050D01*
X158292800Y-112903000D01*
X158742536Y-112903000D01*
X158742536Y-115316000D01*
X158770722Y-115461274D01*
X158854596Y-115588956D01*
X158981216Y-115674426D01*
X159131000Y-115704464D01*
X159260000Y-115704464D01*
X159260000Y-115824000D01*
X159298517Y-116017638D01*
X159385000Y-116147068D01*
X159385000Y-118229536D01*
G36*
X163195000Y-118261342D02*
X163185595Y-118251937D01*
X163026890Y-118186200D01*
X162540950Y-118186200D01*
X162433000Y-118294150D01*
X162433000Y-119761000D01*
X162453000Y-119761000D01*
X162453000Y-120015000D01*
X162433000Y-120015000D01*
X162433000Y-120035000D01*
X162179000Y-120035000D01*
X162179000Y-120015000D01*
X162179000Y-119761000D01*
X162179000Y-118294150D01*
X162179000Y-115639850D01*
X162179000Y-114173000D01*
X161347150Y-114173000D01*
X161239200Y-114280950D01*
X161239200Y-115230110D01*
X161239200Y-115401891D01*
X161304938Y-115560595D01*
X161426405Y-115682063D01*
X161585110Y-115747800D01*
X162071050Y-115747800D01*
X162179000Y-115639850D01*
X162179000Y-118294150D01*
X162071050Y-118186200D01*
X161585110Y-118186200D01*
X161426405Y-118251937D01*
X161304938Y-118373405D01*
X161239200Y-118532109D01*
X161239200Y-118703890D01*
X161239200Y-119653050D01*
X161347150Y-119761000D01*
X162179000Y-119761000D01*
X162179000Y-120015000D01*
X161347150Y-120015000D01*
X161239200Y-120122950D01*
X161239200Y-121031000D01*
X160789464Y-121031000D01*
X160789464Y-118618000D01*
X160761278Y-118472726D01*
X160677404Y-118345044D01*
X160550784Y-118259574D01*
X160401000Y-118229536D01*
X160147000Y-118229536D01*
X160147000Y-116812738D01*
X160274000Y-116838000D01*
X160578877Y-116838000D01*
X160649741Y-116908987D01*
X160899946Y-117012882D01*
X161170865Y-117013118D01*
X161421252Y-116909661D01*
X161612987Y-116718259D01*
X161716882Y-116468054D01*
X161717118Y-116197135D01*
X161613661Y-115946748D01*
X161422259Y-115755013D01*
X161172054Y-115651118D01*
X160901135Y-115650882D01*
X160650748Y-115754339D01*
X160578962Y-115826000D01*
X160483592Y-115826000D01*
X160362056Y-115704464D01*
X160401000Y-115704464D01*
X160546274Y-115676278D01*
X160673956Y-115592404D01*
X160759426Y-115465784D01*
X160789464Y-115316000D01*
X160789464Y-112903000D01*
X161239200Y-112903000D01*
X161239200Y-113811050D01*
X161347150Y-113919000D01*
X162179000Y-113919000D01*
X162179000Y-113899000D01*
X162433000Y-113899000D01*
X162433000Y-113919000D01*
X162453000Y-113919000D01*
X162453000Y-114173000D01*
X162433000Y-114173000D01*
X162433000Y-115639850D01*
X162540950Y-115747800D01*
X163026890Y-115747800D01*
X163185595Y-115682063D01*
X163195000Y-115672657D01*
X163195000Y-118261342D01*
X163195000Y-118261342D01*
G37*
X163195000Y-118261342D02*
X163185595Y-118251937D01*
X163026890Y-118186200D01*
X162540950Y-118186200D01*
X162433000Y-118294150D01*
X162433000Y-119761000D01*
X162453000Y-119761000D01*
X162453000Y-120015000D01*
X162433000Y-120015000D01*
X162433000Y-120035000D01*
X162179000Y-120035000D01*
X162179000Y-120015000D01*
X162179000Y-119761000D01*
X162179000Y-118294150D01*
X162179000Y-115639850D01*
X162179000Y-114173000D01*
X161347150Y-114173000D01*
X161239200Y-114280950D01*
X161239200Y-115230110D01*
X161239200Y-115401891D01*
X161304938Y-115560595D01*
X161426405Y-115682063D01*
X161585110Y-115747800D01*
X162071050Y-115747800D01*
X162179000Y-115639850D01*
X162179000Y-118294150D01*
X162071050Y-118186200D01*
X161585110Y-118186200D01*
X161426405Y-118251937D01*
X161304938Y-118373405D01*
X161239200Y-118532109D01*
X161239200Y-118703890D01*
X161239200Y-119653050D01*
X161347150Y-119761000D01*
X162179000Y-119761000D01*
X162179000Y-120015000D01*
X161347150Y-120015000D01*
X161239200Y-120122950D01*
X161239200Y-121031000D01*
X160789464Y-121031000D01*
X160789464Y-118618000D01*
X160761278Y-118472726D01*
X160677404Y-118345044D01*
X160550784Y-118259574D01*
X160401000Y-118229536D01*
X160147000Y-118229536D01*
X160147000Y-116812738D01*
X160274000Y-116838000D01*
X160578877Y-116838000D01*
X160649741Y-116908987D01*
X160899946Y-117012882D01*
X161170865Y-117013118D01*
X161421252Y-116909661D01*
X161612987Y-116718259D01*
X161716882Y-116468054D01*
X161717118Y-116197135D01*
X161613661Y-115946748D01*
X161422259Y-115755013D01*
X161172054Y-115651118D01*
X160901135Y-115650882D01*
X160650748Y-115754339D01*
X160578962Y-115826000D01*
X160483592Y-115826000D01*
X160362056Y-115704464D01*
X160401000Y-115704464D01*
X160546274Y-115676278D01*
X160673956Y-115592404D01*
X160759426Y-115465784D01*
X160789464Y-115316000D01*
X160789464Y-112903000D01*
X161239200Y-112903000D01*
X161239200Y-113811050D01*
X161347150Y-113919000D01*
X162179000Y-113919000D01*
X162179000Y-113899000D01*
X162433000Y-113899000D01*
X162433000Y-113919000D01*
X162453000Y-113919000D01*
X162453000Y-114173000D01*
X162433000Y-114173000D01*
X162433000Y-115639850D01*
X162540950Y-115747800D01*
X163026890Y-115747800D01*
X163185595Y-115682063D01*
X163195000Y-115672657D01*
X163195000Y-118261342D01*
G36*
X159385000Y-129659536D02*
X159131000Y-129659536D01*
X158985726Y-129687722D01*
X158858044Y-129771596D01*
X158772574Y-129898216D01*
X158742536Y-130048000D01*
X158742536Y-130839542D01*
X158687362Y-130850517D01*
X158523204Y-130960204D01*
X158292800Y-131190608D01*
X158292410Y-131190998D01*
X158184852Y-131190998D01*
X158292800Y-131083050D01*
X158292800Y-130133890D01*
X158292800Y-129962109D01*
X158292800Y-126831891D01*
X158292800Y-126660110D01*
X158292800Y-125710950D01*
X158184850Y-125603000D01*
X157353000Y-125603000D01*
X157353000Y-127069850D01*
X157460950Y-127177800D01*
X157946890Y-127177800D01*
X158105595Y-127112063D01*
X158227062Y-126990595D01*
X158292800Y-126831891D01*
X158292800Y-129962109D01*
X158227062Y-129803405D01*
X158105595Y-129681937D01*
X157946890Y-129616200D01*
X157460950Y-129616200D01*
X157353000Y-129724150D01*
X157353000Y-131191000D01*
X157373000Y-131191000D01*
X157373000Y-131445000D01*
X157353000Y-131445000D01*
X157353000Y-131465000D01*
X157099000Y-131465000D01*
X157099000Y-131445000D01*
X157079000Y-131445000D01*
X157079000Y-131191000D01*
X157099000Y-131191000D01*
X157099000Y-129724150D01*
X156991050Y-129616200D01*
X156505110Y-129616200D01*
X156346405Y-129681937D01*
X156337000Y-129691342D01*
X156337000Y-127102657D01*
X156346405Y-127112063D01*
X156505110Y-127177800D01*
X156991050Y-127177800D01*
X157099000Y-127069850D01*
X157099000Y-125603000D01*
X157079000Y-125603000D01*
X157079000Y-125349000D01*
X157099000Y-125349000D01*
X157099000Y-125329000D01*
X157353000Y-125329000D01*
X157353000Y-125349000D01*
X158184850Y-125349000D01*
X158292800Y-125241050D01*
X158292800Y-124333000D01*
X158742536Y-124333000D01*
X158742536Y-126746000D01*
X158770722Y-126891274D01*
X158854596Y-127018956D01*
X158981216Y-127104426D01*
X159131000Y-127134464D01*
X159260000Y-127134464D01*
X159260000Y-127254000D01*
X159298517Y-127447638D01*
X159385000Y-127577068D01*
X159385000Y-129659536D01*
X159385000Y-129659536D01*
G37*
X159385000Y-129659536D02*
X159131000Y-129659536D01*
X158985726Y-129687722D01*
X158858044Y-129771596D01*
X158772574Y-129898216D01*
X158742536Y-130048000D01*
X158742536Y-130839542D01*
X158687362Y-130850517D01*
X158523204Y-130960204D01*
X158292800Y-131190608D01*
X158292410Y-131190998D01*
X158184852Y-131190998D01*
X158292800Y-131083050D01*
X158292800Y-130133890D01*
X158292800Y-129962109D01*
X158292800Y-126831891D01*
X158292800Y-126660110D01*
X158292800Y-125710950D01*
X158184850Y-125603000D01*
X157353000Y-125603000D01*
X157353000Y-127069850D01*
X157460950Y-127177800D01*
X157946890Y-127177800D01*
X158105595Y-127112063D01*
X158227062Y-126990595D01*
X158292800Y-126831891D01*
X158292800Y-129962109D01*
X158227062Y-129803405D01*
X158105595Y-129681937D01*
X157946890Y-129616200D01*
X157460950Y-129616200D01*
X157353000Y-129724150D01*
X157353000Y-131191000D01*
X157373000Y-131191000D01*
X157373000Y-131445000D01*
X157353000Y-131445000D01*
X157353000Y-131465000D01*
X157099000Y-131465000D01*
X157099000Y-131445000D01*
X157079000Y-131445000D01*
X157079000Y-131191000D01*
X157099000Y-131191000D01*
X157099000Y-129724150D01*
X156991050Y-129616200D01*
X156505110Y-129616200D01*
X156346405Y-129681937D01*
X156337000Y-129691342D01*
X156337000Y-127102657D01*
X156346405Y-127112063D01*
X156505110Y-127177800D01*
X156991050Y-127177800D01*
X157099000Y-127069850D01*
X157099000Y-125603000D01*
X157079000Y-125603000D01*
X157079000Y-125349000D01*
X157099000Y-125349000D01*
X157099000Y-125329000D01*
X157353000Y-125329000D01*
X157353000Y-125349000D01*
X158184850Y-125349000D01*
X158292800Y-125241050D01*
X158292800Y-124333000D01*
X158742536Y-124333000D01*
X158742536Y-126746000D01*
X158770722Y-126891274D01*
X158854596Y-127018956D01*
X158981216Y-127104426D01*
X159131000Y-127134464D01*
X159260000Y-127134464D01*
X159260000Y-127254000D01*
X159298517Y-127447638D01*
X159385000Y-127577068D01*
X159385000Y-129659536D01*
G36*
X163195000Y-129691342D02*
X163185595Y-129681937D01*
X163026890Y-129616200D01*
X162540950Y-129616200D01*
X162433000Y-129724150D01*
X162433000Y-131191000D01*
X162453000Y-131191000D01*
X162453000Y-131445000D01*
X162433000Y-131445000D01*
X162433000Y-131465000D01*
X162179000Y-131465000D01*
X162179000Y-131445000D01*
X162179000Y-131191000D01*
X162179000Y-129724150D01*
X162179000Y-127069850D01*
X162179000Y-125603000D01*
X161347150Y-125603000D01*
X161239200Y-125710950D01*
X161239200Y-126660110D01*
X161239200Y-126831891D01*
X161304938Y-126990595D01*
X161426405Y-127112063D01*
X161585110Y-127177800D01*
X162071050Y-127177800D01*
X162179000Y-127069850D01*
X162179000Y-129724150D01*
X162071050Y-129616200D01*
X161585110Y-129616200D01*
X161426405Y-129681937D01*
X161304938Y-129803405D01*
X161239200Y-129962109D01*
X161239200Y-130133890D01*
X161239200Y-131083050D01*
X161347150Y-131191000D01*
X162179000Y-131191000D01*
X162179000Y-131445000D01*
X161347150Y-131445000D01*
X161239200Y-131552950D01*
X161239200Y-132461000D01*
X160789464Y-132461000D01*
X160789464Y-130048000D01*
X160761278Y-129902726D01*
X160677404Y-129775044D01*
X160550784Y-129689574D01*
X160401000Y-129659536D01*
X160147000Y-129659536D01*
X160147000Y-128242738D01*
X160274000Y-128268000D01*
X160578877Y-128268000D01*
X160649741Y-128338987D01*
X160899946Y-128442882D01*
X161170865Y-128443118D01*
X161421252Y-128339661D01*
X161612987Y-128148259D01*
X161716882Y-127898054D01*
X161717118Y-127627135D01*
X161613661Y-127376748D01*
X161422259Y-127185013D01*
X161172054Y-127081118D01*
X160901135Y-127080882D01*
X160650748Y-127184339D01*
X160578962Y-127256000D01*
X160483592Y-127256000D01*
X160362056Y-127134464D01*
X160401000Y-127134464D01*
X160546274Y-127106278D01*
X160673956Y-127022404D01*
X160759426Y-126895784D01*
X160789464Y-126746000D01*
X160789464Y-124333000D01*
X161239200Y-124333000D01*
X161239200Y-125241050D01*
X161347150Y-125349000D01*
X162179000Y-125349000D01*
X162179000Y-125329000D01*
X162433000Y-125329000D01*
X162433000Y-125349000D01*
X162453000Y-125349000D01*
X162453000Y-125603000D01*
X162433000Y-125603000D01*
X162433000Y-127069850D01*
X162540950Y-127177800D01*
X163026890Y-127177800D01*
X163185595Y-127112063D01*
X163195000Y-127102657D01*
X163195000Y-129691342D01*
X163195000Y-129691342D01*
G37*
X163195000Y-129691342D02*
X163185595Y-129681937D01*
X163026890Y-129616200D01*
X162540950Y-129616200D01*
X162433000Y-129724150D01*
X162433000Y-131191000D01*
X162453000Y-131191000D01*
X162453000Y-131445000D01*
X162433000Y-131445000D01*
X162433000Y-131465000D01*
X162179000Y-131465000D01*
X162179000Y-131445000D01*
X162179000Y-131191000D01*
X162179000Y-129724150D01*
X162179000Y-127069850D01*
X162179000Y-125603000D01*
X161347150Y-125603000D01*
X161239200Y-125710950D01*
X161239200Y-126660110D01*
X161239200Y-126831891D01*
X161304938Y-126990595D01*
X161426405Y-127112063D01*
X161585110Y-127177800D01*
X162071050Y-127177800D01*
X162179000Y-127069850D01*
X162179000Y-129724150D01*
X162071050Y-129616200D01*
X161585110Y-129616200D01*
X161426405Y-129681937D01*
X161304938Y-129803405D01*
X161239200Y-129962109D01*
X161239200Y-130133890D01*
X161239200Y-131083050D01*
X161347150Y-131191000D01*
X162179000Y-131191000D01*
X162179000Y-131445000D01*
X161347150Y-131445000D01*
X161239200Y-131552950D01*
X161239200Y-132461000D01*
X160789464Y-132461000D01*
X160789464Y-130048000D01*
X160761278Y-129902726D01*
X160677404Y-129775044D01*
X160550784Y-129689574D01*
X160401000Y-129659536D01*
X160147000Y-129659536D01*
X160147000Y-128242738D01*
X160274000Y-128268000D01*
X160578877Y-128268000D01*
X160649741Y-128338987D01*
X160899946Y-128442882D01*
X161170865Y-128443118D01*
X161421252Y-128339661D01*
X161612987Y-128148259D01*
X161716882Y-127898054D01*
X161717118Y-127627135D01*
X161613661Y-127376748D01*
X161422259Y-127185013D01*
X161172054Y-127081118D01*
X160901135Y-127080882D01*
X160650748Y-127184339D01*
X160578962Y-127256000D01*
X160483592Y-127256000D01*
X160362056Y-127134464D01*
X160401000Y-127134464D01*
X160546274Y-127106278D01*
X160673956Y-127022404D01*
X160759426Y-126895784D01*
X160789464Y-126746000D01*
X160789464Y-124333000D01*
X161239200Y-124333000D01*
X161239200Y-125241050D01*
X161347150Y-125349000D01*
X162179000Y-125349000D01*
X162179000Y-125329000D01*
X162433000Y-125329000D01*
X162433000Y-125349000D01*
X162453000Y-125349000D01*
X162453000Y-125603000D01*
X162433000Y-125603000D01*
X162433000Y-127069850D01*
X162540950Y-127177800D01*
X163026890Y-127177800D01*
X163185595Y-127112063D01*
X163195000Y-127102657D01*
X163195000Y-129691342D01*
D18*
X157226000Y-118110000D03*
X157988000Y-118110000D03*
X157226000Y-117348000D03*
X157988000Y-117348000D03*
X158750000Y-118110000D03*
X158750000Y-117348000D03*
X158750000Y-128778000D03*
X158750000Y-129540000D03*
X157988000Y-128778000D03*
X157226000Y-128778000D03*
X157988000Y-129540000D03*
X157226000Y-129540000D03*
X157226000Y-106680000D03*
X157988000Y-106680000D03*
X157226000Y-105918000D03*
X157988000Y-105918000D03*
X158750000Y-106680000D03*
X158750000Y-105918000D03*
X158750000Y-94488000D03*
X158750000Y-95250000D03*
X157988000Y-94488000D03*
X157226000Y-94488000D03*
X157988000Y-95250000D03*
X157226000Y-95250000D03*
X136144000Y-108966000D03*
X136144000Y-108204000D03*
X132334000Y-108966000D03*
X131572000Y-108966000D03*
X131572000Y-108204000D03*
X132334000Y-108204000D03*
X134620000Y-108966000D03*
X135382000Y-108966000D03*
X135382000Y-108204000D03*
X134620000Y-108204000D03*
X125222000Y-106680000D03*
X143002000Y-124460000D03*
X120650000Y-115824000D03*
X138430000Y-98044000D03*
X127508000Y-95758000D03*
X119888000Y-115824000D03*
X121412000Y-119634000D03*
X121412000Y-120396000D03*
X143764000Y-124460000D03*
X142240000Y-120650000D03*
X142240000Y-119888000D03*
X139192000Y-102616000D03*
X139192000Y-101854000D03*
X137668000Y-98044000D03*
X131318000Y-94996000D03*
X132080000Y-94996000D03*
X127508000Y-96520000D03*
X125984000Y-106680000D03*
X124460000Y-102870000D03*
X124460000Y-102108000D03*
X143002000Y-122936000D03*
X143002000Y-123698000D03*
X143764000Y-123698000D03*
X143764000Y-122936000D03*
X143002000Y-120650000D03*
X143002000Y-119888000D03*
X143764000Y-119888000D03*
X143764000Y-120650000D03*
X129032000Y-95758000D03*
X128270000Y-95758000D03*
X128270000Y-96520000D03*
X129032000Y-96520000D03*
X131318000Y-95758000D03*
X132080000Y-95758000D03*
X132080000Y-96520000D03*
X131318000Y-96520000D03*
X125222000Y-102870000D03*
X125222000Y-102108000D03*
X125984000Y-102108000D03*
X125984000Y-102870000D03*
X125222000Y-105156000D03*
X125222000Y-105918000D03*
X125984000Y-105918000D03*
X125984000Y-105156000D03*
X138430000Y-99568000D03*
X138430000Y-98806000D03*
X137668000Y-98806000D03*
X137668000Y-99568000D03*
X138430000Y-101854000D03*
X138430000Y-102616000D03*
X137668000Y-102616000D03*
X137668000Y-101854000D03*
X120650000Y-119634000D03*
X120650000Y-120396000D03*
X119888000Y-120396000D03*
X119888000Y-119634000D03*
X120650000Y-117348000D03*
X120650000Y-116586000D03*
X119888000Y-116586000D03*
X119888000Y-117348000D03*
X131572000Y-109728000D03*
X132334000Y-109728000D03*
X125730000Y-130302000D03*
X125730000Y-129286000D03*
X125222000Y-128778000D03*
X124714000Y-128270000D03*
X124206000Y-127762000D03*
X123698000Y-127254000D03*
X125222000Y-129794000D03*
X124714000Y-129286000D03*
X124206000Y-128778000D03*
X123698000Y-128270000D03*
X137160000Y-131064000D03*
X137668000Y-130556000D03*
X138176000Y-130048000D03*
X138684000Y-129540000D03*
X139192000Y-129032000D03*
X139192000Y-128016000D03*
X138684000Y-128524000D03*
X138176000Y-129032000D03*
X137668000Y-129540000D03*
X137160000Y-130048000D03*
X162306000Y-118110000D03*
X162306000Y-117348000D03*
X161544000Y-117348000D03*
X160782000Y-117348000D03*
X160782000Y-118110000D03*
X161544000Y-118110000D03*
X161544000Y-129540000D03*
X160782000Y-129540000D03*
X160782000Y-128778000D03*
X161544000Y-128778000D03*
X162306000Y-128778000D03*
X162306000Y-129540000D03*
X162306000Y-106680000D03*
X162306000Y-105918000D03*
X161544000Y-105918000D03*
X160782000Y-105918000D03*
X160782000Y-106680000D03*
X161544000Y-106680000D03*
X161544000Y-95250000D03*
X160782000Y-95250000D03*
X160782000Y-94488000D03*
X161544000Y-94488000D03*
X162306000Y-94488000D03*
X162306000Y-95250000D03*
X124460000Y-123698000D03*
X124460000Y-122936000D03*
X124460000Y-120650000D03*
X124460000Y-119888000D03*
X139192000Y-120396000D03*
X139192000Y-119634000D03*
X139192000Y-117348000D03*
X139192000Y-116586000D03*
X142240000Y-105918000D03*
X142240000Y-105156000D03*
X142240000Y-102870000D03*
X142240000Y-102108000D03*
X135382000Y-91948000D03*
X134620000Y-91948000D03*
X132334000Y-91948000D03*
X131572000Y-91948000D03*
X121412000Y-98806000D03*
X121412000Y-99568000D03*
X121412000Y-102616000D03*
X121412000Y-101854000D03*
X125984000Y-119888000D03*
X125222000Y-119888000D03*
X125222000Y-120650000D03*
X125984000Y-120650000D03*
X125222000Y-122936000D03*
X125222000Y-123698000D03*
X125984000Y-123698000D03*
X125984000Y-122936000D03*
X120650000Y-101854000D03*
X120650000Y-102616000D03*
X119888000Y-102616000D03*
X119888000Y-101854000D03*
X120650000Y-99568000D03*
X120650000Y-98806000D03*
X119888000Y-98806000D03*
X119888000Y-99568000D03*
X138430000Y-119634000D03*
X138430000Y-120396000D03*
X137668000Y-120396000D03*
X137668000Y-119634000D03*
X138430000Y-117348000D03*
X138430000Y-116586000D03*
X137668000Y-116586000D03*
X137668000Y-117348000D03*
X143002000Y-102870000D03*
X143002000Y-102108000D03*
X143764000Y-102108000D03*
X143764000Y-102870000D03*
X143002000Y-105156000D03*
X143002000Y-105918000D03*
X143764000Y-105918000D03*
X143764000Y-105156000D03*
X132334000Y-91186000D03*
X131572000Y-91186000D03*
X131572000Y-90424000D03*
X132334000Y-90424000D03*
X134620000Y-91186000D03*
X135382000Y-91186000D03*
X135382000Y-90424000D03*
X134620000Y-90424000D03*
X132080000Y-113030000D03*
X131318000Y-113030000D03*
X131318000Y-112268000D03*
X132080000Y-112268000D03*
X128524000Y-112268000D03*
X129286000Y-112268000D03*
X129286000Y-113030000D03*
X128524000Y-113029992D03*
X128524000Y-113792000D03*
X129286000Y-113792000D03*
X131318000Y-113792000D03*
X132080000Y-113792000D03*
X128016000Y-127508000D03*
X128016000Y-126746000D03*
X127254000Y-126746000D03*
X127254000Y-127508000D03*
X127254000Y-125984000D03*
X128016000Y-125984000D03*
X131318000Y-127508000D03*
X132080000Y-127508000D03*
X132080000Y-126746000D03*
X132080000Y-125984000D03*
X131318000Y-125984000D03*
X131318000Y-126746000D03*
X124460000Y-125222000D03*
X125222000Y-117602000D03*
X121158000Y-123190000D03*
X126746000Y-114554000D03*
X124713986Y-113538000D03*
X134620072Y-114554000D03*
X119888000Y-105410000D03*
X128778000Y-108204000D03*
X127508000Y-109728000D03*
X123189986Y-110744000D03*
X122682000Y-96266000D03*
X124968000Y-98552000D03*
X139700000Y-94996000D03*
X135128000Y-94996000D03*
X139446000Y-113283984D03*
X137668000Y-105410000D03*
X138430004Y-122936000D03*
X138430000Y-109474000D03*
X129794000Y-132080000D03*
X142748000Y-116586000D03*
X161036000Y-116332000D03*
X161036000Y-127762000D03*
X161036000Y-104902000D03*
X161036000Y-93472000D03*
X158496000Y-120904000D03*
X158496000Y-132334000D03*
X158496000Y-109474000D03*
X158496000Y-98044000D03*
X144780000Y-101346000D03*
X144780000Y-102362000D03*
X144780000Y-103378000D03*
X144780000Y-119126000D03*
X144780000Y-120142000D03*
X144780000Y-121158000D03*
X155702000Y-128778000D03*
X155702000Y-127762000D03*
X155702000Y-126746000D03*
X155702000Y-117348000D03*
X155702000Y-116332000D03*
X155702000Y-115316000D03*
X155702000Y-105918000D03*
X155702000Y-104902000D03*
X155702000Y-103886000D03*
X155702000Y-94488000D03*
X155702000Y-93472000D03*
X155702000Y-92456000D03*
M02*
