G04 #@! TF.FileFunction,Soldermask,Top*
%FSLAX46Y46*%
G04 Gerber Fmt 4.6, Leading zero omitted, Abs format (unit mm)*
G04 Created by KiCad (PCBNEW (2015-08-16 BZR 6095)-product) date Tue Sep  1 07:22:12 2015*
%MOMM*%
G01*
G04 APERTURE LIST*
%ADD10C,0.350000*%
%ADD11C,0.100000*%
G04 APERTURE END LIST*
D10*
D11*
X154686000Y-129032000D02*
G75*
G03X153416000Y-130302000I0J-1270000D01*
G01*
X155956000Y-130302000D02*
G75*
G03X154686000Y-129032000I-1270000J0D01*
G01*
X153416000Y-125222000D02*
G75*
G03X154686000Y-126492000I1270000J0D01*
G01*
X154686000Y-126492000D02*
G75*
G03X155956000Y-125222000I0J1270000D01*
G01*
X154686000Y-117602000D02*
G75*
G03X153416000Y-118872000I0J-1270000D01*
G01*
X155956000Y-118872000D02*
G75*
G03X154686000Y-117602000I-1270000J0D01*
G01*
X153416000Y-113792000D02*
G75*
G03X154686000Y-115062000I1270000J0D01*
G01*
X154686000Y-115062000D02*
G75*
G03X155956000Y-113792000I0J1270000D01*
G01*
X154686000Y-106172000D02*
G75*
G03X153416000Y-107442000I0J-1270000D01*
G01*
X155956000Y-107442000D02*
G75*
G03X154686000Y-106172000I-1270000J0D01*
G01*
X153416000Y-102362000D02*
G75*
G03X154686000Y-103632000I1270000J0D01*
G01*
X154686000Y-103632000D02*
G75*
G03X155956000Y-102362000I0J1270000D01*
G01*
X154686000Y-94742000D02*
G75*
G03X153416000Y-96012000I0J-1270000D01*
G01*
X155956000Y-96012000D02*
G75*
G03X154686000Y-94742000I-1270000J0D01*
G01*
X153416000Y-90932000D02*
G75*
G03X154686000Y-92202000I1270000J0D01*
G01*
X154686000Y-92202000D02*
G75*
G03X155956000Y-90932000I0J1270000D01*
G01*
X153416000Y-89662000D02*
X147066000Y-89662000D01*
X153416000Y-90932000D02*
X153416000Y-89662000D01*
X153416000Y-102362000D02*
X153416000Y-96012000D01*
X153416000Y-113792000D02*
X153416000Y-107442000D01*
X153416000Y-132842000D02*
X147066000Y-132842000D01*
X153416000Y-130302000D02*
X153416000Y-132842000D01*
X153416000Y-125222000D02*
X153416000Y-118872000D01*
X155956000Y-130302000D02*
X155956000Y-132842000D01*
X155956000Y-123952000D02*
X155956000Y-125222000D01*
X155956000Y-118872000D02*
X155956000Y-121412000D01*
X155956000Y-112522000D02*
X155956000Y-113792000D01*
X155956000Y-107442000D02*
X155956000Y-109982000D01*
X155956000Y-101092000D02*
X155956000Y-102362000D01*
X155956000Y-96012000D02*
X155956000Y-98552000D01*
X155956000Y-89662000D02*
X155956000Y-90932000D01*
X147066000Y-122682000D02*
X147066000Y-132842000D01*
X144526000Y-122682000D02*
X144526000Y-124714000D01*
X144526000Y-97790000D02*
X144526000Y-99822000D01*
X144526000Y-99822000D02*
G75*
G03X145796000Y-101092000I1270000J0D01*
G01*
X145796000Y-101092000D02*
G75*
G03X147066000Y-99822000I0J1270000D01*
G01*
X145796000Y-103632000D02*
G75*
G03X144526000Y-104902000I0J-1270000D01*
G01*
X147066000Y-104902000D02*
G75*
G03X145796000Y-103632000I-1270000J0D01*
G01*
X145796000Y-121412000D02*
G75*
G03X144526000Y-122682000I0J-1270000D01*
G01*
X147066000Y-122682000D02*
G75*
G03X145796000Y-121412000I-1270000J0D01*
G01*
X144526000Y-117602000D02*
G75*
G03X145796000Y-118872000I1270000J0D01*
G01*
X145796000Y-118872000D02*
G75*
G03X147066000Y-117602000I0J1270000D01*
G01*
X147066000Y-89662000D02*
X147066000Y-99822000D01*
X144526000Y-104902000D02*
X144526000Y-108712000D01*
X144526000Y-113792000D02*
X144526000Y-117602000D01*
X147066000Y-117602000D02*
X147066000Y-104902000D01*
X155956000Y-112522000D02*
X163576000Y-112522000D01*
X163576000Y-121412000D02*
X155956000Y-121412000D01*
X163576000Y-121412000D02*
X163576000Y-112522000D01*
X163576000Y-132842000D02*
X163576000Y-123952000D01*
X163576000Y-132842000D02*
X155956000Y-132842000D01*
X155956000Y-123952000D02*
X163576000Y-123952000D01*
X155956000Y-101092000D02*
X163576000Y-101092000D01*
X163576000Y-109982000D02*
X155956000Y-109982000D01*
X163576000Y-109982000D02*
X163576000Y-101092000D01*
X127254000Y-89662000D02*
X136398000Y-89662000D01*
X136398000Y-132842000D02*
X127254000Y-132842000D01*
X119126000Y-97790000D02*
X119126000Y-108712000D01*
X126746000Y-106934000D02*
X126746000Y-97790000D01*
X136398000Y-107442000D02*
X127254000Y-107442000D01*
X136906000Y-97790000D02*
X136906000Y-106934000D01*
X127254000Y-97282000D02*
X136398000Y-97282000D01*
X126746000Y-124714000D02*
X126746000Y-115570000D01*
X127254000Y-125222000D02*
X126746000Y-124714000D01*
X136398000Y-125222000D02*
X127254000Y-125222000D01*
X136906000Y-124714000D02*
X136398000Y-125222000D01*
X136906000Y-115570000D02*
X136906000Y-124714000D01*
X127254000Y-115062000D02*
X136398000Y-115062000D01*
X126746000Y-115570000D02*
X127254000Y-115062000D01*
X119126000Y-124714000D02*
X119126000Y-113792000D01*
X136398000Y-115062000D02*
X136906000Y-115570000D01*
X136906000Y-106934000D02*
X136398000Y-107442000D01*
X136398000Y-97282000D02*
X136906000Y-97790000D01*
X126746000Y-97790000D02*
X127254000Y-97282000D01*
X127254000Y-107442000D02*
X126746000Y-106934000D01*
X144526000Y-124714000D02*
X136398000Y-132842000D01*
X142494000Y-111760000D02*
X144526000Y-113792000D01*
X142494000Y-110744000D02*
X142494000Y-111760000D01*
X144526000Y-108712000D02*
X142494000Y-110744000D01*
X136398000Y-89662000D02*
X144526000Y-97790000D01*
X119126000Y-97790000D02*
X127254000Y-89662000D01*
X121158000Y-110744000D02*
X119126000Y-108712000D01*
X121158000Y-111760000D02*
X121158000Y-110744000D01*
X119126000Y-113792000D02*
X121158000Y-111760000D01*
X127254000Y-132842000D02*
X119126000Y-124714000D01*
X163576000Y-98552000D02*
X163576000Y-89662000D01*
X163576000Y-98552000D02*
X155956000Y-98552000D01*
X155956000Y-89662000D02*
X163576000Y-89662000D01*
D10*
G36*
X163067600Y-131233600D02*
X161364400Y-131233600D01*
X161364400Y-130030400D01*
X163067600Y-130030400D01*
X163067600Y-131233600D01*
X163067600Y-131233600D01*
G37*
G36*
X158167600Y-131233600D02*
X156464400Y-131233600D01*
X156464400Y-130030400D01*
X158167600Y-130030400D01*
X158167600Y-131233600D01*
X158167600Y-131233600D01*
G37*
G36*
X130227600Y-131233600D02*
X128524400Y-131233600D01*
X128524400Y-130030400D01*
X130227600Y-130030400D01*
X130227600Y-131233600D01*
X130227600Y-131233600D01*
G37*
G36*
X135127600Y-131233600D02*
X133424400Y-131233600D01*
X133424400Y-130030400D01*
X135127600Y-130030400D01*
X135127600Y-131233600D01*
X135127600Y-131233600D01*
G37*
G36*
X136491600Y-130533600D02*
X135288400Y-130533600D01*
X135288400Y-129230400D01*
X136491600Y-129230400D01*
X136491600Y-130533600D01*
X136491600Y-130533600D01*
G37*
G36*
X136491600Y-128833600D02*
X135288400Y-128833600D01*
X135288400Y-127530400D01*
X136491600Y-127530400D01*
X136491600Y-128833600D01*
X136491600Y-128833600D01*
G37*
G36*
X163067600Y-128033600D02*
X161364400Y-128033600D01*
X161364400Y-126830400D01*
X163067600Y-126830400D01*
X163067600Y-128033600D01*
X163067600Y-128033600D01*
G37*
G36*
X158167600Y-128033600D02*
X156464400Y-128033600D01*
X156464400Y-126830400D01*
X158167600Y-126830400D01*
X158167600Y-128033600D01*
X158167600Y-128033600D01*
G37*
G36*
X135127600Y-128033600D02*
X133424400Y-128033600D01*
X133424400Y-126830400D01*
X135127600Y-126830400D01*
X135127600Y-128033600D01*
X135127600Y-128033600D01*
G37*
G36*
X130227600Y-128033600D02*
X128524400Y-128033600D01*
X128524400Y-126830400D01*
X130227600Y-126830400D01*
X130227600Y-128033600D01*
X130227600Y-128033600D01*
G37*
G36*
X159567600Y-125569600D02*
X158264400Y-125569600D01*
X158264400Y-124366400D01*
X159567600Y-124366400D01*
X159567600Y-125569600D01*
X159567600Y-125569600D01*
G37*
G36*
X161267600Y-125569600D02*
X159964400Y-125569600D01*
X159964400Y-124366400D01*
X161267600Y-124366400D01*
X161267600Y-125569600D01*
X161267600Y-125569600D01*
G37*
G36*
X142217600Y-124807600D02*
X140914400Y-124807600D01*
X140914400Y-123604400D01*
X142217600Y-123604400D01*
X142217600Y-124807600D01*
X142217600Y-124807600D01*
G37*
G36*
X140517600Y-124807600D02*
X139214400Y-124807600D01*
X139214400Y-123604400D01*
X140517600Y-123604400D01*
X140517600Y-124807600D01*
X140517600Y-124807600D01*
G37*
G36*
X144017600Y-122343600D02*
X142314400Y-122343600D01*
X142314400Y-121140400D01*
X144017600Y-121140400D01*
X144017600Y-122343600D01*
X144017600Y-122343600D01*
G37*
G36*
X121337600Y-122343600D02*
X119634400Y-122343600D01*
X119634400Y-121140400D01*
X121337600Y-121140400D01*
X121337600Y-122343600D01*
X121337600Y-122343600D01*
G37*
G36*
X126237600Y-122343600D02*
X124534400Y-122343600D01*
X124534400Y-121140400D01*
X126237600Y-121140400D01*
X126237600Y-122343600D01*
X126237600Y-122343600D01*
G37*
G36*
X139117600Y-122343600D02*
X137414400Y-122343600D01*
X137414400Y-121140400D01*
X139117600Y-121140400D01*
X139117600Y-122343600D01*
X139117600Y-122343600D01*
G37*
G36*
X163067600Y-119803600D02*
X161364400Y-119803600D01*
X161364400Y-118600400D01*
X163067600Y-118600400D01*
X163067600Y-119803600D01*
X163067600Y-119803600D01*
G37*
G36*
X158167600Y-119803600D02*
X156464400Y-119803600D01*
X156464400Y-118600400D01*
X158167600Y-118600400D01*
X158167600Y-119803600D01*
X158167600Y-119803600D01*
G37*
G36*
X139117600Y-119143600D02*
X137414400Y-119143600D01*
X137414400Y-117940400D01*
X139117600Y-117940400D01*
X139117600Y-119143600D01*
X139117600Y-119143600D01*
G37*
G36*
X144017600Y-119143600D02*
X142314400Y-119143600D01*
X142314400Y-117940400D01*
X144017600Y-117940400D01*
X144017600Y-119143600D01*
X144017600Y-119143600D01*
G37*
G36*
X121337600Y-119143600D02*
X119634400Y-119143600D01*
X119634400Y-117940400D01*
X121337600Y-117940400D01*
X121337600Y-119143600D01*
X121337600Y-119143600D01*
G37*
G36*
X126237600Y-119143600D02*
X124534400Y-119143600D01*
X124534400Y-117940400D01*
X126237600Y-117940400D01*
X126237600Y-119143600D01*
X126237600Y-119143600D01*
G37*
G36*
X124437600Y-116679600D02*
X123134400Y-116679600D01*
X123134400Y-115476400D01*
X124437600Y-115476400D01*
X124437600Y-116679600D01*
X124437600Y-116679600D01*
G37*
G36*
X122737600Y-116679600D02*
X121434400Y-116679600D01*
X121434400Y-115476400D01*
X122737600Y-115476400D01*
X122737600Y-116679600D01*
X122737600Y-116679600D01*
G37*
G36*
X163067600Y-116603600D02*
X161364400Y-116603600D01*
X161364400Y-115400400D01*
X163067600Y-115400400D01*
X163067600Y-116603600D01*
X163067600Y-116603600D01*
G37*
G36*
X158167600Y-116603600D02*
X156464400Y-116603600D01*
X156464400Y-115400400D01*
X158167600Y-115400400D01*
X158167600Y-116603600D01*
X158167600Y-116603600D01*
G37*
G36*
X134027600Y-114553600D02*
X132824400Y-114553600D01*
X132824400Y-112850400D01*
X134027600Y-112850400D01*
X134027600Y-114553600D01*
X134027600Y-114553600D01*
G37*
G36*
X130827600Y-114553600D02*
X129624400Y-114553600D01*
X129624400Y-112850400D01*
X130827600Y-112850400D01*
X130827600Y-114553600D01*
X130827600Y-114553600D01*
G37*
G36*
X161267600Y-114139600D02*
X159964400Y-114139600D01*
X159964400Y-112936400D01*
X161267600Y-112936400D01*
X161267600Y-114139600D01*
X161267600Y-114139600D01*
G37*
G36*
X159567600Y-114139600D02*
X158264400Y-114139600D01*
X158264400Y-112936400D01*
X159567600Y-112936400D01*
X159567600Y-114139600D01*
X159567600Y-114139600D01*
G37*
G36*
X136237600Y-112753600D02*
X135034400Y-112753600D01*
X135034400Y-111450400D01*
X136237600Y-111450400D01*
X136237600Y-112753600D01*
X136237600Y-112753600D01*
G37*
G36*
X136237600Y-111053600D02*
X135034400Y-111053600D01*
X135034400Y-109750400D01*
X136237600Y-109750400D01*
X136237600Y-111053600D01*
X136237600Y-111053600D01*
G37*
G36*
X134027600Y-109653600D02*
X132824400Y-109653600D01*
X132824400Y-107950400D01*
X134027600Y-107950400D01*
X134027600Y-109653600D01*
X134027600Y-109653600D01*
G37*
G36*
X130827600Y-109653600D02*
X129624400Y-109653600D01*
X129624400Y-107950400D01*
X130827600Y-107950400D01*
X130827600Y-109653600D01*
X130827600Y-109653600D01*
G37*
G36*
X163067600Y-108373600D02*
X161364400Y-108373600D01*
X161364400Y-107170400D01*
X163067600Y-107170400D01*
X163067600Y-108373600D01*
X163067600Y-108373600D01*
G37*
G36*
X158167600Y-108373600D02*
X156464400Y-108373600D01*
X156464400Y-107170400D01*
X158167600Y-107170400D01*
X158167600Y-108373600D01*
X158167600Y-108373600D01*
G37*
G36*
X124437600Y-107027600D02*
X123134400Y-107027600D01*
X123134400Y-105824400D01*
X124437600Y-105824400D01*
X124437600Y-107027600D01*
X124437600Y-107027600D01*
G37*
G36*
X122737600Y-107027600D02*
X121434400Y-107027600D01*
X121434400Y-105824400D01*
X122737600Y-105824400D01*
X122737600Y-107027600D01*
X122737600Y-107027600D01*
G37*
G36*
X163067600Y-105173600D02*
X161364400Y-105173600D01*
X161364400Y-103970400D01*
X163067600Y-103970400D01*
X163067600Y-105173600D01*
X163067600Y-105173600D01*
G37*
G36*
X158167600Y-105173600D02*
X156464400Y-105173600D01*
X156464400Y-103970400D01*
X158167600Y-103970400D01*
X158167600Y-105173600D01*
X158167600Y-105173600D01*
G37*
G36*
X126237600Y-104563600D02*
X124534400Y-104563600D01*
X124534400Y-103360400D01*
X126237600Y-103360400D01*
X126237600Y-104563600D01*
X126237600Y-104563600D01*
G37*
G36*
X121337600Y-104563600D02*
X119634400Y-104563600D01*
X119634400Y-103360400D01*
X121337600Y-103360400D01*
X121337600Y-104563600D01*
X121337600Y-104563600D01*
G37*
G36*
X144017600Y-104563600D02*
X142314400Y-104563600D01*
X142314400Y-103360400D01*
X144017600Y-103360400D01*
X144017600Y-104563600D01*
X144017600Y-104563600D01*
G37*
G36*
X139117600Y-104563600D02*
X137414400Y-104563600D01*
X137414400Y-103360400D01*
X139117600Y-103360400D01*
X139117600Y-104563600D01*
X139117600Y-104563600D01*
G37*
G36*
X159567600Y-102709600D02*
X158264400Y-102709600D01*
X158264400Y-101506400D01*
X159567600Y-101506400D01*
X159567600Y-102709600D01*
X159567600Y-102709600D01*
G37*
G36*
X161267600Y-102709600D02*
X159964400Y-102709600D01*
X159964400Y-101506400D01*
X161267600Y-101506400D01*
X161267600Y-102709600D01*
X161267600Y-102709600D01*
G37*
G36*
X121337600Y-101363600D02*
X119634400Y-101363600D01*
X119634400Y-100160400D01*
X121337600Y-100160400D01*
X121337600Y-101363600D01*
X121337600Y-101363600D01*
G37*
G36*
X126237600Y-101363600D02*
X124534400Y-101363600D01*
X124534400Y-100160400D01*
X126237600Y-100160400D01*
X126237600Y-101363600D01*
X126237600Y-101363600D01*
G37*
G36*
X139117600Y-101363600D02*
X137414400Y-101363600D01*
X137414400Y-100160400D01*
X139117600Y-100160400D01*
X139117600Y-101363600D01*
X139117600Y-101363600D01*
G37*
G36*
X144017600Y-101363600D02*
X142314400Y-101363600D01*
X142314400Y-100160400D01*
X144017600Y-100160400D01*
X144017600Y-101363600D01*
X144017600Y-101363600D01*
G37*
G36*
X142217600Y-98899600D02*
X140914400Y-98899600D01*
X140914400Y-97696400D01*
X142217600Y-97696400D01*
X142217600Y-98899600D01*
X142217600Y-98899600D01*
G37*
G36*
X140517600Y-98899600D02*
X139214400Y-98899600D01*
X139214400Y-97696400D01*
X140517600Y-97696400D01*
X140517600Y-98899600D01*
X140517600Y-98899600D01*
G37*
G36*
X158167600Y-96943600D02*
X156464400Y-96943600D01*
X156464400Y-95740400D01*
X158167600Y-95740400D01*
X158167600Y-96943600D01*
X158167600Y-96943600D01*
G37*
G36*
X163067600Y-96943600D02*
X161364400Y-96943600D01*
X161364400Y-95740400D01*
X163067600Y-95740400D01*
X163067600Y-96943600D01*
X163067600Y-96943600D01*
G37*
G36*
X130827600Y-96773600D02*
X129624400Y-96773600D01*
X129624400Y-95070400D01*
X130827600Y-95070400D01*
X130827600Y-96773600D01*
X130827600Y-96773600D01*
G37*
G36*
X134027600Y-96773600D02*
X132824400Y-96773600D01*
X132824400Y-95070400D01*
X134027600Y-95070400D01*
X134027600Y-96773600D01*
X134027600Y-96773600D01*
G37*
G36*
X128363600Y-94973600D02*
X127160400Y-94973600D01*
X127160400Y-93670400D01*
X128363600Y-93670400D01*
X128363600Y-94973600D01*
X128363600Y-94973600D01*
G37*
G36*
X158167600Y-93743600D02*
X156464400Y-93743600D01*
X156464400Y-92540400D01*
X158167600Y-92540400D01*
X158167600Y-93743600D01*
X158167600Y-93743600D01*
G37*
G36*
X163067600Y-93743600D02*
X161364400Y-93743600D01*
X161364400Y-92540400D01*
X163067600Y-92540400D01*
X163067600Y-93743600D01*
X163067600Y-93743600D01*
G37*
G36*
X128363600Y-93273600D02*
X127160400Y-93273600D01*
X127160400Y-91970400D01*
X128363600Y-91970400D01*
X128363600Y-93273600D01*
X128363600Y-93273600D01*
G37*
G36*
X134027600Y-91873600D02*
X132824400Y-91873600D01*
X132824400Y-90170400D01*
X134027600Y-90170400D01*
X134027600Y-91873600D01*
X134027600Y-91873600D01*
G37*
G36*
X130827600Y-91873600D02*
X129624400Y-91873600D01*
X129624400Y-90170400D01*
X130827600Y-90170400D01*
X130827600Y-91873600D01*
X130827600Y-91873600D01*
G37*
G36*
X161267600Y-91279600D02*
X159964400Y-91279600D01*
X159964400Y-90076400D01*
X161267600Y-90076400D01*
X161267600Y-91279600D01*
X161267600Y-91279600D01*
G37*
G36*
X159567600Y-91279600D02*
X158264400Y-91279600D01*
X158264400Y-90076400D01*
X159567600Y-90076400D01*
X159567600Y-91279600D01*
X159567600Y-91279600D01*
G37*
M02*
