G04 #@! TF.FileFunction,Copper,L1,Top,Signal*
%FSLAX46Y46*%
G04 Gerber Fmt 4.6, Leading zero omitted, Abs format (unit mm)*
G04 Created by KiCad (PCBNEW (2015-07-07 BZR 5906)-product) date Tue 21 Jul 2015 01:08:41 PM EDT*
%MOMM*%
G01*
G04 APERTURE LIST*
%ADD10C,0.100000*%
%ADD11R,1.100000X1.000000*%
%ADD12R,1.000000X1.100000*%
%ADD13R,1.500000X1.000000*%
%ADD14R,1.000000X1.500000*%
%ADD15C,0.600000*%
%ADD16C,0.406400*%
%ADD17C,0.254000*%
%ADD18C,0.250000*%
G04 APERTURE END LIST*
D10*
D11*
X160616000Y-113538000D03*
X158916000Y-113538000D03*
X160616000Y-124968000D03*
X158916000Y-124968000D03*
X160616000Y-102108000D03*
X158916000Y-102108000D03*
D12*
X135890000Y-129882000D03*
X135890000Y-128182000D03*
D11*
X122086000Y-116078000D03*
X123786000Y-116078000D03*
D12*
X135636000Y-110402000D03*
X135636000Y-112102000D03*
D11*
X123786000Y-106426000D03*
X122086000Y-106426000D03*
D12*
X127762000Y-94322000D03*
X127762000Y-92622000D03*
D11*
X139866000Y-98298000D03*
X141566000Y-98298000D03*
X141566000Y-124206000D03*
X139866000Y-124206000D03*
X160616000Y-90678000D03*
X158916000Y-90678000D03*
D13*
X157316000Y-96342000D03*
X162216000Y-96342000D03*
X162216000Y-93142000D03*
X157316000Y-93142000D03*
X143166000Y-118542000D03*
X138266000Y-118542000D03*
X138266000Y-121742000D03*
X143166000Y-121742000D03*
X138266000Y-103962000D03*
X143166000Y-103962000D03*
X143166000Y-100762000D03*
X138266000Y-100762000D03*
D14*
X133426000Y-95922000D03*
X133426000Y-91022000D03*
X130226000Y-91022000D03*
X130226000Y-95922000D03*
D13*
X125386000Y-100762000D03*
X120486000Y-100762000D03*
X120486000Y-103962000D03*
X125386000Y-103962000D03*
D14*
X130226000Y-108802000D03*
X130226000Y-113702000D03*
X133426000Y-113702000D03*
X133426000Y-108802000D03*
D13*
X120486000Y-121742000D03*
X125386000Y-121742000D03*
X125386000Y-118542000D03*
X120486000Y-118542000D03*
X134276000Y-127432000D03*
X129376000Y-127432000D03*
X129376000Y-130632000D03*
X134276000Y-130632000D03*
X157316000Y-107772000D03*
X162216000Y-107772000D03*
X162216000Y-104572000D03*
X157316000Y-104572000D03*
X157316000Y-130632000D03*
X162216000Y-130632000D03*
X162216000Y-127432000D03*
X157316000Y-127432000D03*
X157316000Y-119202000D03*
X162216000Y-119202000D03*
X162216000Y-116002000D03*
X157316000Y-116002000D03*
D15*
X157226000Y-118110000D03*
X157988000Y-118110000D03*
X157226000Y-117348000D03*
X157988000Y-117348000D03*
X158750000Y-118110000D03*
X158750000Y-117348000D03*
X158750000Y-128778000D03*
X158750000Y-129540000D03*
X157988000Y-128778000D03*
X157226000Y-128778000D03*
X157988000Y-129540000D03*
X157226000Y-129540000D03*
X157226000Y-106680000D03*
X157988000Y-106680000D03*
X157226000Y-105918000D03*
X157988000Y-105918000D03*
X158750000Y-106680000D03*
X158750000Y-105918000D03*
X158750000Y-94488000D03*
X158750000Y-95250000D03*
X157988000Y-94488000D03*
X157226000Y-94488000D03*
X157988000Y-95250000D03*
X157226000Y-95250000D03*
X136144000Y-108966000D03*
X136144000Y-108204000D03*
X132334000Y-108966000D03*
X131572000Y-108966000D03*
X131572000Y-108204000D03*
X132334000Y-108204000D03*
X134620000Y-108966000D03*
X135382000Y-108966000D03*
X135382000Y-108204000D03*
X134620000Y-108204000D03*
X125222000Y-106680000D03*
X143002000Y-124460000D03*
X120650000Y-115824000D03*
X138430000Y-98044000D03*
X127508000Y-95758000D03*
X119888000Y-115824000D03*
X121412000Y-119634000D03*
X121412000Y-120396000D03*
X143764000Y-124460000D03*
X142240000Y-120650000D03*
X142240000Y-119888000D03*
X139192000Y-102616000D03*
X139192000Y-101854000D03*
X137668000Y-98044000D03*
X131318000Y-94996000D03*
X132080000Y-94996000D03*
X127508000Y-96520000D03*
X125984000Y-106680000D03*
X124460000Y-102870000D03*
X124460000Y-102108000D03*
X143002000Y-122936000D03*
X143002000Y-123698000D03*
X143764000Y-123698000D03*
X143764000Y-122936000D03*
X143002000Y-120650000D03*
X143002000Y-119888000D03*
X143764000Y-119888000D03*
X143764000Y-120650000D03*
X129032000Y-95758000D03*
X128270000Y-95758000D03*
X128270000Y-96520000D03*
X129032000Y-96520000D03*
X131318000Y-95758000D03*
X132080000Y-95758000D03*
X132080000Y-96520000D03*
X131318000Y-96520000D03*
X125222000Y-102870000D03*
X125222000Y-102108000D03*
X125984000Y-102108000D03*
X125984000Y-102870000D03*
X125222000Y-105156000D03*
X125222000Y-105918000D03*
X125984000Y-105918000D03*
X125984000Y-105156000D03*
X138430000Y-99568000D03*
X138430000Y-98806000D03*
X137668000Y-98806000D03*
X137668000Y-99568000D03*
X138430000Y-101854000D03*
X138430000Y-102616000D03*
X137668000Y-102616000D03*
X137668000Y-101854000D03*
X120650000Y-119634000D03*
X120650000Y-120396000D03*
X119888000Y-120396000D03*
X119888000Y-119634000D03*
X120650000Y-117348000D03*
X120650000Y-116586000D03*
X119888000Y-116586000D03*
X119888000Y-117348000D03*
X131572000Y-109728000D03*
X132334000Y-109728000D03*
X125730000Y-130302000D03*
X125730000Y-129286000D03*
X125222000Y-128778000D03*
X124714000Y-128270000D03*
X124206000Y-127762000D03*
X123698000Y-127254000D03*
X125222000Y-129794000D03*
X124714000Y-129286000D03*
X124206000Y-128778000D03*
X123698000Y-128270000D03*
X137160000Y-131064000D03*
X137668000Y-130556000D03*
X138176000Y-130048000D03*
X138684000Y-129540000D03*
X139192000Y-129032000D03*
X139192000Y-128016000D03*
X138684000Y-128524000D03*
X138176000Y-129032000D03*
X137668000Y-129540000D03*
X137160000Y-130048000D03*
X162306000Y-118110000D03*
X162306000Y-117348000D03*
X161544000Y-117348000D03*
X160782000Y-117348000D03*
X160782000Y-118110000D03*
X161544000Y-118110000D03*
X161544000Y-129540000D03*
X160782000Y-129540000D03*
X160782000Y-128778000D03*
X161544000Y-128778000D03*
X162306000Y-128778000D03*
X162306000Y-129540000D03*
X162306000Y-106680000D03*
X162306000Y-105918000D03*
X161544000Y-105918000D03*
X160782000Y-105918000D03*
X160782000Y-106680000D03*
X161544000Y-106680000D03*
X161544000Y-95250000D03*
X160782000Y-95250000D03*
X160782000Y-94488000D03*
X161544000Y-94488000D03*
X162306000Y-94488000D03*
X162306000Y-95250000D03*
X124460000Y-123698000D03*
X124460000Y-122936000D03*
X124460000Y-120650000D03*
X124460000Y-119888000D03*
X139192000Y-120396000D03*
X139192000Y-119634000D03*
X139192000Y-117348000D03*
X139192000Y-116586000D03*
X142240000Y-105918000D03*
X142240000Y-105156000D03*
X142240000Y-102870000D03*
X142240000Y-102108000D03*
X135382000Y-91948000D03*
X134620000Y-91948000D03*
X132334000Y-91948000D03*
X131572000Y-91948000D03*
X121412000Y-98806000D03*
X121412000Y-99568000D03*
X121412000Y-102616000D03*
X121412000Y-101854000D03*
X125984000Y-119888000D03*
X125222000Y-119888000D03*
X125222000Y-120650000D03*
X125984000Y-120650000D03*
X125222000Y-122936000D03*
X125222000Y-123698000D03*
X125984000Y-123698000D03*
X125984000Y-122936000D03*
X120650000Y-101854000D03*
X120650000Y-102616000D03*
X119888000Y-102616000D03*
X119888000Y-101854000D03*
X120650000Y-99568000D03*
X120650000Y-98806000D03*
X119888000Y-98806000D03*
X119888000Y-99568000D03*
X138430000Y-119634000D03*
X138430000Y-120396000D03*
X137668000Y-120396000D03*
X137668000Y-119634000D03*
X138430000Y-117348000D03*
X138430000Y-116586000D03*
X137668000Y-116586000D03*
X137668000Y-117348000D03*
X143002000Y-102870000D03*
X143002000Y-102108000D03*
X143764000Y-102108000D03*
X143764000Y-102870000D03*
X143002000Y-105156000D03*
X143002000Y-105918000D03*
X143764000Y-105918000D03*
X143764000Y-105156000D03*
X132334000Y-91186000D03*
X131572000Y-91186000D03*
X131572000Y-90424000D03*
X132334000Y-90424000D03*
X134620000Y-91186000D03*
X135382000Y-91186000D03*
X135382000Y-90424000D03*
X134620000Y-90424000D03*
X132080000Y-113030000D03*
X131318000Y-113030000D03*
X131318000Y-112268000D03*
X132080000Y-112268000D03*
X128524000Y-112268000D03*
X129286000Y-112268000D03*
X129286000Y-113030000D03*
X128524000Y-113029992D03*
X128524000Y-113792000D03*
X129286000Y-113792000D03*
X131318000Y-113792000D03*
X132080000Y-113792000D03*
X128016000Y-127508000D03*
X128016000Y-126746000D03*
X127254000Y-126746000D03*
X127254000Y-127508000D03*
X127254000Y-125984000D03*
X128016000Y-125984000D03*
X131318000Y-127508000D03*
X132080000Y-127508000D03*
X132080000Y-126746000D03*
X132080000Y-125984000D03*
X131318000Y-125984000D03*
X131318000Y-126746000D03*
X124460000Y-125222000D03*
X125222000Y-117602000D03*
X121158000Y-123190000D03*
X126746000Y-114554000D03*
X124713986Y-113538000D03*
X134620072Y-114554000D03*
X119888000Y-105410000D03*
X128778000Y-108204000D03*
X127508000Y-109728000D03*
X123189986Y-110744000D03*
X122682000Y-96266000D03*
X124968000Y-98552000D03*
X139700000Y-94996000D03*
X135128000Y-94996000D03*
X139446000Y-113283984D03*
X137668000Y-105410000D03*
X138430004Y-122936000D03*
X138430000Y-109474000D03*
X129794000Y-132080000D03*
X142748000Y-116586000D03*
X161036000Y-116332000D03*
X161036000Y-127762000D03*
X161036000Y-104902000D03*
X161036000Y-93472000D03*
X158496000Y-120904000D03*
X158496000Y-132334000D03*
X158496000Y-109474000D03*
X158496000Y-98044000D03*
D16*
X157226000Y-118110000D02*
X157988000Y-118110000D01*
X157226000Y-117348000D02*
X157988000Y-117348000D01*
X158750000Y-118110000D02*
X158750000Y-117348000D01*
X158750000Y-129540000D02*
X158750000Y-128778000D01*
X157226000Y-128778000D02*
X157988000Y-128778000D01*
X157226000Y-129540000D02*
X157988000Y-129540000D01*
X157226000Y-106680000D02*
X157988000Y-106680000D01*
X157226000Y-105918000D02*
X157988000Y-105918000D01*
X158750000Y-106680000D02*
X158750000Y-105918000D01*
X158750000Y-95250000D02*
X158750000Y-94488000D01*
X157226000Y-94488000D02*
X157988000Y-94488000D01*
X157226000Y-95250000D02*
X157988000Y-95250000D01*
X135636000Y-110402000D02*
X135636000Y-109220000D01*
X135636000Y-109220000D02*
X135382000Y-108966000D01*
X136144000Y-108204000D02*
X136144000Y-108966000D01*
X131572000Y-108204000D02*
X131572000Y-108966000D01*
X133426000Y-108802000D02*
X132932000Y-108802000D01*
X132932000Y-108802000D02*
X132334000Y-108204000D01*
X135382000Y-108204000D02*
X135382000Y-108966000D01*
X133426000Y-108802000D02*
X134022000Y-108802000D01*
X134022000Y-108802000D02*
X134620000Y-108204000D01*
X141566000Y-124206000D02*
X142748000Y-124206000D01*
X142748000Y-124206000D02*
X143002000Y-124460000D01*
X139866000Y-98298000D02*
X138684000Y-98298000D01*
X138684000Y-98298000D02*
X138430000Y-98044000D01*
X120650000Y-116586000D02*
X120650000Y-115824000D01*
X138430000Y-98806000D02*
X138430000Y-98044000D01*
X119888000Y-116586000D02*
X119888000Y-115824000D01*
X120650000Y-120396000D02*
X121412000Y-120396000D01*
X143764000Y-123698000D02*
X143764000Y-124460000D01*
X143002000Y-120650000D02*
X142240000Y-120650000D01*
X138430000Y-101854000D02*
X139192000Y-101854000D01*
X137668000Y-98806000D02*
X137668000Y-98044000D01*
X132080000Y-95758000D02*
X132080000Y-94996000D01*
X125222000Y-102108000D02*
X124460000Y-102108000D01*
X143764000Y-123698000D02*
X143002000Y-123698000D01*
X143166000Y-121742000D02*
X143166000Y-122338000D01*
X143166000Y-122338000D02*
X143764000Y-122936000D01*
X143764000Y-119888000D02*
X143002000Y-119888000D01*
X143166000Y-121742000D02*
X143166000Y-121248000D01*
X143166000Y-121248000D02*
X143764000Y-120650000D01*
X128270000Y-96520000D02*
X128270000Y-95758000D01*
X130226000Y-95922000D02*
X129630000Y-95922000D01*
X129630000Y-95922000D02*
X129032000Y-96520000D01*
X132080000Y-96520000D02*
X132080000Y-95758000D01*
X130226000Y-95922000D02*
X130720000Y-95922000D01*
X130720000Y-95922000D02*
X131318000Y-96520000D01*
X125984000Y-102108000D02*
X125222000Y-102108000D01*
X125386000Y-103962000D02*
X125386000Y-103468000D01*
X125386000Y-103468000D02*
X125984000Y-102870000D01*
X125984000Y-105918000D02*
X125222000Y-105918000D01*
X125386000Y-103962000D02*
X125386000Y-104558000D01*
X125386000Y-104558000D02*
X125984000Y-105156000D01*
X137668000Y-98806000D02*
X138430000Y-98806000D01*
X138266000Y-100762000D02*
X138266000Y-100166000D01*
X138266000Y-100166000D02*
X137668000Y-99568000D01*
X137668000Y-102616000D02*
X138430000Y-102616000D01*
X138266000Y-100762000D02*
X138266000Y-101256000D01*
X138266000Y-101256000D02*
X137668000Y-101854000D01*
X119888000Y-120396000D02*
X120650000Y-120396000D01*
X120486000Y-118542000D02*
X120486000Y-119036000D01*
X120486000Y-119036000D02*
X119888000Y-119634000D01*
X119888000Y-116586000D02*
X120650000Y-116586000D01*
X120486000Y-118542000D02*
X120486000Y-117946000D01*
X120486000Y-117946000D02*
X119888000Y-117348000D01*
X131572000Y-110236000D02*
X131572000Y-108966000D01*
X135890000Y-129882000D02*
X135470000Y-129882000D01*
X135470000Y-129882000D02*
X135128000Y-129540000D01*
X134461600Y-129540000D02*
X135128000Y-129540000D01*
X134276000Y-129725600D02*
X134461600Y-129540000D01*
X134276000Y-130632000D02*
X134276000Y-129725600D01*
X125730000Y-129286000D02*
X125222000Y-128778000D01*
X124714000Y-128270000D02*
X124206000Y-127762000D01*
X125730000Y-130302000D02*
X125222000Y-129794000D01*
X124714000Y-129286000D02*
X124206000Y-128778000D01*
X122174000Y-126746000D02*
X123698000Y-128270000D01*
X122174000Y-121158000D02*
X122174000Y-126746000D01*
X121412000Y-120396000D02*
X122174000Y-121158000D01*
X134276000Y-131538400D02*
X134563600Y-131826000D01*
X134276000Y-130632000D02*
X134276000Y-131538400D01*
X136398000Y-131826000D02*
X137160000Y-131064000D01*
X134563600Y-131826000D02*
X136398000Y-131826000D01*
X137668000Y-130556000D02*
X138176000Y-130048000D01*
X138684000Y-129540000D02*
X139192000Y-129032000D01*
X139192000Y-128016000D02*
X138684000Y-128524000D01*
X138176000Y-129032000D02*
X137668000Y-129540000D01*
X134276000Y-129725600D02*
X133836400Y-129286000D01*
X133836400Y-129286000D02*
X125730000Y-129286000D01*
X162306000Y-118110000D02*
X162306000Y-117348000D01*
X161544000Y-117348000D02*
X160782000Y-117348000D01*
X160782000Y-118110000D02*
X161544000Y-118110000D01*
X160782000Y-129540000D02*
X161544000Y-129540000D01*
X161544000Y-128778000D02*
X160782000Y-128778000D01*
X162306000Y-129540000D02*
X162306000Y-128778000D01*
X162306000Y-106680000D02*
X162306000Y-105918000D01*
X161544000Y-105918000D02*
X160782000Y-105918000D01*
X160782000Y-106680000D02*
X161544000Y-106680000D01*
X160782000Y-95250000D02*
X161544000Y-95250000D01*
X161544000Y-94488000D02*
X160782000Y-94488000D01*
X162306000Y-95250000D02*
X162306000Y-94488000D01*
X125222000Y-122936000D02*
X124460000Y-122936000D01*
X125222000Y-119888000D02*
X124460000Y-119888000D01*
X138430000Y-120396000D02*
X139192000Y-120396000D01*
X139192000Y-116586000D02*
X139192000Y-117348000D01*
X143002000Y-105156000D02*
X142240000Y-105156000D01*
X143002000Y-102108000D02*
X142240000Y-102108000D01*
X134620000Y-91186000D02*
X134620000Y-91948000D01*
X131572000Y-91186000D02*
X131572000Y-91948000D01*
X120650000Y-99568000D02*
X121412000Y-99568000D01*
X120650000Y-101854000D02*
X121412000Y-101854000D01*
X125222000Y-120650000D02*
X125222000Y-119888000D01*
X125386000Y-121742000D02*
X125386000Y-121248000D01*
X125386000Y-121248000D02*
X125984000Y-120650000D01*
X125984000Y-123698000D02*
X125222000Y-123698000D01*
X125386000Y-121742000D02*
X125386000Y-122338000D01*
X125386000Y-122338000D02*
X125984000Y-122936000D01*
X119888000Y-102616000D02*
X120650000Y-102616000D01*
X120486000Y-100762000D02*
X120486000Y-101256000D01*
X120486000Y-101256000D02*
X119888000Y-101854000D01*
X119888000Y-98806000D02*
X120650000Y-98806000D01*
X120486000Y-100762000D02*
X120486000Y-100166000D01*
X120486000Y-100166000D02*
X119888000Y-99568000D01*
X137668000Y-120396000D02*
X138430000Y-120396000D01*
X138266000Y-118542000D02*
X138266000Y-119036000D01*
X138266000Y-119036000D02*
X137668000Y-119634000D01*
X137668000Y-116586000D02*
X138430000Y-116586000D01*
X138266000Y-118542000D02*
X138266000Y-117946000D01*
X138266000Y-117946000D02*
X137668000Y-117348000D01*
X143764000Y-102108000D02*
X143002000Y-102108000D01*
X143166000Y-103962000D02*
X143166000Y-103468000D01*
X143166000Y-103468000D02*
X143764000Y-102870000D01*
X143764000Y-105918000D02*
X143002000Y-105918000D01*
X143166000Y-103962000D02*
X143166000Y-104558000D01*
X143166000Y-104558000D02*
X143764000Y-105156000D01*
X131572000Y-90424000D02*
X131572000Y-91186000D01*
X133426000Y-91022000D02*
X132932000Y-91022000D01*
X132932000Y-91022000D02*
X132334000Y-90424000D01*
X135382000Y-90424000D02*
X135382000Y-91186000D01*
X133426000Y-91022000D02*
X134022000Y-91022000D01*
X134022000Y-91022000D02*
X134620000Y-90424000D01*
X131318000Y-113030000D02*
X131318000Y-112268000D01*
X128524000Y-112268000D02*
X129286000Y-112268000D01*
X128524000Y-113029992D02*
X128524000Y-113792000D01*
X130226000Y-113702000D02*
X129319600Y-113702000D01*
X129319600Y-113702000D02*
X129286000Y-113735600D01*
X129286000Y-113735600D02*
X129286000Y-113792000D01*
X130226000Y-113702000D02*
X131228000Y-113702000D01*
X131228000Y-113702000D02*
X131318000Y-113792000D01*
X132080000Y-113030000D02*
X132080000Y-113792000D01*
X128092000Y-127432000D02*
X128016000Y-127508000D01*
X129376000Y-127432000D02*
X128092000Y-127432000D01*
X128016000Y-126746000D02*
X127254000Y-126746000D01*
X127254000Y-126746000D02*
X127254000Y-125984000D01*
X131242000Y-127432000D02*
X131318000Y-127508000D01*
X129376000Y-127432000D02*
X131242000Y-127432000D01*
X132080000Y-127508000D02*
X132080000Y-126746000D01*
X132080000Y-125984000D02*
X131318000Y-125984000D01*
D17*
X126746000Y-128524000D02*
X124460000Y-126238000D01*
X133938000Y-128524000D02*
X126746000Y-128524000D01*
X134276000Y-128186000D02*
X133938000Y-128524000D01*
X124460000Y-126238000D02*
X124460000Y-125222000D01*
X134276000Y-127432000D02*
X134276000Y-128186000D01*
X125222000Y-118378000D02*
X125386000Y-118542000D01*
X125222000Y-117602000D02*
X125222000Y-118378000D01*
X120486000Y-121742000D02*
X120486000Y-122518000D01*
X120486000Y-122518000D02*
X121158000Y-123190000D01*
X125730000Y-113538000D02*
X124713986Y-113538000D01*
X126746000Y-114554000D02*
X125730000Y-113538000D01*
X133768072Y-113702000D02*
X134620072Y-114554000D01*
X133426000Y-113702000D02*
X133768072Y-113702000D01*
X120486000Y-103962000D02*
X120486000Y-104812000D01*
X120486000Y-104812000D02*
X119888000Y-105410000D01*
X130226000Y-108802000D02*
X129376000Y-108802000D01*
X129376000Y-108802000D02*
X128778000Y-108204000D01*
X127508000Y-109728000D02*
X126492000Y-110744000D01*
X126492000Y-110744000D02*
X123614250Y-110744000D01*
X123614250Y-110744000D02*
X123189986Y-110744000D01*
X130226000Y-91022000D02*
X129472000Y-91022000D01*
X129472000Y-91022000D02*
X129122000Y-91022000D01*
X129122000Y-91022000D02*
X128524000Y-90424000D01*
X128524000Y-90424000D02*
X127254000Y-90424000D01*
X122682000Y-94996000D02*
X122682000Y-96266000D01*
X127254000Y-90424000D02*
X122682000Y-94996000D01*
X124968000Y-98552000D02*
X124968000Y-99314000D01*
X125386000Y-99732000D02*
X125386000Y-100762000D01*
X124968000Y-99314000D02*
X125386000Y-99732000D01*
X143166000Y-100008000D02*
X144018000Y-99156000D01*
X143166000Y-100762000D02*
X143166000Y-100008000D01*
X144018000Y-99156000D02*
X144018000Y-98044000D01*
X140970000Y-94996000D02*
X139700000Y-94996000D01*
X144018000Y-98044000D02*
X140970000Y-94996000D01*
X134352000Y-94996000D02*
X133426000Y-95922000D01*
X135128000Y-94996000D02*
X134352000Y-94996000D01*
X139446000Y-113284000D02*
X139446000Y-113283984D01*
X138266000Y-103962000D02*
X138266000Y-104812000D01*
X138266000Y-104812000D02*
X137668000Y-105410000D01*
X138266000Y-122771996D02*
X138430004Y-122936000D01*
X138266000Y-121742000D02*
X138266000Y-122771996D01*
X139446000Y-112859720D02*
X139446000Y-113283984D01*
X139446000Y-110490000D02*
X139446000Y-112859720D01*
X138938000Y-109982000D02*
X139446000Y-110490000D01*
X138938000Y-109982000D02*
X138430000Y-109474000D01*
X129376000Y-131662000D02*
X129794000Y-132080000D01*
X129376000Y-130632000D02*
X129376000Y-131662000D01*
X143166000Y-117004000D02*
X142748000Y-116586000D01*
X143166000Y-118542000D02*
X143166000Y-117004000D01*
D18*
X161366000Y-116002000D02*
X161036000Y-116332000D01*
X162216000Y-116002000D02*
X161366000Y-116002000D01*
X162216000Y-127432000D02*
X161366000Y-127432000D01*
X161366000Y-127432000D02*
X161036000Y-127762000D01*
X161366000Y-104572000D02*
X161036000Y-104902000D01*
X162216000Y-104572000D02*
X161366000Y-104572000D01*
X162216000Y-93142000D02*
X161366000Y-93142000D01*
X161366000Y-93142000D02*
X161036000Y-93472000D01*
X158496000Y-120904000D02*
X157734000Y-120904000D01*
X157316000Y-120486000D02*
X157316000Y-119202000D01*
X157734000Y-120904000D02*
X157316000Y-120486000D01*
X157734000Y-132334000D02*
X157316000Y-131916000D01*
X157316000Y-131916000D02*
X157316000Y-130632000D01*
X158496000Y-132334000D02*
X157734000Y-132334000D01*
X158496000Y-109474000D02*
X157734000Y-109474000D01*
X157316000Y-109056000D02*
X157316000Y-107772000D01*
X157734000Y-109474000D02*
X157316000Y-109056000D01*
X157734000Y-98044000D02*
X157316000Y-97626000D01*
X157316000Y-97626000D02*
X157316000Y-96342000D01*
X158496000Y-98044000D02*
X157734000Y-98044000D01*
D17*
G36*
X144044200Y-108512432D02*
X143039000Y-109517631D01*
X143039000Y-104747750D01*
X143039000Y-104089000D01*
X143039000Y-103835000D01*
X143039000Y-103176250D01*
X142943750Y-103081000D01*
X142340214Y-103081000D01*
X142200180Y-103139004D01*
X142093004Y-103246181D01*
X142035000Y-103386215D01*
X142035000Y-103537786D01*
X142035000Y-103739750D01*
X142130250Y-103835000D01*
X143039000Y-103835000D01*
X143039000Y-104089000D01*
X142130250Y-104089000D01*
X142035000Y-104184250D01*
X142035000Y-104386214D01*
X142035000Y-104537785D01*
X142093004Y-104677819D01*
X142200180Y-104784996D01*
X142340214Y-104843000D01*
X142943750Y-104843000D01*
X143039000Y-104747750D01*
X143039000Y-109517631D01*
X142497118Y-110059513D01*
X141097000Y-108659395D01*
X141097000Y-99179000D01*
X141343750Y-99179000D01*
X141439000Y-99083750D01*
X141439000Y-98425000D01*
X141419000Y-98425000D01*
X141419000Y-98171000D01*
X141439000Y-98171000D01*
X141439000Y-97512250D01*
X141343750Y-97417000D01*
X140940214Y-97417000D01*
X140824524Y-97464919D01*
X136450605Y-93091000D01*
X134307000Y-93091000D01*
X134307000Y-91847786D01*
X134307000Y-91244250D01*
X134211750Y-91149000D01*
X133553000Y-91149000D01*
X133553000Y-92057750D01*
X133648250Y-92153000D01*
X133850214Y-92153000D01*
X134001785Y-92153000D01*
X134141819Y-92094996D01*
X134248996Y-91987820D01*
X134307000Y-91847786D01*
X134307000Y-93091000D01*
X133299000Y-93091000D01*
X133299000Y-92057750D01*
X133299000Y-91149000D01*
X132640250Y-91149000D01*
X132545000Y-91244250D01*
X132545000Y-91847786D01*
X132603004Y-91987820D01*
X132710181Y-92094996D01*
X132850215Y-92153000D01*
X133001786Y-92153000D01*
X133203750Y-92153000D01*
X133299000Y-92057750D01*
X133299000Y-93091000D01*
X128643000Y-93091000D01*
X128643000Y-92844250D01*
X128643000Y-92399750D01*
X128643000Y-91996214D01*
X128584996Y-91856180D01*
X128477819Y-91749004D01*
X128337785Y-91691000D01*
X128186214Y-91691000D01*
X127984250Y-91691000D01*
X127889000Y-91786250D01*
X127889000Y-92495000D01*
X128547750Y-92495000D01*
X128643000Y-92399750D01*
X128643000Y-92844250D01*
X128547750Y-92749000D01*
X127889000Y-92749000D01*
X127889000Y-92769000D01*
X127635000Y-92769000D01*
X127635000Y-92749000D01*
X127635000Y-92495000D01*
X127635000Y-91786250D01*
X127539750Y-91691000D01*
X127337786Y-91691000D01*
X127186215Y-91691000D01*
X127046181Y-91749004D01*
X126939004Y-91856180D01*
X126881000Y-91996214D01*
X126881000Y-92399750D01*
X126976250Y-92495000D01*
X127635000Y-92495000D01*
X127635000Y-92749000D01*
X126976250Y-92749000D01*
X126881000Y-92844250D01*
X126881000Y-93247786D01*
X126928919Y-93363475D01*
X122555000Y-97737395D01*
X122555000Y-105545000D01*
X122308250Y-105545000D01*
X122213000Y-105640250D01*
X122213000Y-106299000D01*
X122233000Y-106299000D01*
X122233000Y-106553000D01*
X122213000Y-106553000D01*
X122213000Y-107211750D01*
X122308250Y-107307000D01*
X122555000Y-107307000D01*
X122555000Y-107494605D01*
X125245594Y-110185200D01*
X123666180Y-110185200D01*
X123605059Y-110123972D01*
X123336189Y-110012327D01*
X123045061Y-110012073D01*
X122775996Y-110123248D01*
X122569958Y-110328927D01*
X122458313Y-110597797D01*
X122458059Y-110888925D01*
X122569234Y-111157990D01*
X122774913Y-111364028D01*
X123043783Y-111475673D01*
X123334911Y-111475927D01*
X123603976Y-111364752D01*
X123666036Y-111302800D01*
X126363194Y-111302800D01*
X126693395Y-111633000D01*
X134755000Y-111633000D01*
X134755000Y-111879750D01*
X134850250Y-111975000D01*
X135509000Y-111975000D01*
X135509000Y-111955000D01*
X135763000Y-111955000D01*
X135763000Y-111975000D01*
X136421750Y-111975000D01*
X136517000Y-111879750D01*
X136517000Y-111633000D01*
X137107395Y-111633000D01*
X138714237Y-113239842D01*
X138714073Y-113428909D01*
X138825248Y-113697974D01*
X139030927Y-113904012D01*
X139299797Y-114015657D01*
X139490218Y-114015823D01*
X140335000Y-114860605D01*
X140335000Y-123325000D01*
X140088250Y-123325000D01*
X139993000Y-123420250D01*
X139993000Y-124079000D01*
X140013000Y-124079000D01*
X140013000Y-124333000D01*
X139993000Y-124333000D01*
X139993000Y-124991750D01*
X140010820Y-125009570D01*
X139739000Y-125299511D01*
X139739000Y-124991750D01*
X139739000Y-124333000D01*
X139739000Y-124079000D01*
X139739000Y-123420250D01*
X139643750Y-123325000D01*
X139456259Y-123325000D01*
X139456259Y-122242000D01*
X139456259Y-121242000D01*
X139424315Y-121077356D01*
X139397000Y-121035773D01*
X139397000Y-119117785D01*
X139397000Y-118966214D01*
X139397000Y-118764250D01*
X139397000Y-118319750D01*
X139397000Y-118117786D01*
X139397000Y-117966215D01*
X139338996Y-117826181D01*
X139231820Y-117719004D01*
X139091786Y-117661000D01*
X138488250Y-117661000D01*
X138393000Y-117756250D01*
X138393000Y-118415000D01*
X139301750Y-118415000D01*
X139397000Y-118319750D01*
X139397000Y-118764250D01*
X139301750Y-118669000D01*
X138393000Y-118669000D01*
X138393000Y-119327750D01*
X138488250Y-119423000D01*
X139091786Y-119423000D01*
X139231820Y-119364996D01*
X139338996Y-119257819D01*
X139397000Y-119117785D01*
X139397000Y-121035773D01*
X139329258Y-120932649D01*
X139185755Y-120835784D01*
X139016000Y-120801741D01*
X137516000Y-120801741D01*
X137387800Y-120826614D01*
X137387800Y-119401289D01*
X137440214Y-119423000D01*
X138043750Y-119423000D01*
X138139000Y-119327750D01*
X138139000Y-118669000D01*
X138119000Y-118669000D01*
X138119000Y-118415000D01*
X138139000Y-118415000D01*
X138139000Y-117756250D01*
X138043750Y-117661000D01*
X137440214Y-117661000D01*
X137387800Y-117682710D01*
X137387800Y-115570000D01*
X137351125Y-115385623D01*
X137246684Y-115229316D01*
X136738684Y-114721316D01*
X136582377Y-114616875D01*
X136517000Y-114603870D01*
X136517000Y-112727786D01*
X136517000Y-112324250D01*
X136421750Y-112229000D01*
X135763000Y-112229000D01*
X135763000Y-112937750D01*
X135858250Y-113033000D01*
X136060214Y-113033000D01*
X136211785Y-113033000D01*
X136351819Y-112974996D01*
X136458996Y-112867820D01*
X136517000Y-112727786D01*
X136517000Y-114603870D01*
X136398000Y-114580200D01*
X135509000Y-114580200D01*
X135509000Y-112937750D01*
X135509000Y-112229000D01*
X134850250Y-112229000D01*
X134755000Y-112324250D01*
X134755000Y-112727786D01*
X134813004Y-112867820D01*
X134920181Y-112974996D01*
X135060215Y-113033000D01*
X135211786Y-113033000D01*
X135413750Y-113033000D01*
X135509000Y-112937750D01*
X135509000Y-114580200D01*
X135351849Y-114580200D01*
X135351999Y-114409075D01*
X135240824Y-114140010D01*
X135035145Y-113933972D01*
X134766275Y-113822327D01*
X134678584Y-113822250D01*
X134366259Y-113509925D01*
X134366259Y-112952000D01*
X134334315Y-112787356D01*
X134239258Y-112642649D01*
X134095755Y-112545784D01*
X133926000Y-112511741D01*
X132926000Y-112511741D01*
X132761356Y-112543685D01*
X132616649Y-112638742D01*
X132519784Y-112782245D01*
X132485741Y-112952000D01*
X132485741Y-114452000D01*
X132510614Y-114580200D01*
X131085289Y-114580200D01*
X131107000Y-114527786D01*
X131107000Y-113924250D01*
X131107000Y-113479750D01*
X131107000Y-112876214D01*
X131048996Y-112736180D01*
X130941819Y-112629004D01*
X130801785Y-112571000D01*
X130650214Y-112571000D01*
X130448250Y-112571000D01*
X130353000Y-112666250D01*
X130353000Y-113575000D01*
X131011750Y-113575000D01*
X131107000Y-113479750D01*
X131107000Y-113924250D01*
X131011750Y-113829000D01*
X130353000Y-113829000D01*
X130353000Y-113849000D01*
X130099000Y-113849000D01*
X130099000Y-113829000D01*
X130099000Y-113575000D01*
X130099000Y-112666250D01*
X130003750Y-112571000D01*
X129801786Y-112571000D01*
X129650215Y-112571000D01*
X129510181Y-112629004D01*
X129403004Y-112736180D01*
X129345000Y-112876214D01*
X129345000Y-113479750D01*
X129440250Y-113575000D01*
X130099000Y-113575000D01*
X130099000Y-113829000D01*
X129440250Y-113829000D01*
X129345000Y-113924250D01*
X129345000Y-114527786D01*
X129366710Y-114580200D01*
X127477777Y-114580200D01*
X127477927Y-114409075D01*
X127366752Y-114140010D01*
X127161073Y-113933972D01*
X126892203Y-113822327D01*
X126804512Y-113822250D01*
X126125131Y-113142869D01*
X125943844Y-113021736D01*
X125730000Y-112979200D01*
X125190180Y-112979200D01*
X125129059Y-112917972D01*
X124860189Y-112806327D01*
X124569061Y-112806073D01*
X124299996Y-112917248D01*
X124093958Y-113122927D01*
X123982313Y-113391797D01*
X123982059Y-113682925D01*
X124093234Y-113951990D01*
X124298913Y-114158028D01*
X124567783Y-114269673D01*
X124858911Y-114269927D01*
X125127976Y-114158752D01*
X125190036Y-114096800D01*
X125498538Y-114096800D01*
X126014148Y-114612410D01*
X126014073Y-114698925D01*
X126125248Y-114967990D01*
X126330927Y-115174028D01*
X126422556Y-115212075D01*
X126405316Y-115229316D01*
X126300875Y-115385623D01*
X126264200Y-115570000D01*
X126264200Y-117627450D01*
X126136000Y-117601741D01*
X125953800Y-117601741D01*
X125953927Y-117457075D01*
X125842752Y-117188010D01*
X125637073Y-116981972D01*
X125368203Y-116870327D01*
X125077075Y-116870073D01*
X124808010Y-116981248D01*
X124717000Y-117072099D01*
X124717000Y-116653785D01*
X124717000Y-116502214D01*
X124717000Y-116300250D01*
X124717000Y-115855750D01*
X124717000Y-115653786D01*
X124717000Y-115502215D01*
X124658996Y-115362181D01*
X124551820Y-115255004D01*
X124411786Y-115197000D01*
X124008250Y-115197000D01*
X123913000Y-115292250D01*
X123913000Y-115951000D01*
X124621750Y-115951000D01*
X124717000Y-115855750D01*
X124717000Y-116300250D01*
X124621750Y-116205000D01*
X123913000Y-116205000D01*
X123913000Y-116863750D01*
X124008250Y-116959000D01*
X124411786Y-116959000D01*
X124551820Y-116900996D01*
X124658996Y-116793819D01*
X124717000Y-116653785D01*
X124717000Y-117072099D01*
X124601972Y-117186927D01*
X124490327Y-117455797D01*
X124490174Y-117630033D01*
X124471356Y-117633685D01*
X124326649Y-117728742D01*
X124229784Y-117872245D01*
X124195741Y-118042000D01*
X124195741Y-119042000D01*
X124227685Y-119206644D01*
X124322742Y-119351351D01*
X124466245Y-119448216D01*
X124636000Y-119482259D01*
X126136000Y-119482259D01*
X126264200Y-119457385D01*
X126264200Y-120882710D01*
X126211786Y-120861000D01*
X125608250Y-120861000D01*
X125513000Y-120956250D01*
X125513000Y-121615000D01*
X125533000Y-121615000D01*
X125533000Y-121869000D01*
X125513000Y-121869000D01*
X125513000Y-122527750D01*
X125608250Y-122623000D01*
X126211786Y-122623000D01*
X126264200Y-122601289D01*
X126264200Y-124714000D01*
X126300875Y-124898377D01*
X126405316Y-125054684D01*
X126913316Y-125562684D01*
X127069623Y-125667125D01*
X127254000Y-125703800D01*
X136398000Y-125703800D01*
X136582377Y-125667125D01*
X136738684Y-125562684D01*
X137246684Y-125054684D01*
X137351125Y-124898377D01*
X137387800Y-124714000D01*
X137387800Y-122656549D01*
X137516000Y-122682259D01*
X137707200Y-122682259D01*
X137707200Y-122768438D01*
X137698331Y-122789797D01*
X137698077Y-123080925D01*
X137809252Y-123349990D01*
X138014931Y-123556028D01*
X138283801Y-123667673D01*
X138574929Y-123667927D01*
X138843994Y-123556752D01*
X139050032Y-123351073D01*
X139161677Y-123082203D01*
X139161931Y-122791075D01*
X139109475Y-122664122D01*
X139180644Y-122650315D01*
X139325351Y-122555258D01*
X139422216Y-122411755D01*
X139456259Y-122242000D01*
X139456259Y-123325000D01*
X139240214Y-123325000D01*
X139100180Y-123383004D01*
X138993004Y-123490181D01*
X138935000Y-123630215D01*
X138935000Y-123781786D01*
X138935000Y-123983750D01*
X139030250Y-124079000D01*
X139739000Y-124079000D01*
X139739000Y-124333000D01*
X139030250Y-124333000D01*
X138935000Y-124428250D01*
X138935000Y-124630214D01*
X138935000Y-124781785D01*
X138993004Y-124921819D01*
X139100180Y-125028996D01*
X139240214Y-125087000D01*
X139643750Y-125087000D01*
X139739000Y-124991750D01*
X139739000Y-125299511D01*
X136771000Y-128465378D01*
X136771000Y-128404250D01*
X136771000Y-127959750D01*
X136771000Y-127556214D01*
X136712996Y-127416180D01*
X136605819Y-127309004D01*
X136465785Y-127251000D01*
X136314214Y-127251000D01*
X136112250Y-127251000D01*
X136017000Y-127346250D01*
X136017000Y-128055000D01*
X136675750Y-128055000D01*
X136771000Y-127959750D01*
X136771000Y-128404250D01*
X136675750Y-128309000D01*
X136017000Y-128309000D01*
X136017000Y-128329000D01*
X135763000Y-128329000D01*
X135763000Y-128309000D01*
X135743000Y-128309000D01*
X135743000Y-128055000D01*
X135763000Y-128055000D01*
X135763000Y-127346250D01*
X135667750Y-127251000D01*
X135466259Y-127251000D01*
X135466259Y-126932000D01*
X135434315Y-126767356D01*
X135339258Y-126622649D01*
X135195755Y-126525784D01*
X135026000Y-126491741D01*
X133526000Y-126491741D01*
X133361356Y-126523685D01*
X133216649Y-126618742D01*
X133119784Y-126762245D01*
X133085741Y-126932000D01*
X133085741Y-127932000D01*
X133092182Y-127965200D01*
X130507000Y-127965200D01*
X130507000Y-127856214D01*
X130507000Y-127654250D01*
X130507000Y-127209750D01*
X130507000Y-127007786D01*
X130507000Y-126856215D01*
X130448996Y-126716181D01*
X130341820Y-126609004D01*
X130201786Y-126551000D01*
X129598250Y-126551000D01*
X129503000Y-126646250D01*
X129503000Y-127305000D01*
X130411750Y-127305000D01*
X130507000Y-127209750D01*
X130507000Y-127654250D01*
X130411750Y-127559000D01*
X129503000Y-127559000D01*
X129503000Y-127579000D01*
X129249000Y-127579000D01*
X129249000Y-127559000D01*
X129249000Y-127305000D01*
X129249000Y-126646250D01*
X129153750Y-126551000D01*
X128550214Y-126551000D01*
X128410180Y-126609004D01*
X128303004Y-126716181D01*
X128245000Y-126856215D01*
X128245000Y-127007786D01*
X128245000Y-127209750D01*
X128340250Y-127305000D01*
X129249000Y-127305000D01*
X129249000Y-127559000D01*
X128340250Y-127559000D01*
X128245000Y-127654250D01*
X128245000Y-127856214D01*
X128245000Y-127965200D01*
X126977462Y-127965200D01*
X125259000Y-126246738D01*
X125259000Y-122527750D01*
X125259000Y-121869000D01*
X125259000Y-121615000D01*
X125259000Y-120956250D01*
X125163750Y-120861000D01*
X124560214Y-120861000D01*
X124420180Y-120919004D01*
X124313004Y-121026181D01*
X124255000Y-121166215D01*
X124255000Y-121317786D01*
X124255000Y-121519750D01*
X124350250Y-121615000D01*
X125259000Y-121615000D01*
X125259000Y-121869000D01*
X124350250Y-121869000D01*
X124255000Y-121964250D01*
X124255000Y-122166214D01*
X124255000Y-122317785D01*
X124313004Y-122457819D01*
X124420180Y-122564996D01*
X124560214Y-122623000D01*
X125163750Y-122623000D01*
X125259000Y-122527750D01*
X125259000Y-126246738D01*
X125018800Y-126006538D01*
X125018800Y-125698194D01*
X125080028Y-125637073D01*
X125191673Y-125368203D01*
X125191927Y-125077075D01*
X125080752Y-124808010D01*
X124875073Y-124601972D01*
X124606203Y-124490327D01*
X124315075Y-124490073D01*
X124046010Y-124601248D01*
X123839972Y-124806927D01*
X123803754Y-124894149D01*
X123317000Y-124407395D01*
X123317000Y-116959000D01*
X123563750Y-116959000D01*
X123659000Y-116863750D01*
X123659000Y-116205000D01*
X123639000Y-116205000D01*
X123639000Y-115951000D01*
X123659000Y-115951000D01*
X123659000Y-115292250D01*
X123563750Y-115197000D01*
X123317000Y-115197000D01*
X123317000Y-113739395D01*
X121959000Y-112381395D01*
X121959000Y-107211750D01*
X121959000Y-106553000D01*
X121959000Y-106299000D01*
X121959000Y-105640250D01*
X121863750Y-105545000D01*
X121460214Y-105545000D01*
X121320180Y-105603004D01*
X121213004Y-105710181D01*
X121155000Y-105850215D01*
X121155000Y-106001786D01*
X121155000Y-106203750D01*
X121250250Y-106299000D01*
X121959000Y-106299000D01*
X121959000Y-106553000D01*
X121250250Y-106553000D01*
X121155000Y-106648250D01*
X121155000Y-106850214D01*
X121155000Y-107001785D01*
X121213004Y-107141819D01*
X121320180Y-107248996D01*
X121460214Y-107307000D01*
X121863750Y-107307000D01*
X121959000Y-107211750D01*
X121959000Y-112381395D01*
X121570623Y-111993018D01*
X121603125Y-111944377D01*
X121639800Y-111760000D01*
X121639800Y-110744000D01*
X121603125Y-110559623D01*
X121498684Y-110403316D01*
X119607800Y-108512432D01*
X119607800Y-106086032D01*
X119741797Y-106141673D01*
X120032925Y-106141927D01*
X120301990Y-106030752D01*
X120508028Y-105825073D01*
X120619673Y-105556203D01*
X120619749Y-105468512D01*
X120881131Y-105207131D01*
X121002264Y-105025844D01*
X121002265Y-105025843D01*
X121026846Y-104902259D01*
X121236000Y-104902259D01*
X121400644Y-104870315D01*
X121545351Y-104775258D01*
X121642216Y-104631755D01*
X121676259Y-104462000D01*
X121676259Y-103462000D01*
X121644315Y-103297356D01*
X121617000Y-103255773D01*
X121617000Y-101337785D01*
X121617000Y-101186214D01*
X121617000Y-100984250D01*
X121617000Y-100539750D01*
X121617000Y-100337786D01*
X121617000Y-100186215D01*
X121558996Y-100046181D01*
X121451820Y-99939004D01*
X121311786Y-99881000D01*
X120708250Y-99881000D01*
X120613000Y-99976250D01*
X120613000Y-100635000D01*
X121521750Y-100635000D01*
X121617000Y-100539750D01*
X121617000Y-100984250D01*
X121521750Y-100889000D01*
X120613000Y-100889000D01*
X120613000Y-101547750D01*
X120708250Y-101643000D01*
X121311786Y-101643000D01*
X121451820Y-101584996D01*
X121558996Y-101477819D01*
X121617000Y-101337785D01*
X121617000Y-103255773D01*
X121549258Y-103152649D01*
X121405755Y-103055784D01*
X121236000Y-103021741D01*
X119736000Y-103021741D01*
X119607800Y-103046614D01*
X119607800Y-101621289D01*
X119660214Y-101643000D01*
X120263750Y-101643000D01*
X120359000Y-101547750D01*
X120359000Y-100889000D01*
X120339000Y-100889000D01*
X120339000Y-100635000D01*
X120359000Y-100635000D01*
X120359000Y-99976250D01*
X120263750Y-99881000D01*
X119660214Y-99881000D01*
X119607800Y-99902710D01*
X119607800Y-97989568D01*
X122123200Y-95474168D01*
X122123200Y-95789805D01*
X122061972Y-95850927D01*
X121950327Y-96119797D01*
X121950073Y-96410925D01*
X122061248Y-96679990D01*
X122266927Y-96886028D01*
X122535797Y-96997673D01*
X122826925Y-96997927D01*
X123095990Y-96886752D01*
X123302028Y-96681073D01*
X123413673Y-96412203D01*
X123413927Y-96121075D01*
X123302752Y-95852010D01*
X123240800Y-95789949D01*
X123240800Y-95227462D01*
X127485462Y-90982800D01*
X128292538Y-90982800D01*
X128726869Y-91417131D01*
X128908156Y-91538264D01*
X128908157Y-91538265D01*
X129122000Y-91580800D01*
X129285741Y-91580800D01*
X129285741Y-91772000D01*
X129317685Y-91936644D01*
X129412742Y-92081351D01*
X129556245Y-92178216D01*
X129726000Y-92212259D01*
X130726000Y-92212259D01*
X130890644Y-92180315D01*
X131035351Y-92085258D01*
X131132216Y-91941755D01*
X131166259Y-91772000D01*
X131166259Y-90272000D01*
X131141385Y-90143800D01*
X132566710Y-90143800D01*
X132545000Y-90196214D01*
X132545000Y-90799750D01*
X132640250Y-90895000D01*
X133299000Y-90895000D01*
X133299000Y-90875000D01*
X133553000Y-90875000D01*
X133553000Y-90895000D01*
X134211750Y-90895000D01*
X134307000Y-90799750D01*
X134307000Y-90196214D01*
X134285289Y-90143800D01*
X136198432Y-90143800D01*
X140491832Y-94437200D01*
X140176194Y-94437200D01*
X140115073Y-94375972D01*
X139846203Y-94264327D01*
X139555075Y-94264073D01*
X139286010Y-94375248D01*
X139079972Y-94580927D01*
X138968327Y-94849797D01*
X138968073Y-95140925D01*
X139079248Y-95409990D01*
X139284927Y-95616028D01*
X139553797Y-95727673D01*
X139844925Y-95727927D01*
X140113990Y-95616752D01*
X140176050Y-95554800D01*
X140738538Y-95554800D01*
X143459200Y-98275462D01*
X143459200Y-98924538D01*
X142770869Y-99612869D01*
X142649736Y-99794156D01*
X142644249Y-99821741D01*
X142497000Y-99821741D01*
X142497000Y-98873785D01*
X142497000Y-98722214D01*
X142497000Y-98520250D01*
X142497000Y-98075750D01*
X142497000Y-97873786D01*
X142497000Y-97722215D01*
X142438996Y-97582181D01*
X142331820Y-97475004D01*
X142191786Y-97417000D01*
X141788250Y-97417000D01*
X141693000Y-97512250D01*
X141693000Y-98171000D01*
X142401750Y-98171000D01*
X142497000Y-98075750D01*
X142497000Y-98520250D01*
X142401750Y-98425000D01*
X141693000Y-98425000D01*
X141693000Y-99083750D01*
X141788250Y-99179000D01*
X142191786Y-99179000D01*
X142331820Y-99120996D01*
X142438996Y-99013819D01*
X142497000Y-98873785D01*
X142497000Y-99821741D01*
X142416000Y-99821741D01*
X142251356Y-99853685D01*
X142106649Y-99948742D01*
X142009784Y-100092245D01*
X141975741Y-100262000D01*
X141975741Y-101262000D01*
X142007685Y-101426644D01*
X142102742Y-101571351D01*
X142246245Y-101668216D01*
X142416000Y-101702259D01*
X143916000Y-101702259D01*
X144044200Y-101677385D01*
X144044200Y-103102710D01*
X143991786Y-103081000D01*
X143388250Y-103081000D01*
X143293000Y-103176250D01*
X143293000Y-103835000D01*
X143313000Y-103835000D01*
X143313000Y-104089000D01*
X143293000Y-104089000D01*
X143293000Y-104747750D01*
X143388250Y-104843000D01*
X143991786Y-104843000D01*
X144044200Y-104821289D01*
X144044200Y-108512432D01*
X144044200Y-108512432D01*
G37*
X144044200Y-108512432D02*
X143039000Y-109517631D01*
X143039000Y-104747750D01*
X143039000Y-104089000D01*
X143039000Y-103835000D01*
X143039000Y-103176250D01*
X142943750Y-103081000D01*
X142340214Y-103081000D01*
X142200180Y-103139004D01*
X142093004Y-103246181D01*
X142035000Y-103386215D01*
X142035000Y-103537786D01*
X142035000Y-103739750D01*
X142130250Y-103835000D01*
X143039000Y-103835000D01*
X143039000Y-104089000D01*
X142130250Y-104089000D01*
X142035000Y-104184250D01*
X142035000Y-104386214D01*
X142035000Y-104537785D01*
X142093004Y-104677819D01*
X142200180Y-104784996D01*
X142340214Y-104843000D01*
X142943750Y-104843000D01*
X143039000Y-104747750D01*
X143039000Y-109517631D01*
X142497118Y-110059513D01*
X141097000Y-108659395D01*
X141097000Y-99179000D01*
X141343750Y-99179000D01*
X141439000Y-99083750D01*
X141439000Y-98425000D01*
X141419000Y-98425000D01*
X141419000Y-98171000D01*
X141439000Y-98171000D01*
X141439000Y-97512250D01*
X141343750Y-97417000D01*
X140940214Y-97417000D01*
X140824524Y-97464919D01*
X136450605Y-93091000D01*
X134307000Y-93091000D01*
X134307000Y-91847786D01*
X134307000Y-91244250D01*
X134211750Y-91149000D01*
X133553000Y-91149000D01*
X133553000Y-92057750D01*
X133648250Y-92153000D01*
X133850214Y-92153000D01*
X134001785Y-92153000D01*
X134141819Y-92094996D01*
X134248996Y-91987820D01*
X134307000Y-91847786D01*
X134307000Y-93091000D01*
X133299000Y-93091000D01*
X133299000Y-92057750D01*
X133299000Y-91149000D01*
X132640250Y-91149000D01*
X132545000Y-91244250D01*
X132545000Y-91847786D01*
X132603004Y-91987820D01*
X132710181Y-92094996D01*
X132850215Y-92153000D01*
X133001786Y-92153000D01*
X133203750Y-92153000D01*
X133299000Y-92057750D01*
X133299000Y-93091000D01*
X128643000Y-93091000D01*
X128643000Y-92844250D01*
X128643000Y-92399750D01*
X128643000Y-91996214D01*
X128584996Y-91856180D01*
X128477819Y-91749004D01*
X128337785Y-91691000D01*
X128186214Y-91691000D01*
X127984250Y-91691000D01*
X127889000Y-91786250D01*
X127889000Y-92495000D01*
X128547750Y-92495000D01*
X128643000Y-92399750D01*
X128643000Y-92844250D01*
X128547750Y-92749000D01*
X127889000Y-92749000D01*
X127889000Y-92769000D01*
X127635000Y-92769000D01*
X127635000Y-92749000D01*
X127635000Y-92495000D01*
X127635000Y-91786250D01*
X127539750Y-91691000D01*
X127337786Y-91691000D01*
X127186215Y-91691000D01*
X127046181Y-91749004D01*
X126939004Y-91856180D01*
X126881000Y-91996214D01*
X126881000Y-92399750D01*
X126976250Y-92495000D01*
X127635000Y-92495000D01*
X127635000Y-92749000D01*
X126976250Y-92749000D01*
X126881000Y-92844250D01*
X126881000Y-93247786D01*
X126928919Y-93363475D01*
X122555000Y-97737395D01*
X122555000Y-105545000D01*
X122308250Y-105545000D01*
X122213000Y-105640250D01*
X122213000Y-106299000D01*
X122233000Y-106299000D01*
X122233000Y-106553000D01*
X122213000Y-106553000D01*
X122213000Y-107211750D01*
X122308250Y-107307000D01*
X122555000Y-107307000D01*
X122555000Y-107494605D01*
X125245594Y-110185200D01*
X123666180Y-110185200D01*
X123605059Y-110123972D01*
X123336189Y-110012327D01*
X123045061Y-110012073D01*
X122775996Y-110123248D01*
X122569958Y-110328927D01*
X122458313Y-110597797D01*
X122458059Y-110888925D01*
X122569234Y-111157990D01*
X122774913Y-111364028D01*
X123043783Y-111475673D01*
X123334911Y-111475927D01*
X123603976Y-111364752D01*
X123666036Y-111302800D01*
X126363194Y-111302800D01*
X126693395Y-111633000D01*
X134755000Y-111633000D01*
X134755000Y-111879750D01*
X134850250Y-111975000D01*
X135509000Y-111975000D01*
X135509000Y-111955000D01*
X135763000Y-111955000D01*
X135763000Y-111975000D01*
X136421750Y-111975000D01*
X136517000Y-111879750D01*
X136517000Y-111633000D01*
X137107395Y-111633000D01*
X138714237Y-113239842D01*
X138714073Y-113428909D01*
X138825248Y-113697974D01*
X139030927Y-113904012D01*
X139299797Y-114015657D01*
X139490218Y-114015823D01*
X140335000Y-114860605D01*
X140335000Y-123325000D01*
X140088250Y-123325000D01*
X139993000Y-123420250D01*
X139993000Y-124079000D01*
X140013000Y-124079000D01*
X140013000Y-124333000D01*
X139993000Y-124333000D01*
X139993000Y-124991750D01*
X140010820Y-125009570D01*
X139739000Y-125299511D01*
X139739000Y-124991750D01*
X139739000Y-124333000D01*
X139739000Y-124079000D01*
X139739000Y-123420250D01*
X139643750Y-123325000D01*
X139456259Y-123325000D01*
X139456259Y-122242000D01*
X139456259Y-121242000D01*
X139424315Y-121077356D01*
X139397000Y-121035773D01*
X139397000Y-119117785D01*
X139397000Y-118966214D01*
X139397000Y-118764250D01*
X139397000Y-118319750D01*
X139397000Y-118117786D01*
X139397000Y-117966215D01*
X139338996Y-117826181D01*
X139231820Y-117719004D01*
X139091786Y-117661000D01*
X138488250Y-117661000D01*
X138393000Y-117756250D01*
X138393000Y-118415000D01*
X139301750Y-118415000D01*
X139397000Y-118319750D01*
X139397000Y-118764250D01*
X139301750Y-118669000D01*
X138393000Y-118669000D01*
X138393000Y-119327750D01*
X138488250Y-119423000D01*
X139091786Y-119423000D01*
X139231820Y-119364996D01*
X139338996Y-119257819D01*
X139397000Y-119117785D01*
X139397000Y-121035773D01*
X139329258Y-120932649D01*
X139185755Y-120835784D01*
X139016000Y-120801741D01*
X137516000Y-120801741D01*
X137387800Y-120826614D01*
X137387800Y-119401289D01*
X137440214Y-119423000D01*
X138043750Y-119423000D01*
X138139000Y-119327750D01*
X138139000Y-118669000D01*
X138119000Y-118669000D01*
X138119000Y-118415000D01*
X138139000Y-118415000D01*
X138139000Y-117756250D01*
X138043750Y-117661000D01*
X137440214Y-117661000D01*
X137387800Y-117682710D01*
X137387800Y-115570000D01*
X137351125Y-115385623D01*
X137246684Y-115229316D01*
X136738684Y-114721316D01*
X136582377Y-114616875D01*
X136517000Y-114603870D01*
X136517000Y-112727786D01*
X136517000Y-112324250D01*
X136421750Y-112229000D01*
X135763000Y-112229000D01*
X135763000Y-112937750D01*
X135858250Y-113033000D01*
X136060214Y-113033000D01*
X136211785Y-113033000D01*
X136351819Y-112974996D01*
X136458996Y-112867820D01*
X136517000Y-112727786D01*
X136517000Y-114603870D01*
X136398000Y-114580200D01*
X135509000Y-114580200D01*
X135509000Y-112937750D01*
X135509000Y-112229000D01*
X134850250Y-112229000D01*
X134755000Y-112324250D01*
X134755000Y-112727786D01*
X134813004Y-112867820D01*
X134920181Y-112974996D01*
X135060215Y-113033000D01*
X135211786Y-113033000D01*
X135413750Y-113033000D01*
X135509000Y-112937750D01*
X135509000Y-114580200D01*
X135351849Y-114580200D01*
X135351999Y-114409075D01*
X135240824Y-114140010D01*
X135035145Y-113933972D01*
X134766275Y-113822327D01*
X134678584Y-113822250D01*
X134366259Y-113509925D01*
X134366259Y-112952000D01*
X134334315Y-112787356D01*
X134239258Y-112642649D01*
X134095755Y-112545784D01*
X133926000Y-112511741D01*
X132926000Y-112511741D01*
X132761356Y-112543685D01*
X132616649Y-112638742D01*
X132519784Y-112782245D01*
X132485741Y-112952000D01*
X132485741Y-114452000D01*
X132510614Y-114580200D01*
X131085289Y-114580200D01*
X131107000Y-114527786D01*
X131107000Y-113924250D01*
X131107000Y-113479750D01*
X131107000Y-112876214D01*
X131048996Y-112736180D01*
X130941819Y-112629004D01*
X130801785Y-112571000D01*
X130650214Y-112571000D01*
X130448250Y-112571000D01*
X130353000Y-112666250D01*
X130353000Y-113575000D01*
X131011750Y-113575000D01*
X131107000Y-113479750D01*
X131107000Y-113924250D01*
X131011750Y-113829000D01*
X130353000Y-113829000D01*
X130353000Y-113849000D01*
X130099000Y-113849000D01*
X130099000Y-113829000D01*
X130099000Y-113575000D01*
X130099000Y-112666250D01*
X130003750Y-112571000D01*
X129801786Y-112571000D01*
X129650215Y-112571000D01*
X129510181Y-112629004D01*
X129403004Y-112736180D01*
X129345000Y-112876214D01*
X129345000Y-113479750D01*
X129440250Y-113575000D01*
X130099000Y-113575000D01*
X130099000Y-113829000D01*
X129440250Y-113829000D01*
X129345000Y-113924250D01*
X129345000Y-114527786D01*
X129366710Y-114580200D01*
X127477777Y-114580200D01*
X127477927Y-114409075D01*
X127366752Y-114140010D01*
X127161073Y-113933972D01*
X126892203Y-113822327D01*
X126804512Y-113822250D01*
X126125131Y-113142869D01*
X125943844Y-113021736D01*
X125730000Y-112979200D01*
X125190180Y-112979200D01*
X125129059Y-112917972D01*
X124860189Y-112806327D01*
X124569061Y-112806073D01*
X124299996Y-112917248D01*
X124093958Y-113122927D01*
X123982313Y-113391797D01*
X123982059Y-113682925D01*
X124093234Y-113951990D01*
X124298913Y-114158028D01*
X124567783Y-114269673D01*
X124858911Y-114269927D01*
X125127976Y-114158752D01*
X125190036Y-114096800D01*
X125498538Y-114096800D01*
X126014148Y-114612410D01*
X126014073Y-114698925D01*
X126125248Y-114967990D01*
X126330927Y-115174028D01*
X126422556Y-115212075D01*
X126405316Y-115229316D01*
X126300875Y-115385623D01*
X126264200Y-115570000D01*
X126264200Y-117627450D01*
X126136000Y-117601741D01*
X125953800Y-117601741D01*
X125953927Y-117457075D01*
X125842752Y-117188010D01*
X125637073Y-116981972D01*
X125368203Y-116870327D01*
X125077075Y-116870073D01*
X124808010Y-116981248D01*
X124717000Y-117072099D01*
X124717000Y-116653785D01*
X124717000Y-116502214D01*
X124717000Y-116300250D01*
X124717000Y-115855750D01*
X124717000Y-115653786D01*
X124717000Y-115502215D01*
X124658996Y-115362181D01*
X124551820Y-115255004D01*
X124411786Y-115197000D01*
X124008250Y-115197000D01*
X123913000Y-115292250D01*
X123913000Y-115951000D01*
X124621750Y-115951000D01*
X124717000Y-115855750D01*
X124717000Y-116300250D01*
X124621750Y-116205000D01*
X123913000Y-116205000D01*
X123913000Y-116863750D01*
X124008250Y-116959000D01*
X124411786Y-116959000D01*
X124551820Y-116900996D01*
X124658996Y-116793819D01*
X124717000Y-116653785D01*
X124717000Y-117072099D01*
X124601972Y-117186927D01*
X124490327Y-117455797D01*
X124490174Y-117630033D01*
X124471356Y-117633685D01*
X124326649Y-117728742D01*
X124229784Y-117872245D01*
X124195741Y-118042000D01*
X124195741Y-119042000D01*
X124227685Y-119206644D01*
X124322742Y-119351351D01*
X124466245Y-119448216D01*
X124636000Y-119482259D01*
X126136000Y-119482259D01*
X126264200Y-119457385D01*
X126264200Y-120882710D01*
X126211786Y-120861000D01*
X125608250Y-120861000D01*
X125513000Y-120956250D01*
X125513000Y-121615000D01*
X125533000Y-121615000D01*
X125533000Y-121869000D01*
X125513000Y-121869000D01*
X125513000Y-122527750D01*
X125608250Y-122623000D01*
X126211786Y-122623000D01*
X126264200Y-122601289D01*
X126264200Y-124714000D01*
X126300875Y-124898377D01*
X126405316Y-125054684D01*
X126913316Y-125562684D01*
X127069623Y-125667125D01*
X127254000Y-125703800D01*
X136398000Y-125703800D01*
X136582377Y-125667125D01*
X136738684Y-125562684D01*
X137246684Y-125054684D01*
X137351125Y-124898377D01*
X137387800Y-124714000D01*
X137387800Y-122656549D01*
X137516000Y-122682259D01*
X137707200Y-122682259D01*
X137707200Y-122768438D01*
X137698331Y-122789797D01*
X137698077Y-123080925D01*
X137809252Y-123349990D01*
X138014931Y-123556028D01*
X138283801Y-123667673D01*
X138574929Y-123667927D01*
X138843994Y-123556752D01*
X139050032Y-123351073D01*
X139161677Y-123082203D01*
X139161931Y-122791075D01*
X139109475Y-122664122D01*
X139180644Y-122650315D01*
X139325351Y-122555258D01*
X139422216Y-122411755D01*
X139456259Y-122242000D01*
X139456259Y-123325000D01*
X139240214Y-123325000D01*
X139100180Y-123383004D01*
X138993004Y-123490181D01*
X138935000Y-123630215D01*
X138935000Y-123781786D01*
X138935000Y-123983750D01*
X139030250Y-124079000D01*
X139739000Y-124079000D01*
X139739000Y-124333000D01*
X139030250Y-124333000D01*
X138935000Y-124428250D01*
X138935000Y-124630214D01*
X138935000Y-124781785D01*
X138993004Y-124921819D01*
X139100180Y-125028996D01*
X139240214Y-125087000D01*
X139643750Y-125087000D01*
X139739000Y-124991750D01*
X139739000Y-125299511D01*
X136771000Y-128465378D01*
X136771000Y-128404250D01*
X136771000Y-127959750D01*
X136771000Y-127556214D01*
X136712996Y-127416180D01*
X136605819Y-127309004D01*
X136465785Y-127251000D01*
X136314214Y-127251000D01*
X136112250Y-127251000D01*
X136017000Y-127346250D01*
X136017000Y-128055000D01*
X136675750Y-128055000D01*
X136771000Y-127959750D01*
X136771000Y-128404250D01*
X136675750Y-128309000D01*
X136017000Y-128309000D01*
X136017000Y-128329000D01*
X135763000Y-128329000D01*
X135763000Y-128309000D01*
X135743000Y-128309000D01*
X135743000Y-128055000D01*
X135763000Y-128055000D01*
X135763000Y-127346250D01*
X135667750Y-127251000D01*
X135466259Y-127251000D01*
X135466259Y-126932000D01*
X135434315Y-126767356D01*
X135339258Y-126622649D01*
X135195755Y-126525784D01*
X135026000Y-126491741D01*
X133526000Y-126491741D01*
X133361356Y-126523685D01*
X133216649Y-126618742D01*
X133119784Y-126762245D01*
X133085741Y-126932000D01*
X133085741Y-127932000D01*
X133092182Y-127965200D01*
X130507000Y-127965200D01*
X130507000Y-127856214D01*
X130507000Y-127654250D01*
X130507000Y-127209750D01*
X130507000Y-127007786D01*
X130507000Y-126856215D01*
X130448996Y-126716181D01*
X130341820Y-126609004D01*
X130201786Y-126551000D01*
X129598250Y-126551000D01*
X129503000Y-126646250D01*
X129503000Y-127305000D01*
X130411750Y-127305000D01*
X130507000Y-127209750D01*
X130507000Y-127654250D01*
X130411750Y-127559000D01*
X129503000Y-127559000D01*
X129503000Y-127579000D01*
X129249000Y-127579000D01*
X129249000Y-127559000D01*
X129249000Y-127305000D01*
X129249000Y-126646250D01*
X129153750Y-126551000D01*
X128550214Y-126551000D01*
X128410180Y-126609004D01*
X128303004Y-126716181D01*
X128245000Y-126856215D01*
X128245000Y-127007786D01*
X128245000Y-127209750D01*
X128340250Y-127305000D01*
X129249000Y-127305000D01*
X129249000Y-127559000D01*
X128340250Y-127559000D01*
X128245000Y-127654250D01*
X128245000Y-127856214D01*
X128245000Y-127965200D01*
X126977462Y-127965200D01*
X125259000Y-126246738D01*
X125259000Y-122527750D01*
X125259000Y-121869000D01*
X125259000Y-121615000D01*
X125259000Y-120956250D01*
X125163750Y-120861000D01*
X124560214Y-120861000D01*
X124420180Y-120919004D01*
X124313004Y-121026181D01*
X124255000Y-121166215D01*
X124255000Y-121317786D01*
X124255000Y-121519750D01*
X124350250Y-121615000D01*
X125259000Y-121615000D01*
X125259000Y-121869000D01*
X124350250Y-121869000D01*
X124255000Y-121964250D01*
X124255000Y-122166214D01*
X124255000Y-122317785D01*
X124313004Y-122457819D01*
X124420180Y-122564996D01*
X124560214Y-122623000D01*
X125163750Y-122623000D01*
X125259000Y-122527750D01*
X125259000Y-126246738D01*
X125018800Y-126006538D01*
X125018800Y-125698194D01*
X125080028Y-125637073D01*
X125191673Y-125368203D01*
X125191927Y-125077075D01*
X125080752Y-124808010D01*
X124875073Y-124601972D01*
X124606203Y-124490327D01*
X124315075Y-124490073D01*
X124046010Y-124601248D01*
X123839972Y-124806927D01*
X123803754Y-124894149D01*
X123317000Y-124407395D01*
X123317000Y-116959000D01*
X123563750Y-116959000D01*
X123659000Y-116863750D01*
X123659000Y-116205000D01*
X123639000Y-116205000D01*
X123639000Y-115951000D01*
X123659000Y-115951000D01*
X123659000Y-115292250D01*
X123563750Y-115197000D01*
X123317000Y-115197000D01*
X123317000Y-113739395D01*
X121959000Y-112381395D01*
X121959000Y-107211750D01*
X121959000Y-106553000D01*
X121959000Y-106299000D01*
X121959000Y-105640250D01*
X121863750Y-105545000D01*
X121460214Y-105545000D01*
X121320180Y-105603004D01*
X121213004Y-105710181D01*
X121155000Y-105850215D01*
X121155000Y-106001786D01*
X121155000Y-106203750D01*
X121250250Y-106299000D01*
X121959000Y-106299000D01*
X121959000Y-106553000D01*
X121250250Y-106553000D01*
X121155000Y-106648250D01*
X121155000Y-106850214D01*
X121155000Y-107001785D01*
X121213004Y-107141819D01*
X121320180Y-107248996D01*
X121460214Y-107307000D01*
X121863750Y-107307000D01*
X121959000Y-107211750D01*
X121959000Y-112381395D01*
X121570623Y-111993018D01*
X121603125Y-111944377D01*
X121639800Y-111760000D01*
X121639800Y-110744000D01*
X121603125Y-110559623D01*
X121498684Y-110403316D01*
X119607800Y-108512432D01*
X119607800Y-106086032D01*
X119741797Y-106141673D01*
X120032925Y-106141927D01*
X120301990Y-106030752D01*
X120508028Y-105825073D01*
X120619673Y-105556203D01*
X120619749Y-105468512D01*
X120881131Y-105207131D01*
X121002264Y-105025844D01*
X121002265Y-105025843D01*
X121026846Y-104902259D01*
X121236000Y-104902259D01*
X121400644Y-104870315D01*
X121545351Y-104775258D01*
X121642216Y-104631755D01*
X121676259Y-104462000D01*
X121676259Y-103462000D01*
X121644315Y-103297356D01*
X121617000Y-103255773D01*
X121617000Y-101337785D01*
X121617000Y-101186214D01*
X121617000Y-100984250D01*
X121617000Y-100539750D01*
X121617000Y-100337786D01*
X121617000Y-100186215D01*
X121558996Y-100046181D01*
X121451820Y-99939004D01*
X121311786Y-99881000D01*
X120708250Y-99881000D01*
X120613000Y-99976250D01*
X120613000Y-100635000D01*
X121521750Y-100635000D01*
X121617000Y-100539750D01*
X121617000Y-100984250D01*
X121521750Y-100889000D01*
X120613000Y-100889000D01*
X120613000Y-101547750D01*
X120708250Y-101643000D01*
X121311786Y-101643000D01*
X121451820Y-101584996D01*
X121558996Y-101477819D01*
X121617000Y-101337785D01*
X121617000Y-103255773D01*
X121549258Y-103152649D01*
X121405755Y-103055784D01*
X121236000Y-103021741D01*
X119736000Y-103021741D01*
X119607800Y-103046614D01*
X119607800Y-101621289D01*
X119660214Y-101643000D01*
X120263750Y-101643000D01*
X120359000Y-101547750D01*
X120359000Y-100889000D01*
X120339000Y-100889000D01*
X120339000Y-100635000D01*
X120359000Y-100635000D01*
X120359000Y-99976250D01*
X120263750Y-99881000D01*
X119660214Y-99881000D01*
X119607800Y-99902710D01*
X119607800Y-97989568D01*
X122123200Y-95474168D01*
X122123200Y-95789805D01*
X122061972Y-95850927D01*
X121950327Y-96119797D01*
X121950073Y-96410925D01*
X122061248Y-96679990D01*
X122266927Y-96886028D01*
X122535797Y-96997673D01*
X122826925Y-96997927D01*
X123095990Y-96886752D01*
X123302028Y-96681073D01*
X123413673Y-96412203D01*
X123413927Y-96121075D01*
X123302752Y-95852010D01*
X123240800Y-95789949D01*
X123240800Y-95227462D01*
X127485462Y-90982800D01*
X128292538Y-90982800D01*
X128726869Y-91417131D01*
X128908156Y-91538264D01*
X128908157Y-91538265D01*
X129122000Y-91580800D01*
X129285741Y-91580800D01*
X129285741Y-91772000D01*
X129317685Y-91936644D01*
X129412742Y-92081351D01*
X129556245Y-92178216D01*
X129726000Y-92212259D01*
X130726000Y-92212259D01*
X130890644Y-92180315D01*
X131035351Y-92085258D01*
X131132216Y-91941755D01*
X131166259Y-91772000D01*
X131166259Y-90272000D01*
X131141385Y-90143800D01*
X132566710Y-90143800D01*
X132545000Y-90196214D01*
X132545000Y-90799750D01*
X132640250Y-90895000D01*
X133299000Y-90895000D01*
X133299000Y-90875000D01*
X133553000Y-90875000D01*
X133553000Y-90895000D01*
X134211750Y-90895000D01*
X134307000Y-90799750D01*
X134307000Y-90196214D01*
X134285289Y-90143800D01*
X136198432Y-90143800D01*
X140491832Y-94437200D01*
X140176194Y-94437200D01*
X140115073Y-94375972D01*
X139846203Y-94264327D01*
X139555075Y-94264073D01*
X139286010Y-94375248D01*
X139079972Y-94580927D01*
X138968327Y-94849797D01*
X138968073Y-95140925D01*
X139079248Y-95409990D01*
X139284927Y-95616028D01*
X139553797Y-95727673D01*
X139844925Y-95727927D01*
X140113990Y-95616752D01*
X140176050Y-95554800D01*
X140738538Y-95554800D01*
X143459200Y-98275462D01*
X143459200Y-98924538D01*
X142770869Y-99612869D01*
X142649736Y-99794156D01*
X142644249Y-99821741D01*
X142497000Y-99821741D01*
X142497000Y-98873785D01*
X142497000Y-98722214D01*
X142497000Y-98520250D01*
X142497000Y-98075750D01*
X142497000Y-97873786D01*
X142497000Y-97722215D01*
X142438996Y-97582181D01*
X142331820Y-97475004D01*
X142191786Y-97417000D01*
X141788250Y-97417000D01*
X141693000Y-97512250D01*
X141693000Y-98171000D01*
X142401750Y-98171000D01*
X142497000Y-98075750D01*
X142497000Y-98520250D01*
X142401750Y-98425000D01*
X141693000Y-98425000D01*
X141693000Y-99083750D01*
X141788250Y-99179000D01*
X142191786Y-99179000D01*
X142331820Y-99120996D01*
X142438996Y-99013819D01*
X142497000Y-98873785D01*
X142497000Y-99821741D01*
X142416000Y-99821741D01*
X142251356Y-99853685D01*
X142106649Y-99948742D01*
X142009784Y-100092245D01*
X141975741Y-100262000D01*
X141975741Y-101262000D01*
X142007685Y-101426644D01*
X142102742Y-101571351D01*
X142246245Y-101668216D01*
X142416000Y-101702259D01*
X143916000Y-101702259D01*
X144044200Y-101677385D01*
X144044200Y-103102710D01*
X143991786Y-103081000D01*
X143388250Y-103081000D01*
X143293000Y-103176250D01*
X143293000Y-103835000D01*
X143313000Y-103835000D01*
X143313000Y-104089000D01*
X143293000Y-104089000D01*
X143293000Y-104747750D01*
X143388250Y-104843000D01*
X143991786Y-104843000D01*
X144044200Y-104821289D01*
X144044200Y-108512432D01*
G36*
X144044200Y-124514432D02*
X143039000Y-125519632D01*
X143039000Y-122527750D01*
X143039000Y-121869000D01*
X143039000Y-121615000D01*
X143039000Y-120956250D01*
X142943750Y-120861000D01*
X142340214Y-120861000D01*
X142200180Y-120919004D01*
X142093004Y-121026181D01*
X142035000Y-121166215D01*
X142035000Y-121317786D01*
X142035000Y-121519750D01*
X142130250Y-121615000D01*
X143039000Y-121615000D01*
X143039000Y-121869000D01*
X142130250Y-121869000D01*
X142035000Y-121964250D01*
X142035000Y-122166214D01*
X142035000Y-122317785D01*
X142093004Y-122457819D01*
X142200180Y-122564996D01*
X142340214Y-122623000D01*
X142943750Y-122623000D01*
X143039000Y-122527750D01*
X143039000Y-125519632D01*
X142497000Y-126061632D01*
X142497000Y-124781785D01*
X142497000Y-124630214D01*
X142497000Y-124428250D01*
X142497000Y-123983750D01*
X142497000Y-123781786D01*
X142497000Y-123630215D01*
X142438996Y-123490181D01*
X142331820Y-123383004D01*
X142191786Y-123325000D01*
X141788250Y-123325000D01*
X141693000Y-123420250D01*
X141693000Y-124079000D01*
X142401750Y-124079000D01*
X142497000Y-123983750D01*
X142497000Y-124428250D01*
X142401750Y-124333000D01*
X141693000Y-124333000D01*
X141693000Y-124991750D01*
X141788250Y-125087000D01*
X142191786Y-125087000D01*
X142331820Y-125028996D01*
X142438996Y-124921819D01*
X142497000Y-124781785D01*
X142497000Y-126061632D01*
X136771000Y-131787632D01*
X136771000Y-130507786D01*
X136771000Y-130104250D01*
X136675750Y-130009000D01*
X136017000Y-130009000D01*
X136017000Y-130717750D01*
X136112250Y-130813000D01*
X136314214Y-130813000D01*
X136465785Y-130813000D01*
X136605819Y-130754996D01*
X136712996Y-130647820D01*
X136771000Y-130507786D01*
X136771000Y-131787632D01*
X136198432Y-132360200D01*
X134149000Y-132360200D01*
X134149000Y-131417750D01*
X134149000Y-130759000D01*
X134149000Y-130505000D01*
X134149000Y-129846250D01*
X134053750Y-129751000D01*
X133450214Y-129751000D01*
X133310180Y-129809004D01*
X133203004Y-129916181D01*
X133145000Y-130056215D01*
X133145000Y-130207786D01*
X133145000Y-130409750D01*
X133240250Y-130505000D01*
X134149000Y-130505000D01*
X134149000Y-130759000D01*
X133240250Y-130759000D01*
X133145000Y-130854250D01*
X133145000Y-131056214D01*
X133145000Y-131207785D01*
X133203004Y-131347819D01*
X133310180Y-131454996D01*
X133450214Y-131513000D01*
X134053750Y-131513000D01*
X134149000Y-131417750D01*
X134149000Y-132360200D01*
X130470032Y-132360200D01*
X130525673Y-132226203D01*
X130525927Y-131935075D01*
X130414752Y-131666010D01*
X130289497Y-131540537D01*
X130290644Y-131540315D01*
X130435351Y-131445258D01*
X130532216Y-131301755D01*
X130566259Y-131132000D01*
X130566259Y-130132000D01*
X130534315Y-129967356D01*
X130439258Y-129822649D01*
X130295755Y-129725784D01*
X130126000Y-129691741D01*
X128626000Y-129691741D01*
X128461356Y-129723685D01*
X128316649Y-129818742D01*
X128219784Y-129962245D01*
X128185741Y-130132000D01*
X128185741Y-131132000D01*
X128217685Y-131296644D01*
X128312742Y-131441351D01*
X128456245Y-131538216D01*
X128626000Y-131572259D01*
X128817200Y-131572259D01*
X128817200Y-131662000D01*
X128859736Y-131875844D01*
X128980869Y-132057131D01*
X129062148Y-132138410D01*
X129062073Y-132224925D01*
X129117967Y-132360200D01*
X127453568Y-132360200D01*
X121959000Y-126865632D01*
X121959000Y-116863750D01*
X121959000Y-116205000D01*
X121959000Y-115951000D01*
X121959000Y-115292250D01*
X121863750Y-115197000D01*
X121460214Y-115197000D01*
X121320180Y-115255004D01*
X121213004Y-115362181D01*
X121155000Y-115502215D01*
X121155000Y-115653786D01*
X121155000Y-115855750D01*
X121250250Y-115951000D01*
X121959000Y-115951000D01*
X121959000Y-116205000D01*
X121250250Y-116205000D01*
X121155000Y-116300250D01*
X121155000Y-116502214D01*
X121155000Y-116653785D01*
X121213004Y-116793819D01*
X121320180Y-116900996D01*
X121460214Y-116959000D01*
X121863750Y-116959000D01*
X121959000Y-116863750D01*
X121959000Y-126865632D01*
X119607800Y-124514432D01*
X119607800Y-122656549D01*
X119736000Y-122682259D01*
X119959872Y-122682259D01*
X119959873Y-122682259D01*
X119969736Y-122731844D01*
X120090869Y-122913131D01*
X120426148Y-123248410D01*
X120426073Y-123334925D01*
X120537248Y-123603990D01*
X120742927Y-123810028D01*
X121011797Y-123921673D01*
X121302925Y-123921927D01*
X121571990Y-123810752D01*
X121778028Y-123605073D01*
X121889673Y-123336203D01*
X121889927Y-123045075D01*
X121778752Y-122776010D01*
X121573073Y-122569972D01*
X121542363Y-122557220D01*
X121545351Y-122555258D01*
X121642216Y-122411755D01*
X121676259Y-122242000D01*
X121676259Y-121242000D01*
X121644315Y-121077356D01*
X121617000Y-121035773D01*
X121617000Y-119117785D01*
X121617000Y-118966214D01*
X121617000Y-118764250D01*
X121617000Y-118319750D01*
X121617000Y-118117786D01*
X121617000Y-117966215D01*
X121558996Y-117826181D01*
X121451820Y-117719004D01*
X121311786Y-117661000D01*
X120708250Y-117661000D01*
X120613000Y-117756250D01*
X120613000Y-118415000D01*
X121521750Y-118415000D01*
X121617000Y-118319750D01*
X121617000Y-118764250D01*
X121521750Y-118669000D01*
X120613000Y-118669000D01*
X120613000Y-119327750D01*
X120708250Y-119423000D01*
X121311786Y-119423000D01*
X121451820Y-119364996D01*
X121558996Y-119257819D01*
X121617000Y-119117785D01*
X121617000Y-121035773D01*
X121549258Y-120932649D01*
X121405755Y-120835784D01*
X121236000Y-120801741D01*
X119736000Y-120801741D01*
X119607800Y-120826614D01*
X119607800Y-119401289D01*
X119660214Y-119423000D01*
X120263750Y-119423000D01*
X120359000Y-119327750D01*
X120359000Y-118669000D01*
X120339000Y-118669000D01*
X120339000Y-118415000D01*
X120359000Y-118415000D01*
X120359000Y-117756250D01*
X120263750Y-117661000D01*
X119660214Y-117661000D01*
X119607800Y-117682710D01*
X119607800Y-113991568D01*
X121027881Y-112571486D01*
X122555000Y-114098605D01*
X122555000Y-115197000D01*
X122308250Y-115197000D01*
X122213000Y-115292250D01*
X122213000Y-115951000D01*
X122233000Y-115951000D01*
X122233000Y-116205000D01*
X122213000Y-116205000D01*
X122213000Y-116863750D01*
X122308250Y-116959000D01*
X122555000Y-116959000D01*
X122555000Y-124766605D01*
X123901200Y-126112805D01*
X123901200Y-126238000D01*
X123943736Y-126451844D01*
X124064869Y-126633131D01*
X126350869Y-128919131D01*
X126532156Y-129040264D01*
X126532157Y-129040264D01*
X126746000Y-129082800D01*
X133938000Y-129082800D01*
X134151843Y-129040264D01*
X134151844Y-129040264D01*
X134333131Y-128919131D01*
X134347262Y-128905000D01*
X134821395Y-128905000D01*
X135056919Y-129140524D01*
X135009000Y-129256214D01*
X135009000Y-129659750D01*
X135100250Y-129751000D01*
X134498250Y-129751000D01*
X134403000Y-129846250D01*
X134403000Y-130505000D01*
X134423000Y-130505000D01*
X134423000Y-130759000D01*
X134403000Y-130759000D01*
X134403000Y-131417750D01*
X134498250Y-131513000D01*
X135101786Y-131513000D01*
X135241820Y-131454996D01*
X135348996Y-131347819D01*
X135407000Y-131207785D01*
X135407000Y-131056214D01*
X135407000Y-130854250D01*
X135365750Y-130813000D01*
X135465786Y-130813000D01*
X135667750Y-130813000D01*
X135763000Y-130717750D01*
X135763000Y-130009000D01*
X135743000Y-130009000D01*
X135743000Y-129755000D01*
X135763000Y-129755000D01*
X135763000Y-129735000D01*
X136017000Y-129735000D01*
X136017000Y-129755000D01*
X136675750Y-129755000D01*
X136771000Y-129659750D01*
X136771000Y-129346605D01*
X141030605Y-125087000D01*
X141343750Y-125087000D01*
X141439000Y-124991750D01*
X141439000Y-124333000D01*
X141419000Y-124333000D01*
X141419000Y-124079000D01*
X141439000Y-124079000D01*
X141439000Y-123420250D01*
X141343750Y-123325000D01*
X141097000Y-123325000D01*
X141097000Y-114501395D01*
X140133110Y-113537505D01*
X140177673Y-113430187D01*
X140177927Y-113139059D01*
X140066752Y-112869994D01*
X140004800Y-112807933D01*
X140004800Y-110490000D01*
X139962264Y-110276156D01*
X139841131Y-110094869D01*
X139841131Y-110094868D01*
X139739000Y-109992737D01*
X139739000Y-99083750D01*
X139739000Y-98425000D01*
X139030250Y-98425000D01*
X138935000Y-98520250D01*
X138935000Y-98722214D01*
X138935000Y-98873785D01*
X138993004Y-99013819D01*
X139100180Y-99120996D01*
X139240214Y-99179000D01*
X139643750Y-99179000D01*
X139739000Y-99083750D01*
X139739000Y-109992737D01*
X139456259Y-109709996D01*
X139456259Y-104462000D01*
X139456259Y-103462000D01*
X139424315Y-103297356D01*
X139397000Y-103255773D01*
X139397000Y-101337785D01*
X139397000Y-101186214D01*
X139397000Y-100984250D01*
X139397000Y-100539750D01*
X139397000Y-100337786D01*
X139397000Y-100186215D01*
X139338996Y-100046181D01*
X139231820Y-99939004D01*
X139091786Y-99881000D01*
X138488250Y-99881000D01*
X138393000Y-99976250D01*
X138393000Y-100635000D01*
X139301750Y-100635000D01*
X139397000Y-100539750D01*
X139397000Y-100984250D01*
X139301750Y-100889000D01*
X138393000Y-100889000D01*
X138393000Y-101547750D01*
X138488250Y-101643000D01*
X139091786Y-101643000D01*
X139231820Y-101584996D01*
X139338996Y-101477819D01*
X139397000Y-101337785D01*
X139397000Y-103255773D01*
X139329258Y-103152649D01*
X139185755Y-103055784D01*
X139016000Y-103021741D01*
X137516000Y-103021741D01*
X137387800Y-103046614D01*
X137387800Y-101621289D01*
X137440214Y-101643000D01*
X138043750Y-101643000D01*
X138139000Y-101547750D01*
X138139000Y-100889000D01*
X138119000Y-100889000D01*
X138119000Y-100635000D01*
X138139000Y-100635000D01*
X138139000Y-99976250D01*
X138043750Y-99881000D01*
X137440214Y-99881000D01*
X137387800Y-99902710D01*
X137387800Y-97790000D01*
X137351125Y-97605623D01*
X137246684Y-97449316D01*
X136738684Y-96941316D01*
X136582377Y-96836875D01*
X136398000Y-96800200D01*
X134340549Y-96800200D01*
X134366259Y-96672000D01*
X134366259Y-95772003D01*
X134583462Y-95554800D01*
X134651805Y-95554800D01*
X134712927Y-95616028D01*
X134981797Y-95727673D01*
X135272925Y-95727927D01*
X135541990Y-95616752D01*
X135748028Y-95411073D01*
X135859673Y-95142203D01*
X135859927Y-94851075D01*
X135748752Y-94582010D01*
X135543073Y-94375972D01*
X135274203Y-94264327D01*
X134983075Y-94264073D01*
X134714010Y-94375248D01*
X134651949Y-94437200D01*
X134352000Y-94437200D01*
X134138156Y-94479736D01*
X133956869Y-94600869D01*
X133825997Y-94731741D01*
X132926000Y-94731741D01*
X132761356Y-94763685D01*
X132616649Y-94858742D01*
X132519784Y-95002245D01*
X132485741Y-95172000D01*
X132485741Y-96672000D01*
X132510614Y-96800200D01*
X131085289Y-96800200D01*
X131107000Y-96747786D01*
X131107000Y-96144250D01*
X131107000Y-95699750D01*
X131107000Y-95096214D01*
X131048996Y-94956180D01*
X130941819Y-94849004D01*
X130801785Y-94791000D01*
X130650214Y-94791000D01*
X130448250Y-94791000D01*
X130353000Y-94886250D01*
X130353000Y-95795000D01*
X131011750Y-95795000D01*
X131107000Y-95699750D01*
X131107000Y-96144250D01*
X131011750Y-96049000D01*
X130353000Y-96049000D01*
X130353000Y-96069000D01*
X130099000Y-96069000D01*
X130099000Y-96049000D01*
X130099000Y-95795000D01*
X130099000Y-94886250D01*
X130003750Y-94791000D01*
X129801786Y-94791000D01*
X129650215Y-94791000D01*
X129510181Y-94849004D01*
X129403004Y-94956180D01*
X129345000Y-95096214D01*
X129345000Y-95699750D01*
X129440250Y-95795000D01*
X130099000Y-95795000D01*
X130099000Y-96049000D01*
X129440250Y-96049000D01*
X129345000Y-96144250D01*
X129345000Y-96747786D01*
X129366710Y-96800200D01*
X128643000Y-96800200D01*
X128643000Y-94947786D01*
X128643000Y-94544250D01*
X128547750Y-94449000D01*
X127889000Y-94449000D01*
X127889000Y-95157750D01*
X127984250Y-95253000D01*
X128186214Y-95253000D01*
X128337785Y-95253000D01*
X128477819Y-95194996D01*
X128584996Y-95087820D01*
X128643000Y-94947786D01*
X128643000Y-96800200D01*
X127635000Y-96800200D01*
X127254000Y-96800200D01*
X127069623Y-96836875D01*
X126913316Y-96941316D01*
X126405316Y-97449316D01*
X126300875Y-97605623D01*
X126264200Y-97790000D01*
X126264200Y-99847450D01*
X126136000Y-99821741D01*
X125944800Y-99821741D01*
X125944800Y-99732000D01*
X125902264Y-99518157D01*
X125902264Y-99518156D01*
X125781131Y-99336869D01*
X125526800Y-99082538D01*
X125526800Y-99028194D01*
X125588028Y-98967073D01*
X125699673Y-98698203D01*
X125699927Y-98407075D01*
X125588752Y-98138010D01*
X125383073Y-97931972D01*
X125114203Y-97820327D01*
X124823075Y-97820073D01*
X124554010Y-97931248D01*
X124347972Y-98136927D01*
X124236327Y-98405797D01*
X124236073Y-98696925D01*
X124347248Y-98965990D01*
X124409200Y-99028050D01*
X124409200Y-99314000D01*
X124451736Y-99527844D01*
X124572869Y-99709131D01*
X124685479Y-99821741D01*
X124636000Y-99821741D01*
X124471356Y-99853685D01*
X124326649Y-99948742D01*
X124229784Y-100092245D01*
X124195741Y-100262000D01*
X124195741Y-101262000D01*
X124227685Y-101426644D01*
X124322742Y-101571351D01*
X124466245Y-101668216D01*
X124636000Y-101702259D01*
X126136000Y-101702259D01*
X126264200Y-101677385D01*
X126264200Y-103102710D01*
X126211786Y-103081000D01*
X125608250Y-103081000D01*
X125513000Y-103176250D01*
X125513000Y-103835000D01*
X125533000Y-103835000D01*
X125533000Y-104089000D01*
X125513000Y-104089000D01*
X125513000Y-104747750D01*
X125608250Y-104843000D01*
X126211786Y-104843000D01*
X126264200Y-104821289D01*
X126264200Y-106934000D01*
X126300875Y-107118377D01*
X126405316Y-107274684D01*
X126913316Y-107782684D01*
X127069623Y-107887125D01*
X127254000Y-107923800D01*
X128101967Y-107923800D01*
X128046327Y-108057797D01*
X128046073Y-108348925D01*
X128157248Y-108617990D01*
X128362927Y-108824028D01*
X128631797Y-108935673D01*
X128719487Y-108935749D01*
X128980869Y-109197131D01*
X129162156Y-109318264D01*
X129162157Y-109318265D01*
X129285741Y-109342846D01*
X129285741Y-109552000D01*
X129317685Y-109716644D01*
X129412742Y-109861351D01*
X129556245Y-109958216D01*
X129726000Y-109992259D01*
X130726000Y-109992259D01*
X130890644Y-109960315D01*
X131035351Y-109865258D01*
X131132216Y-109721755D01*
X131166259Y-109552000D01*
X131166259Y-108052000D01*
X131141385Y-107923800D01*
X132566710Y-107923800D01*
X132545000Y-107976214D01*
X132545000Y-108579750D01*
X132640250Y-108675000D01*
X133299000Y-108675000D01*
X133299000Y-108655000D01*
X133553000Y-108655000D01*
X133553000Y-108675000D01*
X134211750Y-108675000D01*
X134307000Y-108579750D01*
X134307000Y-107976214D01*
X134285289Y-107923800D01*
X136398000Y-107923800D01*
X136582377Y-107887125D01*
X136738684Y-107782684D01*
X137246684Y-107274684D01*
X137351125Y-107118377D01*
X137387800Y-106934000D01*
X137387800Y-106086032D01*
X137521797Y-106141673D01*
X137812925Y-106141927D01*
X138081990Y-106030752D01*
X138288028Y-105825073D01*
X138399673Y-105556203D01*
X138399749Y-105468512D01*
X138661131Y-105207131D01*
X138782264Y-105025844D01*
X138782265Y-105025843D01*
X138806846Y-104902259D01*
X139016000Y-104902259D01*
X139180644Y-104870315D01*
X139325351Y-104775258D01*
X139422216Y-104631755D01*
X139456259Y-104462000D01*
X139456259Y-109709996D01*
X139333133Y-109586871D01*
X139333131Y-109586869D01*
X139333131Y-109586868D01*
X139161851Y-109415588D01*
X139161927Y-109329075D01*
X139050752Y-109060010D01*
X138845073Y-108853972D01*
X138576203Y-108742327D01*
X138285075Y-108742073D01*
X138016010Y-108853248D01*
X137809972Y-109058927D01*
X137698327Y-109327797D01*
X137698073Y-109618925D01*
X137809248Y-109887990D01*
X138014927Y-110094028D01*
X138283797Y-110205673D01*
X138371486Y-110205749D01*
X138542868Y-110377131D01*
X138542869Y-110377131D01*
X138542871Y-110377133D01*
X138887200Y-110721462D01*
X138887200Y-112291595D01*
X137466605Y-110871000D01*
X136517000Y-110871000D01*
X136517000Y-110624250D01*
X136517000Y-110179750D01*
X136517000Y-109776214D01*
X136458996Y-109636180D01*
X136351819Y-109529004D01*
X136211785Y-109471000D01*
X136060214Y-109471000D01*
X135858250Y-109471000D01*
X135763000Y-109566250D01*
X135763000Y-110275000D01*
X136421750Y-110275000D01*
X136517000Y-110179750D01*
X136517000Y-110624250D01*
X136421750Y-110529000D01*
X135763000Y-110529000D01*
X135763000Y-110549000D01*
X135509000Y-110549000D01*
X135509000Y-110529000D01*
X135509000Y-110275000D01*
X135509000Y-109566250D01*
X135413750Y-109471000D01*
X135211786Y-109471000D01*
X135060215Y-109471000D01*
X134920181Y-109529004D01*
X134813004Y-109636180D01*
X134755000Y-109776214D01*
X134755000Y-110179750D01*
X134850250Y-110275000D01*
X135509000Y-110275000D01*
X135509000Y-110529000D01*
X134850250Y-110529000D01*
X134755000Y-110624250D01*
X134755000Y-110871000D01*
X134307000Y-110871000D01*
X134307000Y-109627786D01*
X134307000Y-109024250D01*
X134211750Y-108929000D01*
X133553000Y-108929000D01*
X133553000Y-109837750D01*
X133648250Y-109933000D01*
X133850214Y-109933000D01*
X134001785Y-109933000D01*
X134141819Y-109874996D01*
X134248996Y-109767820D01*
X134307000Y-109627786D01*
X134307000Y-110871000D01*
X133299000Y-110871000D01*
X133299000Y-109837750D01*
X133299000Y-108929000D01*
X132640250Y-108929000D01*
X132545000Y-109024250D01*
X132545000Y-109627786D01*
X132603004Y-109767820D01*
X132710181Y-109874996D01*
X132850215Y-109933000D01*
X133001786Y-109933000D01*
X133203750Y-109933000D01*
X133299000Y-109837750D01*
X133299000Y-110871000D01*
X127155262Y-110871000D01*
X127566410Y-110459851D01*
X127652925Y-110459927D01*
X127921990Y-110348752D01*
X128128028Y-110143073D01*
X128239673Y-109874203D01*
X128239927Y-109583075D01*
X128128752Y-109314010D01*
X127923073Y-109107972D01*
X127654203Y-108996327D01*
X127363075Y-108996073D01*
X127094010Y-109107248D01*
X126887972Y-109312927D01*
X126776327Y-109581797D01*
X126776250Y-109669487D01*
X126313671Y-110132066D01*
X125259000Y-109077395D01*
X125259000Y-104747750D01*
X125259000Y-104089000D01*
X125259000Y-103835000D01*
X125259000Y-103176250D01*
X125163750Y-103081000D01*
X124560214Y-103081000D01*
X124420180Y-103139004D01*
X124313004Y-103246181D01*
X124255000Y-103386215D01*
X124255000Y-103537786D01*
X124255000Y-103739750D01*
X124350250Y-103835000D01*
X125259000Y-103835000D01*
X125259000Y-104089000D01*
X124350250Y-104089000D01*
X124255000Y-104184250D01*
X124255000Y-104386214D01*
X124255000Y-104537785D01*
X124313004Y-104677819D01*
X124420180Y-104784996D01*
X124560214Y-104843000D01*
X125163750Y-104843000D01*
X125259000Y-104747750D01*
X125259000Y-109077395D01*
X124717000Y-108535395D01*
X124717000Y-107001785D01*
X124717000Y-106850214D01*
X124717000Y-106648250D01*
X124717000Y-106203750D01*
X124717000Y-106001786D01*
X124717000Y-105850215D01*
X124658996Y-105710181D01*
X124551820Y-105603004D01*
X124411786Y-105545000D01*
X124008250Y-105545000D01*
X123913000Y-105640250D01*
X123913000Y-106299000D01*
X124621750Y-106299000D01*
X124717000Y-106203750D01*
X124717000Y-106648250D01*
X124621750Y-106553000D01*
X123913000Y-106553000D01*
X123913000Y-107211750D01*
X124008250Y-107307000D01*
X124411786Y-107307000D01*
X124551820Y-107248996D01*
X124658996Y-107141819D01*
X124717000Y-107001785D01*
X124717000Y-108535395D01*
X123488605Y-107307000D01*
X123563750Y-107307000D01*
X123659000Y-107211750D01*
X123659000Y-106553000D01*
X123639000Y-106553000D01*
X123639000Y-106299000D01*
X123659000Y-106299000D01*
X123659000Y-105640250D01*
X123563750Y-105545000D01*
X123317000Y-105545000D01*
X123317000Y-98096605D01*
X126964602Y-94449002D01*
X126976248Y-94449002D01*
X126881000Y-94544250D01*
X126881000Y-94947786D01*
X126939004Y-95087820D01*
X127046181Y-95194996D01*
X127186215Y-95253000D01*
X127337786Y-95253000D01*
X127539750Y-95253000D01*
X127635000Y-95157750D01*
X127635000Y-94449000D01*
X127615000Y-94449000D01*
X127615000Y-94195000D01*
X127635000Y-94195000D01*
X127635000Y-94175000D01*
X127889000Y-94175000D01*
X127889000Y-94195000D01*
X128547750Y-94195000D01*
X128643000Y-94099750D01*
X128643000Y-93853000D01*
X136091395Y-93853000D01*
X139738998Y-97500603D01*
X139738998Y-97512248D01*
X139643750Y-97417000D01*
X139240214Y-97417000D01*
X139100180Y-97475004D01*
X138993004Y-97582181D01*
X138935000Y-97722215D01*
X138935000Y-97873786D01*
X138935000Y-98075750D01*
X139030250Y-98171000D01*
X139739000Y-98171000D01*
X139739000Y-98151000D01*
X139993000Y-98151000D01*
X139993000Y-98171000D01*
X140013000Y-98171000D01*
X140013000Y-98425000D01*
X139993000Y-98425000D01*
X139993000Y-99083750D01*
X140088250Y-99179000D01*
X140335000Y-99179000D01*
X140335000Y-109018605D01*
X141859000Y-110542605D01*
X141859000Y-112066605D01*
X144044200Y-114251805D01*
X144044200Y-117627450D01*
X143916000Y-117601741D01*
X143724800Y-117601741D01*
X143724800Y-117004000D01*
X143682264Y-116790157D01*
X143682264Y-116790156D01*
X143561131Y-116608869D01*
X143479851Y-116527589D01*
X143479927Y-116441075D01*
X143368752Y-116172010D01*
X143163073Y-115965972D01*
X142894203Y-115854327D01*
X142603075Y-115854073D01*
X142334010Y-115965248D01*
X142127972Y-116170927D01*
X142016327Y-116439797D01*
X142016073Y-116730925D01*
X142127248Y-116999990D01*
X142332927Y-117206028D01*
X142601797Y-117317673D01*
X142607200Y-117317677D01*
X142607200Y-117601741D01*
X142416000Y-117601741D01*
X142251356Y-117633685D01*
X142106649Y-117728742D01*
X142009784Y-117872245D01*
X141975741Y-118042000D01*
X141975741Y-119042000D01*
X142007685Y-119206644D01*
X142102742Y-119351351D01*
X142246245Y-119448216D01*
X142416000Y-119482259D01*
X143916000Y-119482259D01*
X144044200Y-119457385D01*
X144044200Y-120882710D01*
X143991786Y-120861000D01*
X143388250Y-120861000D01*
X143293000Y-120956250D01*
X143293000Y-121615000D01*
X143313000Y-121615000D01*
X143313000Y-121869000D01*
X143293000Y-121869000D01*
X143293000Y-122527750D01*
X143388250Y-122623000D01*
X143991786Y-122623000D01*
X144044200Y-122601289D01*
X144044200Y-124514432D01*
X144044200Y-124514432D01*
G37*
X144044200Y-124514432D02*
X143039000Y-125519632D01*
X143039000Y-122527750D01*
X143039000Y-121869000D01*
X143039000Y-121615000D01*
X143039000Y-120956250D01*
X142943750Y-120861000D01*
X142340214Y-120861000D01*
X142200180Y-120919004D01*
X142093004Y-121026181D01*
X142035000Y-121166215D01*
X142035000Y-121317786D01*
X142035000Y-121519750D01*
X142130250Y-121615000D01*
X143039000Y-121615000D01*
X143039000Y-121869000D01*
X142130250Y-121869000D01*
X142035000Y-121964250D01*
X142035000Y-122166214D01*
X142035000Y-122317785D01*
X142093004Y-122457819D01*
X142200180Y-122564996D01*
X142340214Y-122623000D01*
X142943750Y-122623000D01*
X143039000Y-122527750D01*
X143039000Y-125519632D01*
X142497000Y-126061632D01*
X142497000Y-124781785D01*
X142497000Y-124630214D01*
X142497000Y-124428250D01*
X142497000Y-123983750D01*
X142497000Y-123781786D01*
X142497000Y-123630215D01*
X142438996Y-123490181D01*
X142331820Y-123383004D01*
X142191786Y-123325000D01*
X141788250Y-123325000D01*
X141693000Y-123420250D01*
X141693000Y-124079000D01*
X142401750Y-124079000D01*
X142497000Y-123983750D01*
X142497000Y-124428250D01*
X142401750Y-124333000D01*
X141693000Y-124333000D01*
X141693000Y-124991750D01*
X141788250Y-125087000D01*
X142191786Y-125087000D01*
X142331820Y-125028996D01*
X142438996Y-124921819D01*
X142497000Y-124781785D01*
X142497000Y-126061632D01*
X136771000Y-131787632D01*
X136771000Y-130507786D01*
X136771000Y-130104250D01*
X136675750Y-130009000D01*
X136017000Y-130009000D01*
X136017000Y-130717750D01*
X136112250Y-130813000D01*
X136314214Y-130813000D01*
X136465785Y-130813000D01*
X136605819Y-130754996D01*
X136712996Y-130647820D01*
X136771000Y-130507786D01*
X136771000Y-131787632D01*
X136198432Y-132360200D01*
X134149000Y-132360200D01*
X134149000Y-131417750D01*
X134149000Y-130759000D01*
X134149000Y-130505000D01*
X134149000Y-129846250D01*
X134053750Y-129751000D01*
X133450214Y-129751000D01*
X133310180Y-129809004D01*
X133203004Y-129916181D01*
X133145000Y-130056215D01*
X133145000Y-130207786D01*
X133145000Y-130409750D01*
X133240250Y-130505000D01*
X134149000Y-130505000D01*
X134149000Y-130759000D01*
X133240250Y-130759000D01*
X133145000Y-130854250D01*
X133145000Y-131056214D01*
X133145000Y-131207785D01*
X133203004Y-131347819D01*
X133310180Y-131454996D01*
X133450214Y-131513000D01*
X134053750Y-131513000D01*
X134149000Y-131417750D01*
X134149000Y-132360200D01*
X130470032Y-132360200D01*
X130525673Y-132226203D01*
X130525927Y-131935075D01*
X130414752Y-131666010D01*
X130289497Y-131540537D01*
X130290644Y-131540315D01*
X130435351Y-131445258D01*
X130532216Y-131301755D01*
X130566259Y-131132000D01*
X130566259Y-130132000D01*
X130534315Y-129967356D01*
X130439258Y-129822649D01*
X130295755Y-129725784D01*
X130126000Y-129691741D01*
X128626000Y-129691741D01*
X128461356Y-129723685D01*
X128316649Y-129818742D01*
X128219784Y-129962245D01*
X128185741Y-130132000D01*
X128185741Y-131132000D01*
X128217685Y-131296644D01*
X128312742Y-131441351D01*
X128456245Y-131538216D01*
X128626000Y-131572259D01*
X128817200Y-131572259D01*
X128817200Y-131662000D01*
X128859736Y-131875844D01*
X128980869Y-132057131D01*
X129062148Y-132138410D01*
X129062073Y-132224925D01*
X129117967Y-132360200D01*
X127453568Y-132360200D01*
X121959000Y-126865632D01*
X121959000Y-116863750D01*
X121959000Y-116205000D01*
X121959000Y-115951000D01*
X121959000Y-115292250D01*
X121863750Y-115197000D01*
X121460214Y-115197000D01*
X121320180Y-115255004D01*
X121213004Y-115362181D01*
X121155000Y-115502215D01*
X121155000Y-115653786D01*
X121155000Y-115855750D01*
X121250250Y-115951000D01*
X121959000Y-115951000D01*
X121959000Y-116205000D01*
X121250250Y-116205000D01*
X121155000Y-116300250D01*
X121155000Y-116502214D01*
X121155000Y-116653785D01*
X121213004Y-116793819D01*
X121320180Y-116900996D01*
X121460214Y-116959000D01*
X121863750Y-116959000D01*
X121959000Y-116863750D01*
X121959000Y-126865632D01*
X119607800Y-124514432D01*
X119607800Y-122656549D01*
X119736000Y-122682259D01*
X119959872Y-122682259D01*
X119959873Y-122682259D01*
X119969736Y-122731844D01*
X120090869Y-122913131D01*
X120426148Y-123248410D01*
X120426073Y-123334925D01*
X120537248Y-123603990D01*
X120742927Y-123810028D01*
X121011797Y-123921673D01*
X121302925Y-123921927D01*
X121571990Y-123810752D01*
X121778028Y-123605073D01*
X121889673Y-123336203D01*
X121889927Y-123045075D01*
X121778752Y-122776010D01*
X121573073Y-122569972D01*
X121542363Y-122557220D01*
X121545351Y-122555258D01*
X121642216Y-122411755D01*
X121676259Y-122242000D01*
X121676259Y-121242000D01*
X121644315Y-121077356D01*
X121617000Y-121035773D01*
X121617000Y-119117785D01*
X121617000Y-118966214D01*
X121617000Y-118764250D01*
X121617000Y-118319750D01*
X121617000Y-118117786D01*
X121617000Y-117966215D01*
X121558996Y-117826181D01*
X121451820Y-117719004D01*
X121311786Y-117661000D01*
X120708250Y-117661000D01*
X120613000Y-117756250D01*
X120613000Y-118415000D01*
X121521750Y-118415000D01*
X121617000Y-118319750D01*
X121617000Y-118764250D01*
X121521750Y-118669000D01*
X120613000Y-118669000D01*
X120613000Y-119327750D01*
X120708250Y-119423000D01*
X121311786Y-119423000D01*
X121451820Y-119364996D01*
X121558996Y-119257819D01*
X121617000Y-119117785D01*
X121617000Y-121035773D01*
X121549258Y-120932649D01*
X121405755Y-120835784D01*
X121236000Y-120801741D01*
X119736000Y-120801741D01*
X119607800Y-120826614D01*
X119607800Y-119401289D01*
X119660214Y-119423000D01*
X120263750Y-119423000D01*
X120359000Y-119327750D01*
X120359000Y-118669000D01*
X120339000Y-118669000D01*
X120339000Y-118415000D01*
X120359000Y-118415000D01*
X120359000Y-117756250D01*
X120263750Y-117661000D01*
X119660214Y-117661000D01*
X119607800Y-117682710D01*
X119607800Y-113991568D01*
X121027881Y-112571486D01*
X122555000Y-114098605D01*
X122555000Y-115197000D01*
X122308250Y-115197000D01*
X122213000Y-115292250D01*
X122213000Y-115951000D01*
X122233000Y-115951000D01*
X122233000Y-116205000D01*
X122213000Y-116205000D01*
X122213000Y-116863750D01*
X122308250Y-116959000D01*
X122555000Y-116959000D01*
X122555000Y-124766605D01*
X123901200Y-126112805D01*
X123901200Y-126238000D01*
X123943736Y-126451844D01*
X124064869Y-126633131D01*
X126350869Y-128919131D01*
X126532156Y-129040264D01*
X126532157Y-129040264D01*
X126746000Y-129082800D01*
X133938000Y-129082800D01*
X134151843Y-129040264D01*
X134151844Y-129040264D01*
X134333131Y-128919131D01*
X134347262Y-128905000D01*
X134821395Y-128905000D01*
X135056919Y-129140524D01*
X135009000Y-129256214D01*
X135009000Y-129659750D01*
X135100250Y-129751000D01*
X134498250Y-129751000D01*
X134403000Y-129846250D01*
X134403000Y-130505000D01*
X134423000Y-130505000D01*
X134423000Y-130759000D01*
X134403000Y-130759000D01*
X134403000Y-131417750D01*
X134498250Y-131513000D01*
X135101786Y-131513000D01*
X135241820Y-131454996D01*
X135348996Y-131347819D01*
X135407000Y-131207785D01*
X135407000Y-131056214D01*
X135407000Y-130854250D01*
X135365750Y-130813000D01*
X135465786Y-130813000D01*
X135667750Y-130813000D01*
X135763000Y-130717750D01*
X135763000Y-130009000D01*
X135743000Y-130009000D01*
X135743000Y-129755000D01*
X135763000Y-129755000D01*
X135763000Y-129735000D01*
X136017000Y-129735000D01*
X136017000Y-129755000D01*
X136675750Y-129755000D01*
X136771000Y-129659750D01*
X136771000Y-129346605D01*
X141030605Y-125087000D01*
X141343750Y-125087000D01*
X141439000Y-124991750D01*
X141439000Y-124333000D01*
X141419000Y-124333000D01*
X141419000Y-124079000D01*
X141439000Y-124079000D01*
X141439000Y-123420250D01*
X141343750Y-123325000D01*
X141097000Y-123325000D01*
X141097000Y-114501395D01*
X140133110Y-113537505D01*
X140177673Y-113430187D01*
X140177927Y-113139059D01*
X140066752Y-112869994D01*
X140004800Y-112807933D01*
X140004800Y-110490000D01*
X139962264Y-110276156D01*
X139841131Y-110094869D01*
X139841131Y-110094868D01*
X139739000Y-109992737D01*
X139739000Y-99083750D01*
X139739000Y-98425000D01*
X139030250Y-98425000D01*
X138935000Y-98520250D01*
X138935000Y-98722214D01*
X138935000Y-98873785D01*
X138993004Y-99013819D01*
X139100180Y-99120996D01*
X139240214Y-99179000D01*
X139643750Y-99179000D01*
X139739000Y-99083750D01*
X139739000Y-109992737D01*
X139456259Y-109709996D01*
X139456259Y-104462000D01*
X139456259Y-103462000D01*
X139424315Y-103297356D01*
X139397000Y-103255773D01*
X139397000Y-101337785D01*
X139397000Y-101186214D01*
X139397000Y-100984250D01*
X139397000Y-100539750D01*
X139397000Y-100337786D01*
X139397000Y-100186215D01*
X139338996Y-100046181D01*
X139231820Y-99939004D01*
X139091786Y-99881000D01*
X138488250Y-99881000D01*
X138393000Y-99976250D01*
X138393000Y-100635000D01*
X139301750Y-100635000D01*
X139397000Y-100539750D01*
X139397000Y-100984250D01*
X139301750Y-100889000D01*
X138393000Y-100889000D01*
X138393000Y-101547750D01*
X138488250Y-101643000D01*
X139091786Y-101643000D01*
X139231820Y-101584996D01*
X139338996Y-101477819D01*
X139397000Y-101337785D01*
X139397000Y-103255773D01*
X139329258Y-103152649D01*
X139185755Y-103055784D01*
X139016000Y-103021741D01*
X137516000Y-103021741D01*
X137387800Y-103046614D01*
X137387800Y-101621289D01*
X137440214Y-101643000D01*
X138043750Y-101643000D01*
X138139000Y-101547750D01*
X138139000Y-100889000D01*
X138119000Y-100889000D01*
X138119000Y-100635000D01*
X138139000Y-100635000D01*
X138139000Y-99976250D01*
X138043750Y-99881000D01*
X137440214Y-99881000D01*
X137387800Y-99902710D01*
X137387800Y-97790000D01*
X137351125Y-97605623D01*
X137246684Y-97449316D01*
X136738684Y-96941316D01*
X136582377Y-96836875D01*
X136398000Y-96800200D01*
X134340549Y-96800200D01*
X134366259Y-96672000D01*
X134366259Y-95772003D01*
X134583462Y-95554800D01*
X134651805Y-95554800D01*
X134712927Y-95616028D01*
X134981797Y-95727673D01*
X135272925Y-95727927D01*
X135541990Y-95616752D01*
X135748028Y-95411073D01*
X135859673Y-95142203D01*
X135859927Y-94851075D01*
X135748752Y-94582010D01*
X135543073Y-94375972D01*
X135274203Y-94264327D01*
X134983075Y-94264073D01*
X134714010Y-94375248D01*
X134651949Y-94437200D01*
X134352000Y-94437200D01*
X134138156Y-94479736D01*
X133956869Y-94600869D01*
X133825997Y-94731741D01*
X132926000Y-94731741D01*
X132761356Y-94763685D01*
X132616649Y-94858742D01*
X132519784Y-95002245D01*
X132485741Y-95172000D01*
X132485741Y-96672000D01*
X132510614Y-96800200D01*
X131085289Y-96800200D01*
X131107000Y-96747786D01*
X131107000Y-96144250D01*
X131107000Y-95699750D01*
X131107000Y-95096214D01*
X131048996Y-94956180D01*
X130941819Y-94849004D01*
X130801785Y-94791000D01*
X130650214Y-94791000D01*
X130448250Y-94791000D01*
X130353000Y-94886250D01*
X130353000Y-95795000D01*
X131011750Y-95795000D01*
X131107000Y-95699750D01*
X131107000Y-96144250D01*
X131011750Y-96049000D01*
X130353000Y-96049000D01*
X130353000Y-96069000D01*
X130099000Y-96069000D01*
X130099000Y-96049000D01*
X130099000Y-95795000D01*
X130099000Y-94886250D01*
X130003750Y-94791000D01*
X129801786Y-94791000D01*
X129650215Y-94791000D01*
X129510181Y-94849004D01*
X129403004Y-94956180D01*
X129345000Y-95096214D01*
X129345000Y-95699750D01*
X129440250Y-95795000D01*
X130099000Y-95795000D01*
X130099000Y-96049000D01*
X129440250Y-96049000D01*
X129345000Y-96144250D01*
X129345000Y-96747786D01*
X129366710Y-96800200D01*
X128643000Y-96800200D01*
X128643000Y-94947786D01*
X128643000Y-94544250D01*
X128547750Y-94449000D01*
X127889000Y-94449000D01*
X127889000Y-95157750D01*
X127984250Y-95253000D01*
X128186214Y-95253000D01*
X128337785Y-95253000D01*
X128477819Y-95194996D01*
X128584996Y-95087820D01*
X128643000Y-94947786D01*
X128643000Y-96800200D01*
X127635000Y-96800200D01*
X127254000Y-96800200D01*
X127069623Y-96836875D01*
X126913316Y-96941316D01*
X126405316Y-97449316D01*
X126300875Y-97605623D01*
X126264200Y-97790000D01*
X126264200Y-99847450D01*
X126136000Y-99821741D01*
X125944800Y-99821741D01*
X125944800Y-99732000D01*
X125902264Y-99518157D01*
X125902264Y-99518156D01*
X125781131Y-99336869D01*
X125526800Y-99082538D01*
X125526800Y-99028194D01*
X125588028Y-98967073D01*
X125699673Y-98698203D01*
X125699927Y-98407075D01*
X125588752Y-98138010D01*
X125383073Y-97931972D01*
X125114203Y-97820327D01*
X124823075Y-97820073D01*
X124554010Y-97931248D01*
X124347972Y-98136927D01*
X124236327Y-98405797D01*
X124236073Y-98696925D01*
X124347248Y-98965990D01*
X124409200Y-99028050D01*
X124409200Y-99314000D01*
X124451736Y-99527844D01*
X124572869Y-99709131D01*
X124685479Y-99821741D01*
X124636000Y-99821741D01*
X124471356Y-99853685D01*
X124326649Y-99948742D01*
X124229784Y-100092245D01*
X124195741Y-100262000D01*
X124195741Y-101262000D01*
X124227685Y-101426644D01*
X124322742Y-101571351D01*
X124466245Y-101668216D01*
X124636000Y-101702259D01*
X126136000Y-101702259D01*
X126264200Y-101677385D01*
X126264200Y-103102710D01*
X126211786Y-103081000D01*
X125608250Y-103081000D01*
X125513000Y-103176250D01*
X125513000Y-103835000D01*
X125533000Y-103835000D01*
X125533000Y-104089000D01*
X125513000Y-104089000D01*
X125513000Y-104747750D01*
X125608250Y-104843000D01*
X126211786Y-104843000D01*
X126264200Y-104821289D01*
X126264200Y-106934000D01*
X126300875Y-107118377D01*
X126405316Y-107274684D01*
X126913316Y-107782684D01*
X127069623Y-107887125D01*
X127254000Y-107923800D01*
X128101967Y-107923800D01*
X128046327Y-108057797D01*
X128046073Y-108348925D01*
X128157248Y-108617990D01*
X128362927Y-108824028D01*
X128631797Y-108935673D01*
X128719487Y-108935749D01*
X128980869Y-109197131D01*
X129162156Y-109318264D01*
X129162157Y-109318265D01*
X129285741Y-109342846D01*
X129285741Y-109552000D01*
X129317685Y-109716644D01*
X129412742Y-109861351D01*
X129556245Y-109958216D01*
X129726000Y-109992259D01*
X130726000Y-109992259D01*
X130890644Y-109960315D01*
X131035351Y-109865258D01*
X131132216Y-109721755D01*
X131166259Y-109552000D01*
X131166259Y-108052000D01*
X131141385Y-107923800D01*
X132566710Y-107923800D01*
X132545000Y-107976214D01*
X132545000Y-108579750D01*
X132640250Y-108675000D01*
X133299000Y-108675000D01*
X133299000Y-108655000D01*
X133553000Y-108655000D01*
X133553000Y-108675000D01*
X134211750Y-108675000D01*
X134307000Y-108579750D01*
X134307000Y-107976214D01*
X134285289Y-107923800D01*
X136398000Y-107923800D01*
X136582377Y-107887125D01*
X136738684Y-107782684D01*
X137246684Y-107274684D01*
X137351125Y-107118377D01*
X137387800Y-106934000D01*
X137387800Y-106086032D01*
X137521797Y-106141673D01*
X137812925Y-106141927D01*
X138081990Y-106030752D01*
X138288028Y-105825073D01*
X138399673Y-105556203D01*
X138399749Y-105468512D01*
X138661131Y-105207131D01*
X138782264Y-105025844D01*
X138782265Y-105025843D01*
X138806846Y-104902259D01*
X139016000Y-104902259D01*
X139180644Y-104870315D01*
X139325351Y-104775258D01*
X139422216Y-104631755D01*
X139456259Y-104462000D01*
X139456259Y-109709996D01*
X139333133Y-109586871D01*
X139333131Y-109586869D01*
X139333131Y-109586868D01*
X139161851Y-109415588D01*
X139161927Y-109329075D01*
X139050752Y-109060010D01*
X138845073Y-108853972D01*
X138576203Y-108742327D01*
X138285075Y-108742073D01*
X138016010Y-108853248D01*
X137809972Y-109058927D01*
X137698327Y-109327797D01*
X137698073Y-109618925D01*
X137809248Y-109887990D01*
X138014927Y-110094028D01*
X138283797Y-110205673D01*
X138371486Y-110205749D01*
X138542868Y-110377131D01*
X138542869Y-110377131D01*
X138542871Y-110377133D01*
X138887200Y-110721462D01*
X138887200Y-112291595D01*
X137466605Y-110871000D01*
X136517000Y-110871000D01*
X136517000Y-110624250D01*
X136517000Y-110179750D01*
X136517000Y-109776214D01*
X136458996Y-109636180D01*
X136351819Y-109529004D01*
X136211785Y-109471000D01*
X136060214Y-109471000D01*
X135858250Y-109471000D01*
X135763000Y-109566250D01*
X135763000Y-110275000D01*
X136421750Y-110275000D01*
X136517000Y-110179750D01*
X136517000Y-110624250D01*
X136421750Y-110529000D01*
X135763000Y-110529000D01*
X135763000Y-110549000D01*
X135509000Y-110549000D01*
X135509000Y-110529000D01*
X135509000Y-110275000D01*
X135509000Y-109566250D01*
X135413750Y-109471000D01*
X135211786Y-109471000D01*
X135060215Y-109471000D01*
X134920181Y-109529004D01*
X134813004Y-109636180D01*
X134755000Y-109776214D01*
X134755000Y-110179750D01*
X134850250Y-110275000D01*
X135509000Y-110275000D01*
X135509000Y-110529000D01*
X134850250Y-110529000D01*
X134755000Y-110624250D01*
X134755000Y-110871000D01*
X134307000Y-110871000D01*
X134307000Y-109627786D01*
X134307000Y-109024250D01*
X134211750Y-108929000D01*
X133553000Y-108929000D01*
X133553000Y-109837750D01*
X133648250Y-109933000D01*
X133850214Y-109933000D01*
X134001785Y-109933000D01*
X134141819Y-109874996D01*
X134248996Y-109767820D01*
X134307000Y-109627786D01*
X134307000Y-110871000D01*
X133299000Y-110871000D01*
X133299000Y-109837750D01*
X133299000Y-108929000D01*
X132640250Y-108929000D01*
X132545000Y-109024250D01*
X132545000Y-109627786D01*
X132603004Y-109767820D01*
X132710181Y-109874996D01*
X132850215Y-109933000D01*
X133001786Y-109933000D01*
X133203750Y-109933000D01*
X133299000Y-109837750D01*
X133299000Y-110871000D01*
X127155262Y-110871000D01*
X127566410Y-110459851D01*
X127652925Y-110459927D01*
X127921990Y-110348752D01*
X128128028Y-110143073D01*
X128239673Y-109874203D01*
X128239927Y-109583075D01*
X128128752Y-109314010D01*
X127923073Y-109107972D01*
X127654203Y-108996327D01*
X127363075Y-108996073D01*
X127094010Y-109107248D01*
X126887972Y-109312927D01*
X126776327Y-109581797D01*
X126776250Y-109669487D01*
X126313671Y-110132066D01*
X125259000Y-109077395D01*
X125259000Y-104747750D01*
X125259000Y-104089000D01*
X125259000Y-103835000D01*
X125259000Y-103176250D01*
X125163750Y-103081000D01*
X124560214Y-103081000D01*
X124420180Y-103139004D01*
X124313004Y-103246181D01*
X124255000Y-103386215D01*
X124255000Y-103537786D01*
X124255000Y-103739750D01*
X124350250Y-103835000D01*
X125259000Y-103835000D01*
X125259000Y-104089000D01*
X124350250Y-104089000D01*
X124255000Y-104184250D01*
X124255000Y-104386214D01*
X124255000Y-104537785D01*
X124313004Y-104677819D01*
X124420180Y-104784996D01*
X124560214Y-104843000D01*
X125163750Y-104843000D01*
X125259000Y-104747750D01*
X125259000Y-109077395D01*
X124717000Y-108535395D01*
X124717000Y-107001785D01*
X124717000Y-106850214D01*
X124717000Y-106648250D01*
X124717000Y-106203750D01*
X124717000Y-106001786D01*
X124717000Y-105850215D01*
X124658996Y-105710181D01*
X124551820Y-105603004D01*
X124411786Y-105545000D01*
X124008250Y-105545000D01*
X123913000Y-105640250D01*
X123913000Y-106299000D01*
X124621750Y-106299000D01*
X124717000Y-106203750D01*
X124717000Y-106648250D01*
X124621750Y-106553000D01*
X123913000Y-106553000D01*
X123913000Y-107211750D01*
X124008250Y-107307000D01*
X124411786Y-107307000D01*
X124551820Y-107248996D01*
X124658996Y-107141819D01*
X124717000Y-107001785D01*
X124717000Y-108535395D01*
X123488605Y-107307000D01*
X123563750Y-107307000D01*
X123659000Y-107211750D01*
X123659000Y-106553000D01*
X123639000Y-106553000D01*
X123639000Y-106299000D01*
X123659000Y-106299000D01*
X123659000Y-105640250D01*
X123563750Y-105545000D01*
X123317000Y-105545000D01*
X123317000Y-98096605D01*
X126964602Y-94449002D01*
X126976248Y-94449002D01*
X126881000Y-94544250D01*
X126881000Y-94947786D01*
X126939004Y-95087820D01*
X127046181Y-95194996D01*
X127186215Y-95253000D01*
X127337786Y-95253000D01*
X127539750Y-95253000D01*
X127635000Y-95157750D01*
X127635000Y-94449000D01*
X127615000Y-94449000D01*
X127615000Y-94195000D01*
X127635000Y-94195000D01*
X127635000Y-94175000D01*
X127889000Y-94175000D01*
X127889000Y-94195000D01*
X128547750Y-94195000D01*
X128643000Y-94099750D01*
X128643000Y-93853000D01*
X136091395Y-93853000D01*
X139738998Y-97500603D01*
X139738998Y-97512248D01*
X139643750Y-97417000D01*
X139240214Y-97417000D01*
X139100180Y-97475004D01*
X138993004Y-97582181D01*
X138935000Y-97722215D01*
X138935000Y-97873786D01*
X138935000Y-98075750D01*
X139030250Y-98171000D01*
X139739000Y-98171000D01*
X139739000Y-98151000D01*
X139993000Y-98151000D01*
X139993000Y-98171000D01*
X140013000Y-98171000D01*
X140013000Y-98425000D01*
X139993000Y-98425000D01*
X139993000Y-99083750D01*
X140088250Y-99179000D01*
X140335000Y-99179000D01*
X140335000Y-109018605D01*
X141859000Y-110542605D01*
X141859000Y-112066605D01*
X144044200Y-114251805D01*
X144044200Y-117627450D01*
X143916000Y-117601741D01*
X143724800Y-117601741D01*
X143724800Y-117004000D01*
X143682264Y-116790157D01*
X143682264Y-116790156D01*
X143561131Y-116608869D01*
X143479851Y-116527589D01*
X143479927Y-116441075D01*
X143368752Y-116172010D01*
X143163073Y-115965972D01*
X142894203Y-115854327D01*
X142603075Y-115854073D01*
X142334010Y-115965248D01*
X142127972Y-116170927D01*
X142016327Y-116439797D01*
X142016073Y-116730925D01*
X142127248Y-116999990D01*
X142332927Y-117206028D01*
X142601797Y-117317673D01*
X142607200Y-117317677D01*
X142607200Y-117601741D01*
X142416000Y-117601741D01*
X142251356Y-117633685D01*
X142106649Y-117728742D01*
X142009784Y-117872245D01*
X141975741Y-118042000D01*
X141975741Y-119042000D01*
X142007685Y-119206644D01*
X142102742Y-119351351D01*
X142246245Y-119448216D01*
X142416000Y-119482259D01*
X143916000Y-119482259D01*
X144044200Y-119457385D01*
X144044200Y-120882710D01*
X143991786Y-120861000D01*
X143388250Y-120861000D01*
X143293000Y-120956250D01*
X143293000Y-121615000D01*
X143313000Y-121615000D01*
X143313000Y-121869000D01*
X143293000Y-121869000D01*
X143293000Y-122527750D01*
X143388250Y-122623000D01*
X143991786Y-122623000D01*
X144044200Y-122601289D01*
X144044200Y-124514432D01*
G36*
X159385000Y-98171000D02*
X159176889Y-98171000D01*
X159177118Y-97909135D01*
X159073661Y-97658748D01*
X158882259Y-97467013D01*
X158789000Y-97428288D01*
X158789000Y-91501850D01*
X158789000Y-90805000D01*
X158042150Y-90805000D01*
X157934200Y-90912950D01*
X157934200Y-91092110D01*
X157934200Y-91263891D01*
X157999938Y-91422595D01*
X158121405Y-91544063D01*
X158280110Y-91609800D01*
X158681050Y-91609800D01*
X158789000Y-91501850D01*
X158789000Y-97428288D01*
X158632054Y-97363118D01*
X158497800Y-97363001D01*
X158497800Y-93727891D01*
X158497800Y-93556110D01*
X158497800Y-93376950D01*
X158497800Y-92907050D01*
X158497800Y-92727890D01*
X158497800Y-92556109D01*
X158432062Y-92397405D01*
X158310595Y-92275937D01*
X158151890Y-92210200D01*
X157550950Y-92210200D01*
X157443000Y-92318150D01*
X157443000Y-93015000D01*
X158389850Y-93015000D01*
X158497800Y-92907050D01*
X158497800Y-93376950D01*
X158389850Y-93269000D01*
X157443000Y-93269000D01*
X157443000Y-93965850D01*
X157550950Y-94073800D01*
X158151890Y-94073800D01*
X158310595Y-94008063D01*
X158432062Y-93886595D01*
X158497800Y-93727891D01*
X158497800Y-97363001D01*
X158361135Y-97362882D01*
X158110748Y-97466339D01*
X158038962Y-97538000D01*
X157943592Y-97538000D01*
X157822000Y-97416408D01*
X157822000Y-97230464D01*
X158066000Y-97230464D01*
X158211274Y-97202278D01*
X158338956Y-97118404D01*
X158424426Y-96991784D01*
X158454464Y-96842000D01*
X158454464Y-95842000D01*
X158426278Y-95696726D01*
X158342404Y-95569044D01*
X158215784Y-95483574D01*
X158066000Y-95453536D01*
X156566000Y-95453536D01*
X156420726Y-95481722D01*
X156337000Y-95536721D01*
X156337000Y-94014522D01*
X156480110Y-94073800D01*
X157081050Y-94073800D01*
X157189000Y-93965850D01*
X157189000Y-93269000D01*
X157169000Y-93269000D01*
X157169000Y-93015000D01*
X157189000Y-93015000D01*
X157189000Y-92318150D01*
X157081050Y-92210200D01*
X156480110Y-92210200D01*
X156337000Y-92269477D01*
X156337000Y-90043000D01*
X157954541Y-90043000D01*
X157934200Y-90092109D01*
X157934200Y-90263890D01*
X157934200Y-90443050D01*
X158042150Y-90551000D01*
X158789000Y-90551000D01*
X158789000Y-90531000D01*
X159043000Y-90531000D01*
X159043000Y-90551000D01*
X159063000Y-90551000D01*
X159063000Y-90805000D01*
X159043000Y-90805000D01*
X159043000Y-91501850D01*
X159150950Y-91609800D01*
X159385000Y-91609800D01*
X159385000Y-92710000D01*
X159385000Y-96774000D01*
X159385000Y-98171000D01*
X159385000Y-98171000D01*
G37*
X159385000Y-98171000D02*
X159176889Y-98171000D01*
X159177118Y-97909135D01*
X159073661Y-97658748D01*
X158882259Y-97467013D01*
X158789000Y-97428288D01*
X158789000Y-91501850D01*
X158789000Y-90805000D01*
X158042150Y-90805000D01*
X157934200Y-90912950D01*
X157934200Y-91092110D01*
X157934200Y-91263891D01*
X157999938Y-91422595D01*
X158121405Y-91544063D01*
X158280110Y-91609800D01*
X158681050Y-91609800D01*
X158789000Y-91501850D01*
X158789000Y-97428288D01*
X158632054Y-97363118D01*
X158497800Y-97363001D01*
X158497800Y-93727891D01*
X158497800Y-93556110D01*
X158497800Y-93376950D01*
X158497800Y-92907050D01*
X158497800Y-92727890D01*
X158497800Y-92556109D01*
X158432062Y-92397405D01*
X158310595Y-92275937D01*
X158151890Y-92210200D01*
X157550950Y-92210200D01*
X157443000Y-92318150D01*
X157443000Y-93015000D01*
X158389850Y-93015000D01*
X158497800Y-92907050D01*
X158497800Y-93376950D01*
X158389850Y-93269000D01*
X157443000Y-93269000D01*
X157443000Y-93965850D01*
X157550950Y-94073800D01*
X158151890Y-94073800D01*
X158310595Y-94008063D01*
X158432062Y-93886595D01*
X158497800Y-93727891D01*
X158497800Y-97363001D01*
X158361135Y-97362882D01*
X158110748Y-97466339D01*
X158038962Y-97538000D01*
X157943592Y-97538000D01*
X157822000Y-97416408D01*
X157822000Y-97230464D01*
X158066000Y-97230464D01*
X158211274Y-97202278D01*
X158338956Y-97118404D01*
X158424426Y-96991784D01*
X158454464Y-96842000D01*
X158454464Y-95842000D01*
X158426278Y-95696726D01*
X158342404Y-95569044D01*
X158215784Y-95483574D01*
X158066000Y-95453536D01*
X156566000Y-95453536D01*
X156420726Y-95481722D01*
X156337000Y-95536721D01*
X156337000Y-94014522D01*
X156480110Y-94073800D01*
X157081050Y-94073800D01*
X157189000Y-93965850D01*
X157189000Y-93269000D01*
X157169000Y-93269000D01*
X157169000Y-93015000D01*
X157189000Y-93015000D01*
X157189000Y-92318150D01*
X157081050Y-92210200D01*
X156480110Y-92210200D01*
X156337000Y-92269477D01*
X156337000Y-90043000D01*
X157954541Y-90043000D01*
X157934200Y-90092109D01*
X157934200Y-90263890D01*
X157934200Y-90443050D01*
X158042150Y-90551000D01*
X158789000Y-90551000D01*
X158789000Y-90531000D01*
X159043000Y-90531000D01*
X159043000Y-90551000D01*
X159063000Y-90551000D01*
X159063000Y-90805000D01*
X159043000Y-90805000D01*
X159043000Y-91501850D01*
X159150950Y-91609800D01*
X159385000Y-91609800D01*
X159385000Y-92710000D01*
X159385000Y-96774000D01*
X159385000Y-98171000D01*
G36*
X163195000Y-98171000D02*
X162089000Y-98171000D01*
X162089000Y-97165850D01*
X162089000Y-96469000D01*
X162089000Y-96215000D01*
X162089000Y-95518150D01*
X161981050Y-95410200D01*
X161380110Y-95410200D01*
X161221405Y-95475937D01*
X161099938Y-95597405D01*
X161034200Y-95756109D01*
X161034200Y-95927890D01*
X161034200Y-96107050D01*
X161142150Y-96215000D01*
X162089000Y-96215000D01*
X162089000Y-96469000D01*
X161142150Y-96469000D01*
X161034200Y-96576950D01*
X161034200Y-96756110D01*
X161034200Y-96927891D01*
X161099938Y-97086595D01*
X161221405Y-97208063D01*
X161380110Y-97273800D01*
X161981050Y-97273800D01*
X162089000Y-97165850D01*
X162089000Y-98171000D01*
X160147000Y-98171000D01*
X160147000Y-96774000D01*
X160147000Y-92710000D01*
X160147000Y-91609800D01*
X160381050Y-91609800D01*
X160489000Y-91501850D01*
X160489000Y-90805000D01*
X160469000Y-90805000D01*
X160469000Y-90551000D01*
X160489000Y-90551000D01*
X160489000Y-90531000D01*
X160743000Y-90531000D01*
X160743000Y-90551000D01*
X161489850Y-90551000D01*
X161597800Y-90443050D01*
X161597800Y-90263890D01*
X161597800Y-90092109D01*
X161577458Y-90043000D01*
X163195000Y-90043000D01*
X163195000Y-92337045D01*
X163115784Y-92283574D01*
X162966000Y-92253536D01*
X161597800Y-92253536D01*
X161597800Y-91263891D01*
X161597800Y-91092110D01*
X161597800Y-90912950D01*
X161489850Y-90805000D01*
X160743000Y-90805000D01*
X160743000Y-91501850D01*
X160850950Y-91609800D01*
X161251890Y-91609800D01*
X161410595Y-91544063D01*
X161532062Y-91422595D01*
X161597800Y-91263891D01*
X161597800Y-92253536D01*
X161466000Y-92253536D01*
X161320726Y-92281722D01*
X161193044Y-92365596D01*
X161107574Y-92492216D01*
X161077536Y-92642000D01*
X161077536Y-92737877D01*
X161008204Y-92784204D01*
X161001438Y-92790969D01*
X160901135Y-92790882D01*
X160650748Y-92894339D01*
X160459013Y-93085741D01*
X160355118Y-93335946D01*
X160354882Y-93606865D01*
X160458339Y-93857252D01*
X160649741Y-94048987D01*
X160899946Y-94152882D01*
X161170865Y-94153118D01*
X161421252Y-94049661D01*
X161444751Y-94026202D01*
X161466000Y-94030464D01*
X162966000Y-94030464D01*
X163111274Y-94002278D01*
X163195000Y-93947278D01*
X163195000Y-95469477D01*
X163051890Y-95410200D01*
X162450950Y-95410200D01*
X162343000Y-95518150D01*
X162343000Y-96215000D01*
X162363000Y-96215000D01*
X162363000Y-96469000D01*
X162343000Y-96469000D01*
X162343000Y-97165850D01*
X162450950Y-97273800D01*
X163051890Y-97273800D01*
X163195000Y-97214522D01*
X163195000Y-98171000D01*
X163195000Y-98171000D01*
G37*
X163195000Y-98171000D02*
X162089000Y-98171000D01*
X162089000Y-97165850D01*
X162089000Y-96469000D01*
X162089000Y-96215000D01*
X162089000Y-95518150D01*
X161981050Y-95410200D01*
X161380110Y-95410200D01*
X161221405Y-95475937D01*
X161099938Y-95597405D01*
X161034200Y-95756109D01*
X161034200Y-95927890D01*
X161034200Y-96107050D01*
X161142150Y-96215000D01*
X162089000Y-96215000D01*
X162089000Y-96469000D01*
X161142150Y-96469000D01*
X161034200Y-96576950D01*
X161034200Y-96756110D01*
X161034200Y-96927891D01*
X161099938Y-97086595D01*
X161221405Y-97208063D01*
X161380110Y-97273800D01*
X161981050Y-97273800D01*
X162089000Y-97165850D01*
X162089000Y-98171000D01*
X160147000Y-98171000D01*
X160147000Y-96774000D01*
X160147000Y-92710000D01*
X160147000Y-91609800D01*
X160381050Y-91609800D01*
X160489000Y-91501850D01*
X160489000Y-90805000D01*
X160469000Y-90805000D01*
X160469000Y-90551000D01*
X160489000Y-90551000D01*
X160489000Y-90531000D01*
X160743000Y-90531000D01*
X160743000Y-90551000D01*
X161489850Y-90551000D01*
X161597800Y-90443050D01*
X161597800Y-90263890D01*
X161597800Y-90092109D01*
X161577458Y-90043000D01*
X163195000Y-90043000D01*
X163195000Y-92337045D01*
X163115784Y-92283574D01*
X162966000Y-92253536D01*
X161597800Y-92253536D01*
X161597800Y-91263891D01*
X161597800Y-91092110D01*
X161597800Y-90912950D01*
X161489850Y-90805000D01*
X160743000Y-90805000D01*
X160743000Y-91501850D01*
X160850950Y-91609800D01*
X161251890Y-91609800D01*
X161410595Y-91544063D01*
X161532062Y-91422595D01*
X161597800Y-91263891D01*
X161597800Y-92253536D01*
X161466000Y-92253536D01*
X161320726Y-92281722D01*
X161193044Y-92365596D01*
X161107574Y-92492216D01*
X161077536Y-92642000D01*
X161077536Y-92737877D01*
X161008204Y-92784204D01*
X161001438Y-92790969D01*
X160901135Y-92790882D01*
X160650748Y-92894339D01*
X160459013Y-93085741D01*
X160355118Y-93335946D01*
X160354882Y-93606865D01*
X160458339Y-93857252D01*
X160649741Y-94048987D01*
X160899946Y-94152882D01*
X161170865Y-94153118D01*
X161421252Y-94049661D01*
X161444751Y-94026202D01*
X161466000Y-94030464D01*
X162966000Y-94030464D01*
X163111274Y-94002278D01*
X163195000Y-93947278D01*
X163195000Y-95469477D01*
X163051890Y-95410200D01*
X162450950Y-95410200D01*
X162343000Y-95518150D01*
X162343000Y-96215000D01*
X162363000Y-96215000D01*
X162363000Y-96469000D01*
X162343000Y-96469000D01*
X162343000Y-97165850D01*
X162450950Y-97273800D01*
X163051890Y-97273800D01*
X163195000Y-97214522D01*
X163195000Y-98171000D01*
G36*
X159385000Y-109601000D02*
X159176889Y-109601000D01*
X159177118Y-109339135D01*
X159073661Y-109088748D01*
X158882259Y-108897013D01*
X158789000Y-108858288D01*
X158789000Y-102931850D01*
X158789000Y-102235000D01*
X158042150Y-102235000D01*
X157934200Y-102342950D01*
X157934200Y-102522110D01*
X157934200Y-102693891D01*
X157999938Y-102852595D01*
X158121405Y-102974063D01*
X158280110Y-103039800D01*
X158681050Y-103039800D01*
X158789000Y-102931850D01*
X158789000Y-108858288D01*
X158632054Y-108793118D01*
X158497800Y-108793001D01*
X158497800Y-105157891D01*
X158497800Y-104986110D01*
X158497800Y-104806950D01*
X158497800Y-104337050D01*
X158497800Y-104157890D01*
X158497800Y-103986109D01*
X158432062Y-103827405D01*
X158310595Y-103705937D01*
X158151890Y-103640200D01*
X157550950Y-103640200D01*
X157443000Y-103748150D01*
X157443000Y-104445000D01*
X158389850Y-104445000D01*
X158497800Y-104337050D01*
X158497800Y-104806950D01*
X158389850Y-104699000D01*
X157443000Y-104699000D01*
X157443000Y-105395850D01*
X157550950Y-105503800D01*
X158151890Y-105503800D01*
X158310595Y-105438063D01*
X158432062Y-105316595D01*
X158497800Y-105157891D01*
X158497800Y-108793001D01*
X158361135Y-108792882D01*
X158110748Y-108896339D01*
X158038962Y-108968000D01*
X157943592Y-108968000D01*
X157822000Y-108846408D01*
X157822000Y-108660464D01*
X158066000Y-108660464D01*
X158211274Y-108632278D01*
X158338956Y-108548404D01*
X158424426Y-108421784D01*
X158454464Y-108272000D01*
X158454464Y-107272000D01*
X158426278Y-107126726D01*
X158342404Y-106999044D01*
X158215784Y-106913574D01*
X158066000Y-106883536D01*
X156566000Y-106883536D01*
X156420726Y-106911722D01*
X156337000Y-106966721D01*
X156337000Y-105444522D01*
X156480110Y-105503800D01*
X157081050Y-105503800D01*
X157189000Y-105395850D01*
X157189000Y-104699000D01*
X157169000Y-104699000D01*
X157169000Y-104445000D01*
X157189000Y-104445000D01*
X157189000Y-103748150D01*
X157081050Y-103640200D01*
X156480110Y-103640200D01*
X156337000Y-103699477D01*
X156337000Y-101473000D01*
X157954541Y-101473000D01*
X157934200Y-101522109D01*
X157934200Y-101693890D01*
X157934200Y-101873050D01*
X158042150Y-101981000D01*
X158789000Y-101981000D01*
X158789000Y-101961000D01*
X159043000Y-101961000D01*
X159043000Y-101981000D01*
X159063000Y-101981000D01*
X159063000Y-102235000D01*
X159043000Y-102235000D01*
X159043000Y-102931850D01*
X159150950Y-103039800D01*
X159385000Y-103039800D01*
X159385000Y-104140000D01*
X159385000Y-108204000D01*
X159385000Y-109601000D01*
X159385000Y-109601000D01*
G37*
X159385000Y-109601000D02*
X159176889Y-109601000D01*
X159177118Y-109339135D01*
X159073661Y-109088748D01*
X158882259Y-108897013D01*
X158789000Y-108858288D01*
X158789000Y-102931850D01*
X158789000Y-102235000D01*
X158042150Y-102235000D01*
X157934200Y-102342950D01*
X157934200Y-102522110D01*
X157934200Y-102693891D01*
X157999938Y-102852595D01*
X158121405Y-102974063D01*
X158280110Y-103039800D01*
X158681050Y-103039800D01*
X158789000Y-102931850D01*
X158789000Y-108858288D01*
X158632054Y-108793118D01*
X158497800Y-108793001D01*
X158497800Y-105157891D01*
X158497800Y-104986110D01*
X158497800Y-104806950D01*
X158497800Y-104337050D01*
X158497800Y-104157890D01*
X158497800Y-103986109D01*
X158432062Y-103827405D01*
X158310595Y-103705937D01*
X158151890Y-103640200D01*
X157550950Y-103640200D01*
X157443000Y-103748150D01*
X157443000Y-104445000D01*
X158389850Y-104445000D01*
X158497800Y-104337050D01*
X158497800Y-104806950D01*
X158389850Y-104699000D01*
X157443000Y-104699000D01*
X157443000Y-105395850D01*
X157550950Y-105503800D01*
X158151890Y-105503800D01*
X158310595Y-105438063D01*
X158432062Y-105316595D01*
X158497800Y-105157891D01*
X158497800Y-108793001D01*
X158361135Y-108792882D01*
X158110748Y-108896339D01*
X158038962Y-108968000D01*
X157943592Y-108968000D01*
X157822000Y-108846408D01*
X157822000Y-108660464D01*
X158066000Y-108660464D01*
X158211274Y-108632278D01*
X158338956Y-108548404D01*
X158424426Y-108421784D01*
X158454464Y-108272000D01*
X158454464Y-107272000D01*
X158426278Y-107126726D01*
X158342404Y-106999044D01*
X158215784Y-106913574D01*
X158066000Y-106883536D01*
X156566000Y-106883536D01*
X156420726Y-106911722D01*
X156337000Y-106966721D01*
X156337000Y-105444522D01*
X156480110Y-105503800D01*
X157081050Y-105503800D01*
X157189000Y-105395850D01*
X157189000Y-104699000D01*
X157169000Y-104699000D01*
X157169000Y-104445000D01*
X157189000Y-104445000D01*
X157189000Y-103748150D01*
X157081050Y-103640200D01*
X156480110Y-103640200D01*
X156337000Y-103699477D01*
X156337000Y-101473000D01*
X157954541Y-101473000D01*
X157934200Y-101522109D01*
X157934200Y-101693890D01*
X157934200Y-101873050D01*
X158042150Y-101981000D01*
X158789000Y-101981000D01*
X158789000Y-101961000D01*
X159043000Y-101961000D01*
X159043000Y-101981000D01*
X159063000Y-101981000D01*
X159063000Y-102235000D01*
X159043000Y-102235000D01*
X159043000Y-102931850D01*
X159150950Y-103039800D01*
X159385000Y-103039800D01*
X159385000Y-104140000D01*
X159385000Y-108204000D01*
X159385000Y-109601000D01*
G36*
X163195000Y-109601000D02*
X162089000Y-109601000D01*
X162089000Y-108595850D01*
X162089000Y-107899000D01*
X162089000Y-107645000D01*
X162089000Y-106948150D01*
X161981050Y-106840200D01*
X161380110Y-106840200D01*
X161221405Y-106905937D01*
X161099938Y-107027405D01*
X161034200Y-107186109D01*
X161034200Y-107357890D01*
X161034200Y-107537050D01*
X161142150Y-107645000D01*
X162089000Y-107645000D01*
X162089000Y-107899000D01*
X161142150Y-107899000D01*
X161034200Y-108006950D01*
X161034200Y-108186110D01*
X161034200Y-108357891D01*
X161099938Y-108516595D01*
X161221405Y-108638063D01*
X161380110Y-108703800D01*
X161981050Y-108703800D01*
X162089000Y-108595850D01*
X162089000Y-109601000D01*
X160147000Y-109601000D01*
X160147000Y-108204000D01*
X160147000Y-104140000D01*
X160147000Y-103039800D01*
X160381050Y-103039800D01*
X160489000Y-102931850D01*
X160489000Y-102235000D01*
X160469000Y-102235000D01*
X160469000Y-101981000D01*
X160489000Y-101981000D01*
X160489000Y-101961000D01*
X160743000Y-101961000D01*
X160743000Y-101981000D01*
X161489850Y-101981000D01*
X161597800Y-101873050D01*
X161597800Y-101693890D01*
X161597800Y-101522109D01*
X161577458Y-101473000D01*
X163195000Y-101473000D01*
X163195000Y-103767045D01*
X163115784Y-103713574D01*
X162966000Y-103683536D01*
X161597800Y-103683536D01*
X161597800Y-102693891D01*
X161597800Y-102522110D01*
X161597800Y-102342950D01*
X161489850Y-102235000D01*
X160743000Y-102235000D01*
X160743000Y-102931850D01*
X160850950Y-103039800D01*
X161251890Y-103039800D01*
X161410595Y-102974063D01*
X161532062Y-102852595D01*
X161597800Y-102693891D01*
X161597800Y-103683536D01*
X161466000Y-103683536D01*
X161320726Y-103711722D01*
X161193044Y-103795596D01*
X161107574Y-103922216D01*
X161077536Y-104072000D01*
X161077536Y-104167877D01*
X161008204Y-104214204D01*
X161001438Y-104220969D01*
X160901135Y-104220882D01*
X160650748Y-104324339D01*
X160459013Y-104515741D01*
X160355118Y-104765946D01*
X160354882Y-105036865D01*
X160458339Y-105287252D01*
X160649741Y-105478987D01*
X160899946Y-105582882D01*
X161170865Y-105583118D01*
X161421252Y-105479661D01*
X161444751Y-105456202D01*
X161466000Y-105460464D01*
X162966000Y-105460464D01*
X163111274Y-105432278D01*
X163195000Y-105377278D01*
X163195000Y-106899477D01*
X163051890Y-106840200D01*
X162450950Y-106840200D01*
X162343000Y-106948150D01*
X162343000Y-107645000D01*
X162363000Y-107645000D01*
X162363000Y-107899000D01*
X162343000Y-107899000D01*
X162343000Y-108595850D01*
X162450950Y-108703800D01*
X163051890Y-108703800D01*
X163195000Y-108644522D01*
X163195000Y-109601000D01*
X163195000Y-109601000D01*
G37*
X163195000Y-109601000D02*
X162089000Y-109601000D01*
X162089000Y-108595850D01*
X162089000Y-107899000D01*
X162089000Y-107645000D01*
X162089000Y-106948150D01*
X161981050Y-106840200D01*
X161380110Y-106840200D01*
X161221405Y-106905937D01*
X161099938Y-107027405D01*
X161034200Y-107186109D01*
X161034200Y-107357890D01*
X161034200Y-107537050D01*
X161142150Y-107645000D01*
X162089000Y-107645000D01*
X162089000Y-107899000D01*
X161142150Y-107899000D01*
X161034200Y-108006950D01*
X161034200Y-108186110D01*
X161034200Y-108357891D01*
X161099938Y-108516595D01*
X161221405Y-108638063D01*
X161380110Y-108703800D01*
X161981050Y-108703800D01*
X162089000Y-108595850D01*
X162089000Y-109601000D01*
X160147000Y-109601000D01*
X160147000Y-108204000D01*
X160147000Y-104140000D01*
X160147000Y-103039800D01*
X160381050Y-103039800D01*
X160489000Y-102931850D01*
X160489000Y-102235000D01*
X160469000Y-102235000D01*
X160469000Y-101981000D01*
X160489000Y-101981000D01*
X160489000Y-101961000D01*
X160743000Y-101961000D01*
X160743000Y-101981000D01*
X161489850Y-101981000D01*
X161597800Y-101873050D01*
X161597800Y-101693890D01*
X161597800Y-101522109D01*
X161577458Y-101473000D01*
X163195000Y-101473000D01*
X163195000Y-103767045D01*
X163115784Y-103713574D01*
X162966000Y-103683536D01*
X161597800Y-103683536D01*
X161597800Y-102693891D01*
X161597800Y-102522110D01*
X161597800Y-102342950D01*
X161489850Y-102235000D01*
X160743000Y-102235000D01*
X160743000Y-102931850D01*
X160850950Y-103039800D01*
X161251890Y-103039800D01*
X161410595Y-102974063D01*
X161532062Y-102852595D01*
X161597800Y-102693891D01*
X161597800Y-103683536D01*
X161466000Y-103683536D01*
X161320726Y-103711722D01*
X161193044Y-103795596D01*
X161107574Y-103922216D01*
X161077536Y-104072000D01*
X161077536Y-104167877D01*
X161008204Y-104214204D01*
X161001438Y-104220969D01*
X160901135Y-104220882D01*
X160650748Y-104324339D01*
X160459013Y-104515741D01*
X160355118Y-104765946D01*
X160354882Y-105036865D01*
X160458339Y-105287252D01*
X160649741Y-105478987D01*
X160899946Y-105582882D01*
X161170865Y-105583118D01*
X161421252Y-105479661D01*
X161444751Y-105456202D01*
X161466000Y-105460464D01*
X162966000Y-105460464D01*
X163111274Y-105432278D01*
X163195000Y-105377278D01*
X163195000Y-106899477D01*
X163051890Y-106840200D01*
X162450950Y-106840200D01*
X162343000Y-106948150D01*
X162343000Y-107645000D01*
X162363000Y-107645000D01*
X162363000Y-107899000D01*
X162343000Y-107899000D01*
X162343000Y-108595850D01*
X162450950Y-108703800D01*
X163051890Y-108703800D01*
X163195000Y-108644522D01*
X163195000Y-109601000D01*
G36*
X159385000Y-121031000D02*
X159176889Y-121031000D01*
X159177118Y-120769135D01*
X159073661Y-120518748D01*
X158882259Y-120327013D01*
X158789000Y-120288288D01*
X158789000Y-114361850D01*
X158789000Y-113665000D01*
X158042150Y-113665000D01*
X157934200Y-113772950D01*
X157934200Y-113952110D01*
X157934200Y-114123891D01*
X157999938Y-114282595D01*
X158121405Y-114404063D01*
X158280110Y-114469800D01*
X158681050Y-114469800D01*
X158789000Y-114361850D01*
X158789000Y-120288288D01*
X158632054Y-120223118D01*
X158497800Y-120223001D01*
X158497800Y-116587891D01*
X158497800Y-116416110D01*
X158497800Y-116236950D01*
X158497800Y-115767050D01*
X158497800Y-115587890D01*
X158497800Y-115416109D01*
X158432062Y-115257405D01*
X158310595Y-115135937D01*
X158151890Y-115070200D01*
X157550950Y-115070200D01*
X157443000Y-115178150D01*
X157443000Y-115875000D01*
X158389850Y-115875000D01*
X158497800Y-115767050D01*
X158497800Y-116236950D01*
X158389850Y-116129000D01*
X157443000Y-116129000D01*
X157443000Y-116825850D01*
X157550950Y-116933800D01*
X158151890Y-116933800D01*
X158310595Y-116868063D01*
X158432062Y-116746595D01*
X158497800Y-116587891D01*
X158497800Y-120223001D01*
X158361135Y-120222882D01*
X158110748Y-120326339D01*
X158038962Y-120398000D01*
X157943592Y-120398000D01*
X157822000Y-120276408D01*
X157822000Y-120090464D01*
X158066000Y-120090464D01*
X158211274Y-120062278D01*
X158338956Y-119978404D01*
X158424426Y-119851784D01*
X158454464Y-119702000D01*
X158454464Y-118702000D01*
X158426278Y-118556726D01*
X158342404Y-118429044D01*
X158215784Y-118343574D01*
X158066000Y-118313536D01*
X156566000Y-118313536D01*
X156420726Y-118341722D01*
X156337000Y-118396721D01*
X156337000Y-116874522D01*
X156480110Y-116933800D01*
X157081050Y-116933800D01*
X157189000Y-116825850D01*
X157189000Y-116129000D01*
X157169000Y-116129000D01*
X157169000Y-115875000D01*
X157189000Y-115875000D01*
X157189000Y-115178150D01*
X157081050Y-115070200D01*
X156480110Y-115070200D01*
X156337000Y-115129477D01*
X156337000Y-112903000D01*
X157954541Y-112903000D01*
X157934200Y-112952109D01*
X157934200Y-113123890D01*
X157934200Y-113303050D01*
X158042150Y-113411000D01*
X158789000Y-113411000D01*
X158789000Y-113391000D01*
X159043000Y-113391000D01*
X159043000Y-113411000D01*
X159063000Y-113411000D01*
X159063000Y-113665000D01*
X159043000Y-113665000D01*
X159043000Y-114361850D01*
X159150950Y-114469800D01*
X159385000Y-114469800D01*
X159385000Y-115570000D01*
X159385000Y-119634000D01*
X159385000Y-121031000D01*
X159385000Y-121031000D01*
G37*
X159385000Y-121031000D02*
X159176889Y-121031000D01*
X159177118Y-120769135D01*
X159073661Y-120518748D01*
X158882259Y-120327013D01*
X158789000Y-120288288D01*
X158789000Y-114361850D01*
X158789000Y-113665000D01*
X158042150Y-113665000D01*
X157934200Y-113772950D01*
X157934200Y-113952110D01*
X157934200Y-114123891D01*
X157999938Y-114282595D01*
X158121405Y-114404063D01*
X158280110Y-114469800D01*
X158681050Y-114469800D01*
X158789000Y-114361850D01*
X158789000Y-120288288D01*
X158632054Y-120223118D01*
X158497800Y-120223001D01*
X158497800Y-116587891D01*
X158497800Y-116416110D01*
X158497800Y-116236950D01*
X158497800Y-115767050D01*
X158497800Y-115587890D01*
X158497800Y-115416109D01*
X158432062Y-115257405D01*
X158310595Y-115135937D01*
X158151890Y-115070200D01*
X157550950Y-115070200D01*
X157443000Y-115178150D01*
X157443000Y-115875000D01*
X158389850Y-115875000D01*
X158497800Y-115767050D01*
X158497800Y-116236950D01*
X158389850Y-116129000D01*
X157443000Y-116129000D01*
X157443000Y-116825850D01*
X157550950Y-116933800D01*
X158151890Y-116933800D01*
X158310595Y-116868063D01*
X158432062Y-116746595D01*
X158497800Y-116587891D01*
X158497800Y-120223001D01*
X158361135Y-120222882D01*
X158110748Y-120326339D01*
X158038962Y-120398000D01*
X157943592Y-120398000D01*
X157822000Y-120276408D01*
X157822000Y-120090464D01*
X158066000Y-120090464D01*
X158211274Y-120062278D01*
X158338956Y-119978404D01*
X158424426Y-119851784D01*
X158454464Y-119702000D01*
X158454464Y-118702000D01*
X158426278Y-118556726D01*
X158342404Y-118429044D01*
X158215784Y-118343574D01*
X158066000Y-118313536D01*
X156566000Y-118313536D01*
X156420726Y-118341722D01*
X156337000Y-118396721D01*
X156337000Y-116874522D01*
X156480110Y-116933800D01*
X157081050Y-116933800D01*
X157189000Y-116825850D01*
X157189000Y-116129000D01*
X157169000Y-116129000D01*
X157169000Y-115875000D01*
X157189000Y-115875000D01*
X157189000Y-115178150D01*
X157081050Y-115070200D01*
X156480110Y-115070200D01*
X156337000Y-115129477D01*
X156337000Y-112903000D01*
X157954541Y-112903000D01*
X157934200Y-112952109D01*
X157934200Y-113123890D01*
X157934200Y-113303050D01*
X158042150Y-113411000D01*
X158789000Y-113411000D01*
X158789000Y-113391000D01*
X159043000Y-113391000D01*
X159043000Y-113411000D01*
X159063000Y-113411000D01*
X159063000Y-113665000D01*
X159043000Y-113665000D01*
X159043000Y-114361850D01*
X159150950Y-114469800D01*
X159385000Y-114469800D01*
X159385000Y-115570000D01*
X159385000Y-119634000D01*
X159385000Y-121031000D01*
G36*
X163195000Y-121031000D02*
X162089000Y-121031000D01*
X162089000Y-120025850D01*
X162089000Y-119329000D01*
X162089000Y-119075000D01*
X162089000Y-118378150D01*
X161981050Y-118270200D01*
X161380110Y-118270200D01*
X161221405Y-118335937D01*
X161099938Y-118457405D01*
X161034200Y-118616109D01*
X161034200Y-118787890D01*
X161034200Y-118967050D01*
X161142150Y-119075000D01*
X162089000Y-119075000D01*
X162089000Y-119329000D01*
X161142150Y-119329000D01*
X161034200Y-119436950D01*
X161034200Y-119616110D01*
X161034200Y-119787891D01*
X161099938Y-119946595D01*
X161221405Y-120068063D01*
X161380110Y-120133800D01*
X161981050Y-120133800D01*
X162089000Y-120025850D01*
X162089000Y-121031000D01*
X160147000Y-121031000D01*
X160147000Y-119634000D01*
X160147000Y-115570000D01*
X160147000Y-114469800D01*
X160381050Y-114469800D01*
X160489000Y-114361850D01*
X160489000Y-113665000D01*
X160469000Y-113665000D01*
X160469000Y-113411000D01*
X160489000Y-113411000D01*
X160489000Y-113391000D01*
X160743000Y-113391000D01*
X160743000Y-113411000D01*
X161489850Y-113411000D01*
X161597800Y-113303050D01*
X161597800Y-113123890D01*
X161597800Y-112952109D01*
X161577458Y-112903000D01*
X163195000Y-112903000D01*
X163195000Y-115197045D01*
X163115784Y-115143574D01*
X162966000Y-115113536D01*
X161597800Y-115113536D01*
X161597800Y-114123891D01*
X161597800Y-113952110D01*
X161597800Y-113772950D01*
X161489850Y-113665000D01*
X160743000Y-113665000D01*
X160743000Y-114361850D01*
X160850950Y-114469800D01*
X161251890Y-114469800D01*
X161410595Y-114404063D01*
X161532062Y-114282595D01*
X161597800Y-114123891D01*
X161597800Y-115113536D01*
X161466000Y-115113536D01*
X161320726Y-115141722D01*
X161193044Y-115225596D01*
X161107574Y-115352216D01*
X161077536Y-115502000D01*
X161077536Y-115597877D01*
X161008204Y-115644204D01*
X161001438Y-115650969D01*
X160901135Y-115650882D01*
X160650748Y-115754339D01*
X160459013Y-115945741D01*
X160355118Y-116195946D01*
X160354882Y-116466865D01*
X160458339Y-116717252D01*
X160649741Y-116908987D01*
X160899946Y-117012882D01*
X161170865Y-117013118D01*
X161421252Y-116909661D01*
X161444751Y-116886202D01*
X161466000Y-116890464D01*
X162966000Y-116890464D01*
X163111274Y-116862278D01*
X163195000Y-116807278D01*
X163195000Y-118329477D01*
X163051890Y-118270200D01*
X162450950Y-118270200D01*
X162343000Y-118378150D01*
X162343000Y-119075000D01*
X162363000Y-119075000D01*
X162363000Y-119329000D01*
X162343000Y-119329000D01*
X162343000Y-120025850D01*
X162450950Y-120133800D01*
X163051890Y-120133800D01*
X163195000Y-120074522D01*
X163195000Y-121031000D01*
X163195000Y-121031000D01*
G37*
X163195000Y-121031000D02*
X162089000Y-121031000D01*
X162089000Y-120025850D01*
X162089000Y-119329000D01*
X162089000Y-119075000D01*
X162089000Y-118378150D01*
X161981050Y-118270200D01*
X161380110Y-118270200D01*
X161221405Y-118335937D01*
X161099938Y-118457405D01*
X161034200Y-118616109D01*
X161034200Y-118787890D01*
X161034200Y-118967050D01*
X161142150Y-119075000D01*
X162089000Y-119075000D01*
X162089000Y-119329000D01*
X161142150Y-119329000D01*
X161034200Y-119436950D01*
X161034200Y-119616110D01*
X161034200Y-119787891D01*
X161099938Y-119946595D01*
X161221405Y-120068063D01*
X161380110Y-120133800D01*
X161981050Y-120133800D01*
X162089000Y-120025850D01*
X162089000Y-121031000D01*
X160147000Y-121031000D01*
X160147000Y-119634000D01*
X160147000Y-115570000D01*
X160147000Y-114469800D01*
X160381050Y-114469800D01*
X160489000Y-114361850D01*
X160489000Y-113665000D01*
X160469000Y-113665000D01*
X160469000Y-113411000D01*
X160489000Y-113411000D01*
X160489000Y-113391000D01*
X160743000Y-113391000D01*
X160743000Y-113411000D01*
X161489850Y-113411000D01*
X161597800Y-113303050D01*
X161597800Y-113123890D01*
X161597800Y-112952109D01*
X161577458Y-112903000D01*
X163195000Y-112903000D01*
X163195000Y-115197045D01*
X163115784Y-115143574D01*
X162966000Y-115113536D01*
X161597800Y-115113536D01*
X161597800Y-114123891D01*
X161597800Y-113952110D01*
X161597800Y-113772950D01*
X161489850Y-113665000D01*
X160743000Y-113665000D01*
X160743000Y-114361850D01*
X160850950Y-114469800D01*
X161251890Y-114469800D01*
X161410595Y-114404063D01*
X161532062Y-114282595D01*
X161597800Y-114123891D01*
X161597800Y-115113536D01*
X161466000Y-115113536D01*
X161320726Y-115141722D01*
X161193044Y-115225596D01*
X161107574Y-115352216D01*
X161077536Y-115502000D01*
X161077536Y-115597877D01*
X161008204Y-115644204D01*
X161001438Y-115650969D01*
X160901135Y-115650882D01*
X160650748Y-115754339D01*
X160459013Y-115945741D01*
X160355118Y-116195946D01*
X160354882Y-116466865D01*
X160458339Y-116717252D01*
X160649741Y-116908987D01*
X160899946Y-117012882D01*
X161170865Y-117013118D01*
X161421252Y-116909661D01*
X161444751Y-116886202D01*
X161466000Y-116890464D01*
X162966000Y-116890464D01*
X163111274Y-116862278D01*
X163195000Y-116807278D01*
X163195000Y-118329477D01*
X163051890Y-118270200D01*
X162450950Y-118270200D01*
X162343000Y-118378150D01*
X162343000Y-119075000D01*
X162363000Y-119075000D01*
X162363000Y-119329000D01*
X162343000Y-119329000D01*
X162343000Y-120025850D01*
X162450950Y-120133800D01*
X163051890Y-120133800D01*
X163195000Y-120074522D01*
X163195000Y-121031000D01*
G36*
X159385000Y-132461000D02*
X159176889Y-132461000D01*
X159177118Y-132199135D01*
X159073661Y-131948748D01*
X158882259Y-131757013D01*
X158789000Y-131718288D01*
X158789000Y-125791850D01*
X158789000Y-125095000D01*
X158042150Y-125095000D01*
X157934200Y-125202950D01*
X157934200Y-125382110D01*
X157934200Y-125553891D01*
X157999938Y-125712595D01*
X158121405Y-125834063D01*
X158280110Y-125899800D01*
X158681050Y-125899800D01*
X158789000Y-125791850D01*
X158789000Y-131718288D01*
X158632054Y-131653118D01*
X158497800Y-131653001D01*
X158497800Y-128017891D01*
X158497800Y-127846110D01*
X158497800Y-127666950D01*
X158497800Y-127197050D01*
X158497800Y-127017890D01*
X158497800Y-126846109D01*
X158432062Y-126687405D01*
X158310595Y-126565937D01*
X158151890Y-126500200D01*
X157550950Y-126500200D01*
X157443000Y-126608150D01*
X157443000Y-127305000D01*
X158389850Y-127305000D01*
X158497800Y-127197050D01*
X158497800Y-127666950D01*
X158389850Y-127559000D01*
X157443000Y-127559000D01*
X157443000Y-128255850D01*
X157550950Y-128363800D01*
X158151890Y-128363800D01*
X158310595Y-128298063D01*
X158432062Y-128176595D01*
X158497800Y-128017891D01*
X158497800Y-131653001D01*
X158361135Y-131652882D01*
X158110748Y-131756339D01*
X158038962Y-131828000D01*
X157943592Y-131828000D01*
X157822000Y-131706408D01*
X157822000Y-131520464D01*
X158066000Y-131520464D01*
X158211274Y-131492278D01*
X158338956Y-131408404D01*
X158424426Y-131281784D01*
X158454464Y-131132000D01*
X158454464Y-130132000D01*
X158426278Y-129986726D01*
X158342404Y-129859044D01*
X158215784Y-129773574D01*
X158066000Y-129743536D01*
X156566000Y-129743536D01*
X156420726Y-129771722D01*
X156337000Y-129826721D01*
X156337000Y-128304522D01*
X156480110Y-128363800D01*
X157081050Y-128363800D01*
X157189000Y-128255850D01*
X157189000Y-127559000D01*
X157169000Y-127559000D01*
X157169000Y-127305000D01*
X157189000Y-127305000D01*
X157189000Y-126608150D01*
X157081050Y-126500200D01*
X156480110Y-126500200D01*
X156337000Y-126559477D01*
X156337000Y-124333000D01*
X157954541Y-124333000D01*
X157934200Y-124382109D01*
X157934200Y-124553890D01*
X157934200Y-124733050D01*
X158042150Y-124841000D01*
X158789000Y-124841000D01*
X158789000Y-124821000D01*
X159043000Y-124821000D01*
X159043000Y-124841000D01*
X159063000Y-124841000D01*
X159063000Y-125095000D01*
X159043000Y-125095000D01*
X159043000Y-125791850D01*
X159150950Y-125899800D01*
X159385000Y-125899800D01*
X159385000Y-127000000D01*
X159385000Y-131064000D01*
X159385000Y-132461000D01*
X159385000Y-132461000D01*
G37*
X159385000Y-132461000D02*
X159176889Y-132461000D01*
X159177118Y-132199135D01*
X159073661Y-131948748D01*
X158882259Y-131757013D01*
X158789000Y-131718288D01*
X158789000Y-125791850D01*
X158789000Y-125095000D01*
X158042150Y-125095000D01*
X157934200Y-125202950D01*
X157934200Y-125382110D01*
X157934200Y-125553891D01*
X157999938Y-125712595D01*
X158121405Y-125834063D01*
X158280110Y-125899800D01*
X158681050Y-125899800D01*
X158789000Y-125791850D01*
X158789000Y-131718288D01*
X158632054Y-131653118D01*
X158497800Y-131653001D01*
X158497800Y-128017891D01*
X158497800Y-127846110D01*
X158497800Y-127666950D01*
X158497800Y-127197050D01*
X158497800Y-127017890D01*
X158497800Y-126846109D01*
X158432062Y-126687405D01*
X158310595Y-126565937D01*
X158151890Y-126500200D01*
X157550950Y-126500200D01*
X157443000Y-126608150D01*
X157443000Y-127305000D01*
X158389850Y-127305000D01*
X158497800Y-127197050D01*
X158497800Y-127666950D01*
X158389850Y-127559000D01*
X157443000Y-127559000D01*
X157443000Y-128255850D01*
X157550950Y-128363800D01*
X158151890Y-128363800D01*
X158310595Y-128298063D01*
X158432062Y-128176595D01*
X158497800Y-128017891D01*
X158497800Y-131653001D01*
X158361135Y-131652882D01*
X158110748Y-131756339D01*
X158038962Y-131828000D01*
X157943592Y-131828000D01*
X157822000Y-131706408D01*
X157822000Y-131520464D01*
X158066000Y-131520464D01*
X158211274Y-131492278D01*
X158338956Y-131408404D01*
X158424426Y-131281784D01*
X158454464Y-131132000D01*
X158454464Y-130132000D01*
X158426278Y-129986726D01*
X158342404Y-129859044D01*
X158215784Y-129773574D01*
X158066000Y-129743536D01*
X156566000Y-129743536D01*
X156420726Y-129771722D01*
X156337000Y-129826721D01*
X156337000Y-128304522D01*
X156480110Y-128363800D01*
X157081050Y-128363800D01*
X157189000Y-128255850D01*
X157189000Y-127559000D01*
X157169000Y-127559000D01*
X157169000Y-127305000D01*
X157189000Y-127305000D01*
X157189000Y-126608150D01*
X157081050Y-126500200D01*
X156480110Y-126500200D01*
X156337000Y-126559477D01*
X156337000Y-124333000D01*
X157954541Y-124333000D01*
X157934200Y-124382109D01*
X157934200Y-124553890D01*
X157934200Y-124733050D01*
X158042150Y-124841000D01*
X158789000Y-124841000D01*
X158789000Y-124821000D01*
X159043000Y-124821000D01*
X159043000Y-124841000D01*
X159063000Y-124841000D01*
X159063000Y-125095000D01*
X159043000Y-125095000D01*
X159043000Y-125791850D01*
X159150950Y-125899800D01*
X159385000Y-125899800D01*
X159385000Y-127000000D01*
X159385000Y-131064000D01*
X159385000Y-132461000D01*
G36*
X163195000Y-132461000D02*
X162089000Y-132461000D01*
X162089000Y-131455850D01*
X162089000Y-130759000D01*
X162089000Y-130505000D01*
X162089000Y-129808150D01*
X161981050Y-129700200D01*
X161380110Y-129700200D01*
X161221405Y-129765937D01*
X161099938Y-129887405D01*
X161034200Y-130046109D01*
X161034200Y-130217890D01*
X161034200Y-130397050D01*
X161142150Y-130505000D01*
X162089000Y-130505000D01*
X162089000Y-130759000D01*
X161142150Y-130759000D01*
X161034200Y-130866950D01*
X161034200Y-131046110D01*
X161034200Y-131217891D01*
X161099938Y-131376595D01*
X161221405Y-131498063D01*
X161380110Y-131563800D01*
X161981050Y-131563800D01*
X162089000Y-131455850D01*
X162089000Y-132461000D01*
X160147000Y-132461000D01*
X160147000Y-131064000D01*
X160147000Y-127000000D01*
X160147000Y-125899800D01*
X160381050Y-125899800D01*
X160489000Y-125791850D01*
X160489000Y-125095000D01*
X160469000Y-125095000D01*
X160469000Y-124841000D01*
X160489000Y-124841000D01*
X160489000Y-124821000D01*
X160743000Y-124821000D01*
X160743000Y-124841000D01*
X161489850Y-124841000D01*
X161597800Y-124733050D01*
X161597800Y-124553890D01*
X161597800Y-124382109D01*
X161577458Y-124333000D01*
X163195000Y-124333000D01*
X163195000Y-126627045D01*
X163115784Y-126573574D01*
X162966000Y-126543536D01*
X161597800Y-126543536D01*
X161597800Y-125553891D01*
X161597800Y-125382110D01*
X161597800Y-125202950D01*
X161489850Y-125095000D01*
X160743000Y-125095000D01*
X160743000Y-125791850D01*
X160850950Y-125899800D01*
X161251890Y-125899800D01*
X161410595Y-125834063D01*
X161532062Y-125712595D01*
X161597800Y-125553891D01*
X161597800Y-126543536D01*
X161466000Y-126543536D01*
X161320726Y-126571722D01*
X161193044Y-126655596D01*
X161107574Y-126782216D01*
X161077536Y-126932000D01*
X161077536Y-127027877D01*
X161008204Y-127074204D01*
X161001438Y-127080969D01*
X160901135Y-127080882D01*
X160650748Y-127184339D01*
X160459013Y-127375741D01*
X160355118Y-127625946D01*
X160354882Y-127896865D01*
X160458339Y-128147252D01*
X160649741Y-128338987D01*
X160899946Y-128442882D01*
X161170865Y-128443118D01*
X161421252Y-128339661D01*
X161444751Y-128316202D01*
X161466000Y-128320464D01*
X162966000Y-128320464D01*
X163111274Y-128292278D01*
X163195000Y-128237278D01*
X163195000Y-129759477D01*
X163051890Y-129700200D01*
X162450950Y-129700200D01*
X162343000Y-129808150D01*
X162343000Y-130505000D01*
X162363000Y-130505000D01*
X162363000Y-130759000D01*
X162343000Y-130759000D01*
X162343000Y-131455850D01*
X162450950Y-131563800D01*
X163051890Y-131563800D01*
X163195000Y-131504522D01*
X163195000Y-132461000D01*
X163195000Y-132461000D01*
G37*
X163195000Y-132461000D02*
X162089000Y-132461000D01*
X162089000Y-131455850D01*
X162089000Y-130759000D01*
X162089000Y-130505000D01*
X162089000Y-129808150D01*
X161981050Y-129700200D01*
X161380110Y-129700200D01*
X161221405Y-129765937D01*
X161099938Y-129887405D01*
X161034200Y-130046109D01*
X161034200Y-130217890D01*
X161034200Y-130397050D01*
X161142150Y-130505000D01*
X162089000Y-130505000D01*
X162089000Y-130759000D01*
X161142150Y-130759000D01*
X161034200Y-130866950D01*
X161034200Y-131046110D01*
X161034200Y-131217891D01*
X161099938Y-131376595D01*
X161221405Y-131498063D01*
X161380110Y-131563800D01*
X161981050Y-131563800D01*
X162089000Y-131455850D01*
X162089000Y-132461000D01*
X160147000Y-132461000D01*
X160147000Y-131064000D01*
X160147000Y-127000000D01*
X160147000Y-125899800D01*
X160381050Y-125899800D01*
X160489000Y-125791850D01*
X160489000Y-125095000D01*
X160469000Y-125095000D01*
X160469000Y-124841000D01*
X160489000Y-124841000D01*
X160489000Y-124821000D01*
X160743000Y-124821000D01*
X160743000Y-124841000D01*
X161489850Y-124841000D01*
X161597800Y-124733050D01*
X161597800Y-124553890D01*
X161597800Y-124382109D01*
X161577458Y-124333000D01*
X163195000Y-124333000D01*
X163195000Y-126627045D01*
X163115784Y-126573574D01*
X162966000Y-126543536D01*
X161597800Y-126543536D01*
X161597800Y-125553891D01*
X161597800Y-125382110D01*
X161597800Y-125202950D01*
X161489850Y-125095000D01*
X160743000Y-125095000D01*
X160743000Y-125791850D01*
X160850950Y-125899800D01*
X161251890Y-125899800D01*
X161410595Y-125834063D01*
X161532062Y-125712595D01*
X161597800Y-125553891D01*
X161597800Y-126543536D01*
X161466000Y-126543536D01*
X161320726Y-126571722D01*
X161193044Y-126655596D01*
X161107574Y-126782216D01*
X161077536Y-126932000D01*
X161077536Y-127027877D01*
X161008204Y-127074204D01*
X161001438Y-127080969D01*
X160901135Y-127080882D01*
X160650748Y-127184339D01*
X160459013Y-127375741D01*
X160355118Y-127625946D01*
X160354882Y-127896865D01*
X160458339Y-128147252D01*
X160649741Y-128338987D01*
X160899946Y-128442882D01*
X161170865Y-128443118D01*
X161421252Y-128339661D01*
X161444751Y-128316202D01*
X161466000Y-128320464D01*
X162966000Y-128320464D01*
X163111274Y-128292278D01*
X163195000Y-128237278D01*
X163195000Y-129759477D01*
X163051890Y-129700200D01*
X162450950Y-129700200D01*
X162343000Y-129808150D01*
X162343000Y-130505000D01*
X162363000Y-130505000D01*
X162363000Y-130759000D01*
X162343000Y-130759000D01*
X162343000Y-131455850D01*
X162450950Y-131563800D01*
X163051890Y-131563800D01*
X163195000Y-131504522D01*
X163195000Y-132461000D01*
M02*
