G04 #@! TF.FileFunction,Legend,Bot*
%FSLAX46Y46*%
G04 Gerber Fmt 4.6, Leading zero omitted, Abs format (unit mm)*
G04 Created by KiCad (PCBNEW (2015-07-07 BZR 5906)-product) date Tue 21 Jul 2015 01:08:41 PM EDT*
%MOMM*%
G01*
G04 APERTURE LIST*
%ADD10C,0.100000*%
%ADD11C,0.180000*%
G04 APERTURE END LIST*
D10*
D11*
X160218381Y-104378095D02*
X159218381Y-104378095D01*
X159837429Y-104854285D02*
X159837429Y-105616190D01*
X159218381Y-106282856D02*
X159218381Y-106473333D01*
X159266000Y-106568571D01*
X159361238Y-106663809D01*
X159551714Y-106711428D01*
X159885048Y-106711428D01*
X160075524Y-106663809D01*
X160170762Y-106568571D01*
X160218381Y-106473333D01*
X160218381Y-106282856D01*
X160170762Y-106187618D01*
X160075524Y-106092380D01*
X159885048Y-106044761D01*
X159551714Y-106044761D01*
X159361238Y-106092380D01*
X159266000Y-106187618D01*
X159218381Y-106282856D01*
X160218381Y-127238095D02*
X159218381Y-127238095D01*
X159837429Y-127714285D02*
X159837429Y-128476190D01*
X159218381Y-129142856D02*
X159218381Y-129333333D01*
X159266000Y-129428571D01*
X159361238Y-129523809D01*
X159551714Y-129571428D01*
X159885048Y-129571428D01*
X160075524Y-129523809D01*
X160170762Y-129428571D01*
X160218381Y-129333333D01*
X160218381Y-129142856D01*
X160170762Y-129047618D01*
X160075524Y-128952380D01*
X159885048Y-128904761D01*
X159551714Y-128904761D01*
X159361238Y-128952380D01*
X159266000Y-129047618D01*
X159218381Y-129142856D01*
X160218381Y-92948095D02*
X159218381Y-92948095D01*
X159837429Y-93424285D02*
X159837429Y-94186190D01*
X159218381Y-94852856D02*
X159218381Y-95043333D01*
X159266000Y-95138571D01*
X159361238Y-95233809D01*
X159551714Y-95281428D01*
X159885048Y-95281428D01*
X160075524Y-95233809D01*
X160170762Y-95138571D01*
X160218381Y-95043333D01*
X160218381Y-94852856D01*
X160170762Y-94757618D01*
X160075524Y-94662380D01*
X159885048Y-94614761D01*
X159551714Y-94614761D01*
X159361238Y-94662380D01*
X159266000Y-94757618D01*
X159218381Y-94852856D01*
X160218381Y-115808095D02*
X159218381Y-115808095D01*
X159837429Y-116284285D02*
X159837429Y-117046190D01*
X159218381Y-117712856D02*
X159218381Y-117903333D01*
X159266000Y-117998571D01*
X159361238Y-118093809D01*
X159551714Y-118141428D01*
X159885048Y-118141428D01*
X160075524Y-118093809D01*
X160170762Y-117998571D01*
X160218381Y-117903333D01*
X160218381Y-117712856D01*
X160170762Y-117617618D01*
X160075524Y-117522380D01*
X159885048Y-117474761D01*
X159551714Y-117474761D01*
X159361238Y-117522380D01*
X159266000Y-117617618D01*
X159218381Y-117712856D01*
X157241905Y-104973429D02*
X156480000Y-104973429D01*
X156860952Y-105354381D02*
X156860952Y-104592476D01*
X157241905Y-127833429D02*
X156480000Y-127833429D01*
X156860952Y-128214381D02*
X156860952Y-127452476D01*
X157241905Y-116403429D02*
X156480000Y-116403429D01*
X156860952Y-116784381D02*
X156860952Y-116022476D01*
X163083905Y-104973429D02*
X162322000Y-104973429D01*
X163083905Y-116403429D02*
X162322000Y-116403429D01*
X163083905Y-93543429D02*
X162322000Y-93543429D01*
X157241905Y-93543429D02*
X156480000Y-93543429D01*
X156860952Y-93924381D02*
X156860952Y-93162476D01*
X163083905Y-127833429D02*
X162322000Y-127833429D01*
X133643619Y-128095429D02*
X133643619Y-127904952D01*
X133596000Y-127809714D01*
X133500762Y-127714476D01*
X133310286Y-127666857D01*
X132976952Y-127666857D01*
X132786476Y-127714476D01*
X132691238Y-127809714D01*
X132643619Y-127904952D01*
X132643619Y-128095429D01*
X132691238Y-128190667D01*
X132786476Y-128285905D01*
X132976952Y-128333524D01*
X133310286Y-128333524D01*
X133500762Y-128285905D01*
X133596000Y-128190667D01*
X133643619Y-128095429D01*
X133643619Y-127238286D02*
X132834095Y-127238286D01*
X132738857Y-127190667D01*
X132691238Y-127143048D01*
X132643619Y-127047810D01*
X132643619Y-126857333D01*
X132691238Y-126762095D01*
X132738857Y-126714476D01*
X132834095Y-126666857D01*
X133643619Y-126666857D01*
X133643619Y-126333524D02*
X133643619Y-125762095D01*
X132643619Y-126047810D02*
X133643619Y-126047810D01*
X129849619Y-128285905D02*
X130849619Y-128285905D01*
X129849619Y-127809715D02*
X130849619Y-127809715D01*
X129849619Y-127238286D01*
X130849619Y-127238286D01*
X127690571Y-128285905D02*
X127690571Y-127524000D01*
X135818571Y-128285905D02*
X135818571Y-127524000D01*
X135437619Y-127904952D02*
X136199524Y-127904952D01*
M02*
