G04 #@! TF.FileFunction,Legend,Top*
%FSLAX46Y46*%
G04 Gerber Fmt 4.6, Leading zero omitted, Abs format (unit mm)*
G04 Created by KiCad (PCBNEW (2015-08-16 BZR 6095)-product) date Tue Sep  1 07:22:12 2015*
%MOMM*%
G01*
G04 APERTURE LIST*
%ADD10C,0.350000*%
%ADD11C,0.100000*%
%ADD12C,0.180000*%
%ADD13C,0.300000*%
G04 APERTURE END LIST*
D10*
D11*
X154686000Y-129032000D02*
G75*
G03X153416000Y-130302000I0J-1270000D01*
G01*
X155956000Y-130302000D02*
G75*
G03X154686000Y-129032000I-1270000J0D01*
G01*
X153416000Y-125222000D02*
G75*
G03X154686000Y-126492000I1270000J0D01*
G01*
X154686000Y-126492000D02*
G75*
G03X155956000Y-125222000I0J1270000D01*
G01*
X154686000Y-117602000D02*
G75*
G03X153416000Y-118872000I0J-1270000D01*
G01*
X155956000Y-118872000D02*
G75*
G03X154686000Y-117602000I-1270000J0D01*
G01*
X153416000Y-113792000D02*
G75*
G03X154686000Y-115062000I1270000J0D01*
G01*
X154686000Y-115062000D02*
G75*
G03X155956000Y-113792000I0J1270000D01*
G01*
X154686000Y-106172000D02*
G75*
G03X153416000Y-107442000I0J-1270000D01*
G01*
X155956000Y-107442000D02*
G75*
G03X154686000Y-106172000I-1270000J0D01*
G01*
X153416000Y-102362000D02*
G75*
G03X154686000Y-103632000I1270000J0D01*
G01*
X154686000Y-103632000D02*
G75*
G03X155956000Y-102362000I0J1270000D01*
G01*
X154686000Y-94742000D02*
G75*
G03X153416000Y-96012000I0J-1270000D01*
G01*
X155956000Y-96012000D02*
G75*
G03X154686000Y-94742000I-1270000J0D01*
G01*
X153416000Y-90932000D02*
G75*
G03X154686000Y-92202000I1270000J0D01*
G01*
X154686000Y-92202000D02*
G75*
G03X155956000Y-90932000I0J1270000D01*
G01*
X153416000Y-89662000D02*
X147066000Y-89662000D01*
X153416000Y-90932000D02*
X153416000Y-89662000D01*
X153416000Y-102362000D02*
X153416000Y-96012000D01*
X153416000Y-113792000D02*
X153416000Y-107442000D01*
X153416000Y-132842000D02*
X147066000Y-132842000D01*
X153416000Y-130302000D02*
X153416000Y-132842000D01*
X153416000Y-125222000D02*
X153416000Y-118872000D01*
X155956000Y-130302000D02*
X155956000Y-132842000D01*
X155956000Y-123952000D02*
X155956000Y-125222000D01*
X155956000Y-118872000D02*
X155956000Y-121412000D01*
X155956000Y-112522000D02*
X155956000Y-113792000D01*
X155956000Y-107442000D02*
X155956000Y-109982000D01*
X155956000Y-101092000D02*
X155956000Y-102362000D01*
X155956000Y-96012000D02*
X155956000Y-98552000D01*
X155956000Y-89662000D02*
X155956000Y-90932000D01*
X147066000Y-122682000D02*
X147066000Y-132842000D01*
X144526000Y-122682000D02*
X144526000Y-124714000D01*
X144526000Y-97790000D02*
X144526000Y-99822000D01*
X144526000Y-99822000D02*
G75*
G03X145796000Y-101092000I1270000J0D01*
G01*
X145796000Y-101092000D02*
G75*
G03X147066000Y-99822000I0J1270000D01*
G01*
X145796000Y-103632000D02*
G75*
G03X144526000Y-104902000I0J-1270000D01*
G01*
X147066000Y-104902000D02*
G75*
G03X145796000Y-103632000I-1270000J0D01*
G01*
X145796000Y-121412000D02*
G75*
G03X144526000Y-122682000I0J-1270000D01*
G01*
X147066000Y-122682000D02*
G75*
G03X145796000Y-121412000I-1270000J0D01*
G01*
X144526000Y-117602000D02*
G75*
G03X145796000Y-118872000I1270000J0D01*
G01*
X145796000Y-118872000D02*
G75*
G03X147066000Y-117602000I0J1270000D01*
G01*
X147066000Y-89662000D02*
X147066000Y-99822000D01*
X144526000Y-104902000D02*
X144526000Y-108712000D01*
X144526000Y-113792000D02*
X144526000Y-117602000D01*
X147066000Y-117602000D02*
X147066000Y-104902000D01*
X155956000Y-112522000D02*
X163576000Y-112522000D01*
X163576000Y-121412000D02*
X155956000Y-121412000D01*
X163576000Y-121412000D02*
X163576000Y-112522000D01*
X163576000Y-132842000D02*
X163576000Y-123952000D01*
X163576000Y-132842000D02*
X155956000Y-132842000D01*
X155956000Y-123952000D02*
X163576000Y-123952000D01*
X155956000Y-101092000D02*
X163576000Y-101092000D01*
X163576000Y-109982000D02*
X155956000Y-109982000D01*
X163576000Y-109982000D02*
X163576000Y-101092000D01*
X127254000Y-89662000D02*
X136398000Y-89662000D01*
X136398000Y-132842000D02*
X127254000Y-132842000D01*
X119126000Y-97790000D02*
X119126000Y-108712000D01*
X126746000Y-106934000D02*
X126746000Y-97790000D01*
X136398000Y-107442000D02*
X127254000Y-107442000D01*
X136906000Y-97790000D02*
X136906000Y-106934000D01*
X127254000Y-97282000D02*
X136398000Y-97282000D01*
X126746000Y-124714000D02*
X126746000Y-115570000D01*
X127254000Y-125222000D02*
X126746000Y-124714000D01*
X136398000Y-125222000D02*
X127254000Y-125222000D01*
X136906000Y-124714000D02*
X136398000Y-125222000D01*
X136906000Y-115570000D02*
X136906000Y-124714000D01*
X127254000Y-115062000D02*
X136398000Y-115062000D01*
X126746000Y-115570000D02*
X127254000Y-115062000D01*
X119126000Y-124714000D02*
X119126000Y-113792000D01*
X136398000Y-115062000D02*
X136906000Y-115570000D01*
X136906000Y-106934000D02*
X136398000Y-107442000D01*
X136398000Y-97282000D02*
X136906000Y-97790000D01*
X126746000Y-97790000D02*
X127254000Y-97282000D01*
X127254000Y-107442000D02*
X126746000Y-106934000D01*
X144526000Y-124714000D02*
X136398000Y-132842000D01*
X142494000Y-111760000D02*
X144526000Y-113792000D01*
X142494000Y-110744000D02*
X142494000Y-111760000D01*
X144526000Y-108712000D02*
X142494000Y-110744000D01*
X136398000Y-89662000D02*
X144526000Y-97790000D01*
X119126000Y-97790000D02*
X127254000Y-89662000D01*
X121158000Y-110744000D02*
X119126000Y-108712000D01*
X121158000Y-111760000D02*
X121158000Y-110744000D01*
X119126000Y-113792000D02*
X121158000Y-111760000D01*
X127254000Y-132842000D02*
X119126000Y-124714000D01*
X163576000Y-98552000D02*
X163576000Y-89662000D01*
X163576000Y-98552000D02*
X155956000Y-98552000D01*
X155956000Y-89662000D02*
X163576000Y-89662000D01*
D12*
X161544000Y-114427000D02*
X157988000Y-114427000D01*
X157988000Y-114427000D02*
X157988000Y-112649000D01*
X157988000Y-112649000D02*
X161544000Y-112649000D01*
X161544000Y-112649000D02*
X161544000Y-114427000D01*
X161544000Y-125857000D02*
X157988000Y-125857000D01*
X157988000Y-125857000D02*
X157988000Y-124079000D01*
X157988000Y-124079000D02*
X161544000Y-124079000D01*
X161544000Y-124079000D02*
X161544000Y-125857000D01*
X161544000Y-102997000D02*
X157988000Y-102997000D01*
X157988000Y-102997000D02*
X157988000Y-101219000D01*
X157988000Y-101219000D02*
X161544000Y-101219000D01*
X161544000Y-101219000D02*
X161544000Y-102997000D01*
X135001000Y-130810000D02*
X135001000Y-127254000D01*
X135001000Y-127254000D02*
X136779000Y-127254000D01*
X136779000Y-127254000D02*
X136779000Y-130810000D01*
X136779000Y-130810000D02*
X135001000Y-130810000D01*
X121158000Y-115189000D02*
X124714000Y-115189000D01*
X124714000Y-115189000D02*
X124714000Y-116967000D01*
X124714000Y-116967000D02*
X121158000Y-116967000D01*
X121158000Y-116967000D02*
X121158000Y-115189000D01*
X136525000Y-109474000D02*
X136525000Y-113030000D01*
X136525000Y-113030000D02*
X134747000Y-113030000D01*
X134747000Y-113030000D02*
X134747000Y-109474000D01*
X134747000Y-109474000D02*
X136525000Y-109474000D01*
X124714000Y-107315000D02*
X121158000Y-107315000D01*
X121158000Y-107315000D02*
X121158000Y-105537000D01*
X121158000Y-105537000D02*
X124714000Y-105537000D01*
X124714000Y-105537000D02*
X124714000Y-107315000D01*
X126873000Y-95250000D02*
X126873000Y-91694000D01*
X126873000Y-91694000D02*
X128651000Y-91694000D01*
X128651000Y-91694000D02*
X128651000Y-95250000D01*
X128651000Y-95250000D02*
X126873000Y-95250000D01*
X138938000Y-97409000D02*
X142494000Y-97409000D01*
X142494000Y-97409000D02*
X142494000Y-99187000D01*
X142494000Y-99187000D02*
X138938000Y-99187000D01*
X138938000Y-99187000D02*
X138938000Y-97409000D01*
X142494000Y-125095000D02*
X138938000Y-125095000D01*
X138938000Y-125095000D02*
X138938000Y-123317000D01*
X138938000Y-123317000D02*
X142494000Y-123317000D01*
X142494000Y-123317000D02*
X142494000Y-125095000D01*
X161544000Y-91567000D02*
X157988000Y-91567000D01*
X157988000Y-91567000D02*
X157988000Y-89789000D01*
X157988000Y-89789000D02*
X161544000Y-89789000D01*
X161544000Y-89789000D02*
X161544000Y-91567000D01*
X162266000Y-95342000D02*
X161066000Y-95342000D01*
X161066000Y-95342000D02*
X161066000Y-97242000D01*
D13*
X163066000Y-97542000D02*
G75*
G03X163066000Y-97542000I-100000J0D01*
G01*
D12*
X162266000Y-92442000D02*
X162266000Y-92242000D01*
X162266000Y-92242000D02*
X157266000Y-92242000D01*
X157266000Y-92242000D02*
X157266000Y-92442000D01*
X162266000Y-95642000D02*
X162266000Y-93842000D01*
X157266000Y-97242000D02*
X162266000Y-97242000D01*
X162266000Y-97242000D02*
X162266000Y-97042000D01*
X157266000Y-97242000D02*
X157266000Y-97042000D01*
X157266000Y-93742000D02*
X157266000Y-95642000D01*
X138216000Y-119542000D02*
X139416000Y-119542000D01*
X139416000Y-119542000D02*
X139416000Y-117642000D01*
D13*
X137616000Y-117342000D02*
G75*
G03X137616000Y-117342000I-100000J0D01*
G01*
D12*
X138216000Y-122442000D02*
X138216000Y-122642000D01*
X138216000Y-122642000D02*
X143216000Y-122642000D01*
X143216000Y-122642000D02*
X143216000Y-122442000D01*
X138216000Y-119242000D02*
X138216000Y-121042000D01*
X143216000Y-117642000D02*
X138216000Y-117642000D01*
X138216000Y-117642000D02*
X138216000Y-117842000D01*
X143216000Y-117642000D02*
X143216000Y-117842000D01*
X143216000Y-121142000D02*
X143216000Y-119242000D01*
X143216000Y-102962000D02*
X142016000Y-102962000D01*
X142016000Y-102962000D02*
X142016000Y-104862000D01*
D13*
X144016000Y-105162000D02*
G75*
G03X144016000Y-105162000I-100000J0D01*
G01*
D12*
X143216000Y-100062000D02*
X143216000Y-99862000D01*
X143216000Y-99862000D02*
X138216000Y-99862000D01*
X138216000Y-99862000D02*
X138216000Y-100062000D01*
X143216000Y-103262000D02*
X143216000Y-101462000D01*
X138216000Y-104862000D02*
X143216000Y-104862000D01*
X143216000Y-104862000D02*
X143216000Y-104662000D01*
X138216000Y-104862000D02*
X138216000Y-104662000D01*
X138216000Y-101362000D02*
X138216000Y-103262000D01*
X132426000Y-90972000D02*
X132426000Y-92172000D01*
X132426000Y-92172000D02*
X134326000Y-92172000D01*
D13*
X134726000Y-90272000D02*
G75*
G03X134726000Y-90272000I-100000J0D01*
G01*
D12*
X129526000Y-90972000D02*
X129326000Y-90972000D01*
X129326000Y-90972000D02*
X129326000Y-95972000D01*
X129326000Y-95972000D02*
X129526000Y-95972000D01*
X132726000Y-90972000D02*
X130926000Y-90972000D01*
X134326000Y-95972000D02*
X134326000Y-90972000D01*
X134326000Y-90972000D02*
X134126000Y-90972000D01*
X134326000Y-95972000D02*
X134126000Y-95972000D01*
X130826000Y-95972000D02*
X132726000Y-95972000D01*
X120436000Y-101762000D02*
X121636000Y-101762000D01*
X121636000Y-101762000D02*
X121636000Y-99862000D01*
D13*
X119836000Y-99562000D02*
G75*
G03X119836000Y-99562000I-100000J0D01*
G01*
D12*
X120436000Y-104662000D02*
X120436000Y-104862000D01*
X120436000Y-104862000D02*
X125436000Y-104862000D01*
X125436000Y-104862000D02*
X125436000Y-104662000D01*
X120436000Y-101462000D02*
X120436000Y-103262000D01*
X125436000Y-99862000D02*
X120436000Y-99862000D01*
X120436000Y-99862000D02*
X120436000Y-100062000D01*
X125436000Y-99862000D02*
X125436000Y-100062000D01*
X125436000Y-103362000D02*
X125436000Y-101462000D01*
X131226000Y-113752000D02*
X131226000Y-112552000D01*
X131226000Y-112552000D02*
X129326000Y-112552000D01*
D13*
X129126000Y-114452000D02*
G75*
G03X129126000Y-114452000I-100000J0D01*
G01*
D12*
X134126000Y-113752000D02*
X134326000Y-113752000D01*
X134326000Y-113752000D02*
X134326000Y-108752000D01*
X134326000Y-108752000D02*
X134126000Y-108752000D01*
X130926000Y-113752000D02*
X132726000Y-113752000D01*
X129326000Y-108752000D02*
X129326000Y-113752000D01*
X129326000Y-113752000D02*
X129526000Y-113752000D01*
X129326000Y-108752000D02*
X129526000Y-108752000D01*
X132826000Y-108752000D02*
X130926000Y-108752000D01*
X125436000Y-120742000D02*
X124236000Y-120742000D01*
X124236000Y-120742000D02*
X124236000Y-122642000D01*
D13*
X126236000Y-122942000D02*
G75*
G03X126236000Y-122942000I-100000J0D01*
G01*
D12*
X125436000Y-117842000D02*
X125436000Y-117642000D01*
X125436000Y-117642000D02*
X120436000Y-117642000D01*
X120436000Y-117642000D02*
X120436000Y-117842000D01*
X125436000Y-121042000D02*
X125436000Y-119242000D01*
X120436000Y-122642000D02*
X125436000Y-122642000D01*
X125436000Y-122642000D02*
X125436000Y-122442000D01*
X120436000Y-122642000D02*
X120436000Y-122442000D01*
X120436000Y-119142000D02*
X120436000Y-121042000D01*
X129326000Y-128432000D02*
X130526000Y-128432000D01*
X130526000Y-128432000D02*
X130526000Y-126532000D01*
D13*
X128726000Y-126232000D02*
G75*
G03X128726000Y-126232000I-100000J0D01*
G01*
D12*
X129326000Y-131332000D02*
X129326000Y-131532000D01*
X129326000Y-131532000D02*
X134326000Y-131532000D01*
X134326000Y-131532000D02*
X134326000Y-131332000D01*
X129326000Y-128132000D02*
X129326000Y-129932000D01*
X134326000Y-126532000D02*
X129326000Y-126532000D01*
X129326000Y-126532000D02*
X129326000Y-126732000D01*
X134326000Y-126532000D02*
X134326000Y-126732000D01*
X134326000Y-130032000D02*
X134326000Y-128132000D01*
X162266000Y-106772000D02*
X161066000Y-106772000D01*
X161066000Y-106772000D02*
X161066000Y-108672000D01*
D13*
X163066000Y-108972000D02*
G75*
G03X163066000Y-108972000I-100000J0D01*
G01*
D12*
X162266000Y-103872000D02*
X162266000Y-103672000D01*
X162266000Y-103672000D02*
X157266000Y-103672000D01*
X157266000Y-103672000D02*
X157266000Y-103872000D01*
X162266000Y-107072000D02*
X162266000Y-105272000D01*
X157266000Y-108672000D02*
X162266000Y-108672000D01*
X162266000Y-108672000D02*
X162266000Y-108472000D01*
X157266000Y-108672000D02*
X157266000Y-108472000D01*
X157266000Y-105172000D02*
X157266000Y-107072000D01*
X162266000Y-129632000D02*
X161066000Y-129632000D01*
X161066000Y-129632000D02*
X161066000Y-131532000D01*
D13*
X163066000Y-131832000D02*
G75*
G03X163066000Y-131832000I-100000J0D01*
G01*
D12*
X162266000Y-126732000D02*
X162266000Y-126532000D01*
X162266000Y-126532000D02*
X157266000Y-126532000D01*
X157266000Y-126532000D02*
X157266000Y-126732000D01*
X162266000Y-129932000D02*
X162266000Y-128132000D01*
X157266000Y-131532000D02*
X162266000Y-131532000D01*
X162266000Y-131532000D02*
X162266000Y-131332000D01*
X157266000Y-131532000D02*
X157266000Y-131332000D01*
X157266000Y-128032000D02*
X157266000Y-129932000D01*
X162266000Y-118202000D02*
X161066000Y-118202000D01*
X161066000Y-118202000D02*
X161066000Y-120102000D01*
D13*
X163066000Y-120402000D02*
G75*
G03X163066000Y-120402000I-100000J0D01*
G01*
D12*
X162266000Y-115302000D02*
X162266000Y-115102000D01*
X162266000Y-115102000D02*
X157266000Y-115102000D01*
X157266000Y-115102000D02*
X157266000Y-115302000D01*
X162266000Y-118502000D02*
X162266000Y-116702000D01*
X157266000Y-120102000D02*
X162266000Y-120102000D01*
X162266000Y-120102000D02*
X162266000Y-119902000D01*
X157266000Y-120102000D02*
X157266000Y-119902000D01*
X157266000Y-116602000D02*
X157266000Y-118502000D01*
X162925143Y-113744476D02*
X162972762Y-113792095D01*
X163020381Y-113934952D01*
X163020381Y-114030190D01*
X162972762Y-114173048D01*
X162877524Y-114268286D01*
X162782286Y-114315905D01*
X162591810Y-114363524D01*
X162448952Y-114363524D01*
X162258476Y-114315905D01*
X162163238Y-114268286D01*
X162068000Y-114173048D01*
X162020381Y-114030190D01*
X162020381Y-113934952D01*
X162068000Y-113792095D01*
X162115619Y-113744476D01*
X163020381Y-112792095D02*
X163020381Y-113363524D01*
X163020381Y-113077810D02*
X162020381Y-113077810D01*
X162163238Y-113173048D01*
X162258476Y-113268286D01*
X162306095Y-113363524D01*
X162925143Y-125174476D02*
X162972762Y-125222095D01*
X163020381Y-125364952D01*
X163020381Y-125460190D01*
X162972762Y-125603048D01*
X162877524Y-125698286D01*
X162782286Y-125745905D01*
X162591810Y-125793524D01*
X162448952Y-125793524D01*
X162258476Y-125745905D01*
X162163238Y-125698286D01*
X162068000Y-125603048D01*
X162020381Y-125460190D01*
X162020381Y-125364952D01*
X162068000Y-125222095D01*
X162115619Y-125174476D01*
X163020381Y-124222095D02*
X163020381Y-124793524D01*
X163020381Y-124507810D02*
X162020381Y-124507810D01*
X162163238Y-124603048D01*
X162258476Y-124698286D01*
X162306095Y-124793524D01*
X162925143Y-102314476D02*
X162972762Y-102362095D01*
X163020381Y-102504952D01*
X163020381Y-102600190D01*
X162972762Y-102743048D01*
X162877524Y-102838286D01*
X162782286Y-102885905D01*
X162591810Y-102933524D01*
X162448952Y-102933524D01*
X162258476Y-102885905D01*
X162163238Y-102838286D01*
X162068000Y-102743048D01*
X162020381Y-102600190D01*
X162020381Y-102504952D01*
X162068000Y-102362095D01*
X162115619Y-102314476D01*
X163020381Y-101362095D02*
X163020381Y-101933524D01*
X163020381Y-101647810D02*
X162020381Y-101647810D01*
X162163238Y-101743048D01*
X162258476Y-101838286D01*
X162306095Y-101933524D01*
X138033143Y-127968476D02*
X138080762Y-128016095D01*
X138128381Y-128158952D01*
X138128381Y-128254190D01*
X138080762Y-128397048D01*
X137985524Y-128492286D01*
X137890286Y-128539905D01*
X137699810Y-128587524D01*
X137556952Y-128587524D01*
X137366476Y-128539905D01*
X137271238Y-128492286D01*
X137176000Y-128397048D01*
X137128381Y-128254190D01*
X137128381Y-128158952D01*
X137176000Y-128016095D01*
X137223619Y-127968476D01*
X138128381Y-127016095D02*
X138128381Y-127587524D01*
X138128381Y-127301810D02*
X137128381Y-127301810D01*
X137271238Y-127397048D01*
X137366476Y-127492286D01*
X137414095Y-127587524D01*
X121713524Y-114665143D02*
X121665905Y-114712762D01*
X121523048Y-114760381D01*
X121427810Y-114760381D01*
X121284952Y-114712762D01*
X121189714Y-114617524D01*
X121142095Y-114522286D01*
X121094476Y-114331810D01*
X121094476Y-114188952D01*
X121142095Y-113998476D01*
X121189714Y-113903238D01*
X121284952Y-113808000D01*
X121427810Y-113760381D01*
X121523048Y-113760381D01*
X121665905Y-113808000D01*
X121713524Y-113855619D01*
X122094476Y-113855619D02*
X122142095Y-113808000D01*
X122237333Y-113760381D01*
X122475429Y-113760381D01*
X122570667Y-113808000D01*
X122618286Y-113855619D01*
X122665905Y-113950857D01*
X122665905Y-114046095D01*
X122618286Y-114188952D01*
X122046857Y-114760381D01*
X122665905Y-114760381D01*
X137779143Y-112474476D02*
X137826762Y-112522095D01*
X137874381Y-112664952D01*
X137874381Y-112760190D01*
X137826762Y-112903048D01*
X137731524Y-112998286D01*
X137636286Y-113045905D01*
X137445810Y-113093524D01*
X137302952Y-113093524D01*
X137112476Y-113045905D01*
X137017238Y-112998286D01*
X136922000Y-112903048D01*
X136874381Y-112760190D01*
X136874381Y-112664952D01*
X136922000Y-112522095D01*
X136969619Y-112474476D01*
X136874381Y-112141143D02*
X136874381Y-111522095D01*
X137255333Y-111855429D01*
X137255333Y-111712571D01*
X137302952Y-111617333D01*
X137350571Y-111569714D01*
X137445810Y-111522095D01*
X137683905Y-111522095D01*
X137779143Y-111569714D01*
X137826762Y-111617333D01*
X137874381Y-111712571D01*
X137874381Y-111998286D01*
X137826762Y-112093524D01*
X137779143Y-112141143D01*
X123872524Y-108569143D02*
X123824905Y-108616762D01*
X123682048Y-108664381D01*
X123586810Y-108664381D01*
X123443952Y-108616762D01*
X123348714Y-108521524D01*
X123301095Y-108426286D01*
X123253476Y-108235810D01*
X123253476Y-108092952D01*
X123301095Y-107902476D01*
X123348714Y-107807238D01*
X123443952Y-107712000D01*
X123586810Y-107664381D01*
X123682048Y-107664381D01*
X123824905Y-107712000D01*
X123872524Y-107759619D01*
X124729667Y-107997714D02*
X124729667Y-108664381D01*
X124491571Y-107616762D02*
X124253476Y-108331048D01*
X124872524Y-108331048D01*
X126349143Y-94694476D02*
X126396762Y-94742095D01*
X126444381Y-94884952D01*
X126444381Y-94980190D01*
X126396762Y-95123048D01*
X126301524Y-95218286D01*
X126206286Y-95265905D01*
X126015810Y-95313524D01*
X125872952Y-95313524D01*
X125682476Y-95265905D01*
X125587238Y-95218286D01*
X125492000Y-95123048D01*
X125444381Y-94980190D01*
X125444381Y-94884952D01*
X125492000Y-94742095D01*
X125539619Y-94694476D01*
X125444381Y-93789714D02*
X125444381Y-94265905D01*
X125920571Y-94313524D01*
X125872952Y-94265905D01*
X125825333Y-94170667D01*
X125825333Y-93932571D01*
X125872952Y-93837333D01*
X125920571Y-93789714D01*
X126015810Y-93742095D01*
X126253905Y-93742095D01*
X126349143Y-93789714D01*
X126396762Y-93837333D01*
X126444381Y-93932571D01*
X126444381Y-94170667D01*
X126396762Y-94265905D01*
X126349143Y-94313524D01*
X139747524Y-97012143D02*
X139699905Y-97059762D01*
X139557048Y-97107381D01*
X139461810Y-97107381D01*
X139318952Y-97059762D01*
X139223714Y-96964524D01*
X139176095Y-96869286D01*
X139128476Y-96678810D01*
X139128476Y-96535952D01*
X139176095Y-96345476D01*
X139223714Y-96250238D01*
X139318952Y-96155000D01*
X139461810Y-96107381D01*
X139557048Y-96107381D01*
X139699905Y-96155000D01*
X139747524Y-96202619D01*
X140604667Y-96107381D02*
X140414190Y-96107381D01*
X140318952Y-96155000D01*
X140271333Y-96202619D01*
X140176095Y-96345476D01*
X140128476Y-96535952D01*
X140128476Y-96916905D01*
X140176095Y-97012143D01*
X140223714Y-97059762D01*
X140318952Y-97107381D01*
X140509429Y-97107381D01*
X140604667Y-97059762D01*
X140652286Y-97012143D01*
X140699905Y-96916905D01*
X140699905Y-96678810D01*
X140652286Y-96583571D01*
X140604667Y-96535952D01*
X140509429Y-96488333D01*
X140318952Y-96488333D01*
X140223714Y-96535952D01*
X140176095Y-96583571D01*
X140128476Y-96678810D01*
X139493524Y-126476143D02*
X139445905Y-126523762D01*
X139303048Y-126571381D01*
X139207810Y-126571381D01*
X139064952Y-126523762D01*
X138969714Y-126428524D01*
X138922095Y-126333286D01*
X138874476Y-126142810D01*
X138874476Y-125999952D01*
X138922095Y-125809476D01*
X138969714Y-125714238D01*
X139064952Y-125619000D01*
X139207810Y-125571381D01*
X139303048Y-125571381D01*
X139445905Y-125619000D01*
X139493524Y-125666619D01*
X139826857Y-125571381D02*
X140493524Y-125571381D01*
X140064952Y-126571381D01*
X162925143Y-90884476D02*
X162972762Y-90932095D01*
X163020381Y-91074952D01*
X163020381Y-91170190D01*
X162972762Y-91313048D01*
X162877524Y-91408286D01*
X162782286Y-91455905D01*
X162591810Y-91503524D01*
X162448952Y-91503524D01*
X162258476Y-91455905D01*
X162163238Y-91408286D01*
X162068000Y-91313048D01*
X162020381Y-91170190D01*
X162020381Y-91074952D01*
X162068000Y-90932095D01*
X162115619Y-90884476D01*
X163020381Y-89932095D02*
X163020381Y-90503524D01*
X163020381Y-90217810D02*
X162020381Y-90217810D01*
X162163238Y-90313048D01*
X162258476Y-90408286D01*
X162306095Y-90503524D01*
X160274095Y-97242381D02*
X160274095Y-98051905D01*
X160321714Y-98147143D01*
X160369333Y-98194762D01*
X160464571Y-98242381D01*
X160655048Y-98242381D01*
X160750286Y-98194762D01*
X160797905Y-98147143D01*
X160845524Y-98051905D01*
X160845524Y-97242381D01*
X161845524Y-98242381D02*
X161274095Y-98242381D01*
X161559809Y-98242381D02*
X161559809Y-97242381D01*
X161464571Y-97385238D01*
X161369333Y-97480476D01*
X161274095Y-97528095D01*
X140081095Y-116292381D02*
X140081095Y-117101905D01*
X140128714Y-117197143D01*
X140176333Y-117244762D01*
X140271571Y-117292381D01*
X140462048Y-117292381D01*
X140557286Y-117244762D01*
X140604905Y-117197143D01*
X140652524Y-117101905D01*
X140652524Y-116292381D01*
X141033476Y-116292381D02*
X141700143Y-116292381D01*
X141271571Y-117292381D01*
X138557095Y-105243381D02*
X138557095Y-106052905D01*
X138604714Y-106148143D01*
X138652333Y-106195762D01*
X138747571Y-106243381D01*
X138938048Y-106243381D01*
X139033286Y-106195762D01*
X139080905Y-106148143D01*
X139128524Y-106052905D01*
X139128524Y-105243381D01*
X140033286Y-105243381D02*
X139842809Y-105243381D01*
X139747571Y-105291000D01*
X139699952Y-105338619D01*
X139604714Y-105481476D01*
X139557095Y-105671952D01*
X139557095Y-106052905D01*
X139604714Y-106148143D01*
X139652333Y-106195762D01*
X139747571Y-106243381D01*
X139938048Y-106243381D01*
X140033286Y-106195762D01*
X140080905Y-106148143D01*
X140128524Y-106052905D01*
X140128524Y-105814810D01*
X140080905Y-105719571D01*
X140033286Y-105671952D01*
X139938048Y-105624333D01*
X139747571Y-105624333D01*
X139652333Y-105671952D01*
X139604714Y-105719571D01*
X139557095Y-105814810D01*
X134707381Y-94233905D02*
X135516905Y-94233905D01*
X135612143Y-94186286D01*
X135659762Y-94138667D01*
X135707381Y-94043429D01*
X135707381Y-93852952D01*
X135659762Y-93757714D01*
X135612143Y-93710095D01*
X135516905Y-93662476D01*
X134707381Y-93662476D01*
X134707381Y-92710095D02*
X134707381Y-93186286D01*
X135183571Y-93233905D01*
X135135952Y-93186286D01*
X135088333Y-93091048D01*
X135088333Y-92852952D01*
X135135952Y-92757714D01*
X135183571Y-92710095D01*
X135278810Y-92662476D01*
X135516905Y-92662476D01*
X135612143Y-92710095D01*
X135659762Y-92757714D01*
X135707381Y-92852952D01*
X135707381Y-93091048D01*
X135659762Y-93186286D01*
X135612143Y-93233905D01*
X122174095Y-98512381D02*
X122174095Y-99321905D01*
X122221714Y-99417143D01*
X122269333Y-99464762D01*
X122364571Y-99512381D01*
X122555048Y-99512381D01*
X122650286Y-99464762D01*
X122697905Y-99417143D01*
X122745524Y-99321905D01*
X122745524Y-98512381D01*
X123650286Y-98845714D02*
X123650286Y-99512381D01*
X123412190Y-98464762D02*
X123174095Y-99179048D01*
X123793143Y-99179048D01*
X128103381Y-111632905D02*
X128912905Y-111632905D01*
X129008143Y-111585286D01*
X129055762Y-111537667D01*
X129103381Y-111442429D01*
X129103381Y-111251952D01*
X129055762Y-111156714D01*
X129008143Y-111109095D01*
X128912905Y-111061476D01*
X128103381Y-111061476D01*
X128103381Y-110680524D02*
X128103381Y-110061476D01*
X128484333Y-110394810D01*
X128484333Y-110251952D01*
X128531952Y-110156714D01*
X128579571Y-110109095D01*
X128674810Y-110061476D01*
X128912905Y-110061476D01*
X129008143Y-110109095D01*
X129055762Y-110156714D01*
X129103381Y-110251952D01*
X129103381Y-110537667D01*
X129055762Y-110632905D01*
X129008143Y-110680524D01*
X122174095Y-123023381D02*
X122174095Y-123832905D01*
X122221714Y-123928143D01*
X122269333Y-123975762D01*
X122364571Y-124023381D01*
X122555048Y-124023381D01*
X122650286Y-123975762D01*
X122697905Y-123928143D01*
X122745524Y-123832905D01*
X122745524Y-123023381D01*
X123174095Y-123118619D02*
X123221714Y-123071000D01*
X123316952Y-123023381D01*
X123555048Y-123023381D01*
X123650286Y-123071000D01*
X123697905Y-123118619D01*
X123745524Y-123213857D01*
X123745524Y-123309095D01*
X123697905Y-123451952D01*
X123126476Y-124023381D01*
X123745524Y-124023381D01*
X127976381Y-129920905D02*
X128785905Y-129920905D01*
X128881143Y-129873286D01*
X128928762Y-129825667D01*
X128976381Y-129730429D01*
X128976381Y-129539952D01*
X128928762Y-129444714D01*
X128881143Y-129397095D01*
X128785905Y-129349476D01*
X127976381Y-129349476D01*
X128976381Y-128349476D02*
X128976381Y-128920905D01*
X128976381Y-128635191D02*
X127976381Y-128635191D01*
X128119238Y-128730429D01*
X128214476Y-128825667D01*
X128262095Y-128920905D01*
X160274095Y-108672381D02*
X160274095Y-109481905D01*
X160321714Y-109577143D01*
X160369333Y-109624762D01*
X160464571Y-109672381D01*
X160655048Y-109672381D01*
X160750286Y-109624762D01*
X160797905Y-109577143D01*
X160845524Y-109481905D01*
X160845524Y-108672381D01*
X161845524Y-109672381D02*
X161274095Y-109672381D01*
X161559809Y-109672381D02*
X161559809Y-108672381D01*
X161464571Y-108815238D01*
X161369333Y-108910476D01*
X161274095Y-108958095D01*
X160274095Y-131532381D02*
X160274095Y-132341905D01*
X160321714Y-132437143D01*
X160369333Y-132484762D01*
X160464571Y-132532381D01*
X160655048Y-132532381D01*
X160750286Y-132484762D01*
X160797905Y-132437143D01*
X160845524Y-132341905D01*
X160845524Y-131532381D01*
X161845524Y-132532381D02*
X161274095Y-132532381D01*
X161559809Y-132532381D02*
X161559809Y-131532381D01*
X161464571Y-131675238D01*
X161369333Y-131770476D01*
X161274095Y-131818095D01*
X160274095Y-120102381D02*
X160274095Y-120911905D01*
X160321714Y-121007143D01*
X160369333Y-121054762D01*
X160464571Y-121102381D01*
X160655048Y-121102381D01*
X160750286Y-121054762D01*
X160797905Y-121007143D01*
X160845524Y-120911905D01*
X160845524Y-120102381D01*
X161845524Y-121102381D02*
X161274095Y-121102381D01*
X161559809Y-121102381D02*
X161559809Y-120102381D01*
X161464571Y-120245238D01*
X161369333Y-120340476D01*
X161274095Y-120388095D01*
M02*
